<svg width="945" height="855" viewBox="0 0 945 855" fill="none" xmlns="http://www.w3.org/2000/svg">
<path d="M843.584 509.087C861.335 509.087 875.726 494.696 875.726 476.944C875.726 459.193 861.335 444.802 843.584 444.802C825.832 444.802 811.441 459.193 811.441 476.944C811.441 494.696 825.832 509.087 843.584 509.087Z" fill="#E8E8E8"/>
<path d="M183.59 357.686C199.967 357.686 213.244 344.41 213.244 328.032C213.244 311.655 199.967 298.378 183.59 298.378C167.213 298.378 153.936 311.655 153.936 328.032C153.936 344.41 167.213 357.686 183.59 357.686Z" fill="white"/>
<path d="M628.118 204.743C603.706 221.305 550.067 244.771 525.921 305.531C505.234 357.587 377.746 305.531 400.383 203.86C417.158 128.516 330.097 106.484 400.383 39.3698C470.668 -27.7442 566.06 62.9179 612.079 33.4823C658.097 4.04757 740.456 128.534 628.118 204.743Z" fill="#E8E8E8"/>
<path d="M398.923 507.476C427.947 482.686 482.793 389.597 410.076 330.58C315.934 254.175 397.807 169.108 326.41 136.133C266.521 108.475 146.858 182.992 208.202 282.603C269.545 382.214 159.482 362.686 154.206 455.215C149.256 542.023 307.976 585.153 398.923 507.476Z" fill="#E8E8E8"/>
<path d="M626.508 461.532C617.479 422.895 508.805 360.109 572.872 294.314C638.636 226.776 688.743 224.585 711.621 172.177C738.163 111.379 859.281 159.51 846.508 243.124C833.735 326.736 910.772 347.416 896.625 398.593C875.836 473.799 791.435 380.535 801.619 503.462C805.792 553.823 738.163 598.374 666.075 563.322C593.512 528.037 633.08 489.65 626.508 461.532Z" fill="#E8E8E8"/>
<path d="M98.3413 808.827C98.3413 808.827 42.5503 810.151 20.8016 824.093C-5.17932 840.749 196.491 867.94 402.269 841.73C625.127 813.344 675.008 882.008 890.225 842.287C960.607 829.298 947.107 811.058 851.189 805.481C755.27 799.904 98.3413 808.827 98.3413 808.827Z" fill="#E8E8E8"/>
<path d="M54.5775 817.59H864.741C864.741 817.59 907.513 784.567 863.3 770.508C822.126 757.415 887.775 727.457 854.427 694.109C821.079 660.761 790.797 737.354 768.951 733.725C747.104 730.097 763.893 675.909 719.149 676.344C674.404 676.779 716.898 730.649 684.818 733.725C652.737 736.802 676.483 684.082 641.126 688.006C605.768 691.93 639.349 769.113 596.037 771.816C549.494 774.721 596.498 694.4 543.799 694.4C500.291 694.4 531.922 761.668 492.652 761.93C453.382 762.192 487.868 672.643 440.906 677.978C393.945 683.313 427.294 761.78 393.945 761.78C360.597 761.78 395.233 663.085 347.897 662.284C300.562 661.484 307.87 733.725 285.764 742.226C239.585 759.984 276.341 647.355 224.296 653.784C189.348 658.1 221.25 712.939 184.781 716.9C136.264 722.168 161.359 599.957 102.804 619.399C67.3164 631.182 131.575 761.241 104.993 769.528C68.2789 780.971 76.0685 751.266 50.9422 769.528C24.1723 788.981 54.5775 817.59 54.5775 817.59Z" fill="#E8E8E8"/>
<path d="M491.91 817.59C491.91 817.59 430.878 771.706 446.572 726.368C454.419 732.472 498.885 785.875 491.91 817.59Z" fill="#222222"/>
<path d="M491.91 817.59C488.862 821.285 464.882 774.322 491.91 726.368C491.91 726.369 518.067 785.875 491.91 817.59Z" fill="black"/>
<path d="M123.101 817.59C123.101 817.59 140.539 683.654 84.738 626.541C84.738 626.541 35.9117 713.045 89.0974 817.795L123.101 817.59Z" fill="black"/>
<path d="M94.9768 817.59H140.821C140.821 817.59 164.008 708.931 125.681 659.233C125.68 659.233 76.4435 685.607 94.9768 817.59Z" fill="#222222"/>
<path d="M0.16456 694.109L94.9769 706.316L79.5065 754.789C79.5065 754.789 -4.19482 753.397 0.16456 694.109Z" fill="#222222"/>
<path d="M109.151 710.674L172.145 688.005C172.145 688.005 178.902 737.318 132.692 745.793L109.151 710.674Z" fill="black"/>
<path d="M107.205 818.042L93.2229 708.068L68.2781 702.878L96.732 704.563L111.097 817.547L107.205 818.042Z" fill="#FF0E0E"/>
<path d="M101.514 817.969L97.606 817.62L107.308 709.253L132.211 702.376L110.994 712.096L101.514 817.969Z" fill="#FF0E0E"/>
<path d="M130.076 817.795C130.076 817.795 98.6885 771.635 31.5525 760.337C31.5525 760.336 49.8622 817.999 130.076 817.795Z" fill="#FF0E0E"/>
<path d="M849.137 817.59H803.293C803.293 817.59 780.106 708.931 818.433 659.233C818.434 659.233 867.67 685.607 849.137 817.59Z" fill="#FF0E0E"/>
<path d="M130.076 817.795C130.076 817.795 125.717 782.098 154.489 760.337C154.489 760.336 161.464 812.441 130.076 817.795Z" fill="#B40202"/>
<path d="M943.949 694.109L849.137 706.315L864.607 754.789C864.607 754.789 948.309 753.397 943.949 694.109Z" fill="black"/>
<path d="M836.91 818.042L833.017 817.547L847.382 704.563L875.836 702.878L850.892 708.068L836.91 818.042Z" fill="black"/>
<path d="M834.963 710.674L771.969 688.005C771.969 688.005 765.212 737.318 811.421 745.793L834.963 710.674Z" fill="#222222"/>
<path d="M842.6 817.969L833.122 712.096L816.316 703.964L836.806 709.253L836.918 710.5L846.508 817.62L842.6 817.969Z" fill="#222222"/>
<path d="M814.038 817.795C814.038 817.795 845.426 771.635 912.562 760.337C912.561 760.336 894.251 817.999 814.038 817.795Z" fill="#222222"/>
<path d="M814.038 817.795C814.038 817.795 818.398 782.098 789.626 760.337C789.625 760.336 782.649 812.441 814.038 817.795Z" fill="black"/>
<path d="M339.385 408.564C339.385 408.564 339.875 403.66 339.385 399.41C338.895 395.16 339.385 392.217 341.02 389.929C342.654 387.641 351.646 381.264 351.646 381.264C351.646 381.264 353.444 384.207 351.646 387.15C349.848 390.093 347.722 392.871 347.722 392.871C347.722 392.871 350.501 398.266 350.174 400.719C349.847 403.172 354.425 401.7 354.425 401.7L372.734 374.399C372.734 374.399 374.042 374.726 373.551 377.504C373.061 380.283 369.792 392.217 368.647 394.016C367.503 395.814 356.059 419.519 353.443 420.5C350.827 421.48 348.538 422.788 348.538 422.788L339.385 408.564Z" fill="#FEB1B0"/>
<path d="M352.04 406.593L379.273 365.078L377.966 363.771L368.484 360.011L347.722 392.871L350.41 405.777L352.04 406.593Z" fill="#B40202"/>
<path d="M350.41 405.777L377.966 363.771L367.176 358.703L346.414 391.563L350.41 405.777Z" fill="#E20016"/>
<path d="M351.936 402.008L375.921 365.444L366.529 361.032L348.457 389.635L351.936 402.008Z" fill="white"/>
<path d="M339.592 404.638C339.592 404.638 338.458 404.079 336.714 405.777C334.971 407.475 334.971 411.616 333.88 411.834C332.791 412.053 330.829 413.796 330.829 413.796C330.829 413.796 338.458 431.234 347.722 432.978C347.722 432.978 346.687 429.054 348.457 428.619C350.228 428.183 354.56 425.362 351.958 421.105C349.356 416.848 339.592 404.638 339.592 404.638Z" fill="#B40202"/>
<path d="M330.829 413.796C330.829 413.796 326.47 412.053 321.892 414.886C317.314 417.719 308.814 418.764 308.814 418.764L304.236 417.72L324.508 457.391C324.508 457.391 346.523 439.953 347.722 437.555C348.921 435.156 347.722 432.977 347.722 432.977L330.829 413.796Z" fill="#FF0E0E"/>
<path d="M304.223 344.481C304.223 344.481 295.513 341.865 293.342 348.078L289.915 346.796L267.838 338.491L275.686 314.296L289.196 315.878L294.755 326.472L304.223 344.481Z" fill="#FEB1B0"/>
<path d="M304.223 344.481C304.223 344.481 295.513 341.865 293.342 348.078L289.915 346.796C291.877 342.676 288.149 339.315 285.272 335.404C282.33 331.403 284.265 327.4 284.265 327.4L294.754 326.472L304.223 344.481Z" fill="#FF9896"/>
<path d="M333.445 297.071C333.445 297.071 330.393 312.765 325.27 321.048C320.148 329.331 320.148 329.331 320.148 329.331L321.967 333.261C322.405 334.207 321.762 335.298 320.723 335.374L313.936 335.871C313.936 335.871 307.287 346.333 305.871 346.224C304.454 346.116 289.087 335.325 289.087 335.325L278.952 318.651L274.811 300.777L302.166 290.423L323.201 285.518C323.2 285.519 335.294 289.332 333.445 297.071Z" fill="#FEB1B0"/>
<path d="M292.248 314.291C292.248 314.291 295.818 308.624 304.223 310.259C312.628 311.894 319.167 314.618 330.284 304.373C330.284 304.373 331.43 304.867 330.766 307.006L334.316 306.444L337.15 285.954L305.327 295.981C305.327 295.981 292.248 308.951 292.248 314.291Z" fill="#FF9896"/>
<path d="M291.812 309.932C291.812 309.932 290.874 300.734 283.529 303.719C276.184 306.705 278.407 315.926 282.221 317.451C286.035 318.978 287.126 322.246 287.016 323.337H281.799L272.938 322.751L266.309 295.763C266.309 295.763 264.347 295.545 263.475 296.853C263.475 296.853 261.404 288.57 271.104 285.518C271.104 285.518 269.687 270.478 275.899 267.754C275.899 267.754 273.969 272.222 277.55 277.562C277.55 277.562 285.599 266.228 297.26 265.355C308.922 264.483 314.807 272.549 331.591 272.985C348.374 273.42 354.151 271.241 354.151 271.241C354.151 271.241 344.67 297.834 336.604 299.686C336.604 299.686 336.822 307.206 341.399 308.623C341.399 308.623 337.362 317.621 328.046 315.466C328.046 315.466 332.353 302.738 333.443 297.071C333.443 297.071 323.231 311.24 308.719 308.079C294.208 304.919 292.246 314.291 292.246 314.291L291.812 309.932Z" fill="black"/>
<path d="M263.911 348.731C263.911 348.731 262.821 349.385 262.494 348.077C262.167 346.769 263.911 334.126 263.911 334.126C263.911 334.126 276.881 334.672 280.695 336.742C284.509 338.813 297.043 347.314 297.261 348.894C297.479 350.473 295.299 356.468 294.645 356.577C293.992 356.687 277.317 351.019 263.911 348.731Z" fill="#FF0E0E"/>
<path d="M263.911 348.731C263.911 348.731 254.32 355.379 250.506 360.392C246.692 365.405 224.676 446.491 224.676 446.491L241.678 498.804C241.678 498.804 272.194 477.879 283.092 479.622C293.991 481.366 308.72 484.854 308.72 484.854C308.72 484.854 328.43 468.724 327.994 457.39C327.558 446.055 302.364 358.774 294.644 356.577C294.646 356.578 276.717 346.442 263.911 348.731Z" fill="white"/>
<path d="M279.865 368.457C279.865 368.457 288.221 374.888 283.641 398.592C279.061 422.297 279.394 437.01 283.641 437.337C287.888 437.664 284.593 443.748 279.865 443.812C275.137 443.876 291.544 464.802 291.544 464.802L318.623 446.165C318.623 446.165 320.263 449.435 320.587 452.377C320.912 455.32 323.206 459.571 320.587 461.532C317.969 463.493 306.199 463.167 304.237 466.927C302.275 470.686 297.421 477.553 305.897 481.15H301.753L259.771 478.861L244.077 408.565L279.865 368.457Z" fill="#CBCBCB"/>
<path d="M291.649 447.146C291.649 447.146 294.755 443.386 295.409 441.424C296.062 439.462 294.592 432.27 297.86 429.981C301.13 427.692 301.13 427.692 301.13 427.692L302.438 435.328C302.438 435.328 306.525 429.817 305.871 427.692C305.217 425.567 308.323 423.605 310.122 424.259C311.919 424.913 317.478 426.548 317.805 427.692C318.132 428.836 316.334 432.27 317.805 433.905C319.276 435.54 320.421 436.683 319.276 438.645C318.132 440.607 319.228 441.915 319.742 443.059C320.257 444.203 321.353 446.369 319.742 448.065C318.132 449.762 318.295 450.743 318.786 452.377C319.276 454.012 319.93 456.519 317.805 457.391C315.68 458.263 295.735 463.494 295.735 463.494C295.735 463.494 289.523 456.954 291.649 447.146Z" fill="#FEB1B0"/>
<path d="M301.13 427.691C301.13 427.691 282.493 370.881 274.647 361.032C266.799 351.182 251.765 358.424 247.594 367.555L237.837 399.496L230.835 399.573C230.835 399.573 236.17 351.579 263.531 352.327C281.44 352.817 285.6 368.512 288.543 376.523C291.486 384.533 305.872 427.692 305.872 427.692L308.324 432.978L301.948 438.972L301.13 427.691Z" fill="black"/>
<path d="M283.311 450.088C283.311 450.088 282.167 448.126 286.089 446.655C290.013 445.184 292.792 443.812 292.792 443.812C292.792 443.812 300.966 459.734 299.821 465.783C299.821 465.783 291.647 472.485 288.051 471.668C284.455 470.85 283.311 450.088 283.311 450.088Z" fill="#B40202"/>
<path d="M252.25 506.652L240.806 538.851C240.806 538.851 217.919 549.156 209.575 548.005C201.244 546.867 184.569 517.271 184.569 517.271C184.569 517.271 196.993 452.377 198.628 446.334C200.263 440.278 206.436 437.323 206.436 437.323L217.422 422.453L237.837 399.501L232.959 476.821L241.656 490.279L252.25 506.652Z" fill="black"/>
<path d="M202.006 581.417L216.175 539.784H209.162L198.796 571.471L197.211 577.493L202.006 581.417Z" fill="#222222"/>
<path d="M184.569 517.272C184.569 517.272 181.082 576.185 190.018 580.109C198.955 584.033 202.007 581.417 202.007 581.417C202.007 581.417 194.159 569.864 198.301 528.231L184.569 517.272Z" fill="black"/>
<path d="M252.25 506.652L240.806 538.851C240.806 538.851 217.919 549.156 209.575 548.005C201.244 546.867 184.569 517.271 184.569 517.271L241.657 490.278L252.25 506.652Z" fill="#222222"/>
<path d="M237.836 399.496L230.834 399.573C230.834 399.573 213.995 417.719 211.38 421.316C208.764 424.912 200.754 461.532 200.754 461.532L220.515 452.253L237.046 419.027L237.836 399.496Z" fill="#222222"/>
<path d="M212.034 771.816L224.295 751.871L209.091 742.226L199.282 763.478L212.034 771.816Z" fill="#FEB1B0"/>
<path d="M215.63 773.614C215.63 773.614 211.216 788.654 212.851 791.107C214.486 793.558 223.314 803.695 223.314 803.695C223.314 803.695 239.335 799.608 239.335 817.591H200.263L172.145 788.982L196.994 761.844C196.993 761.844 210.235 760.209 215.63 773.614Z" fill="#B40202"/>
<path d="M205.74 743.371L225.112 756.286C225.112 756.286 231.652 751.054 230.834 747.458C230.017 743.862 215.799 733.727 213.178 733.726C207.456 733.722 206.965 740.101 205.74 743.371Z" fill="#222222"/>
<path d="M213.178 733.725C213.178 733.725 207.62 726.532 209.581 718.358C211.543 710.184 232.959 659.832 233.94 652.803C234.921 645.773 253.067 560.11 253.067 560.11L285.762 604.903C285.762 604.903 273.066 664.028 269.578 674.273C266.089 684.518 242.004 737.812 239.334 742.226C236.663 746.64 230.832 747.457 230.832 747.457L213.178 733.725Z" fill="black"/>
<path d="M209.908 449.434L213.668 447.963L211.789 465.619L208.437 466.927L209.908 449.434Z" fill="#B40202"/>
<path d="M299.876 778.246L302.928 758.084H320.584L316.77 780.97L299.876 778.246Z" fill="#FEB1B0"/>
<path d="M319.494 776.067C319.494 776.067 319.713 790.671 326.034 795.248C332.355 799.826 339.33 802.442 339.33 802.442C339.33 802.442 355.896 802.878 355.896 817.591H288.761C288.761 817.591 292.902 791.652 295.301 786.093C297.699 780.535 298.025 777.483 298.025 777.483C298.025 777.483 307.614 772.361 319.494 776.067Z" fill="#B40202"/>
<path d="M299.877 761.93L323.527 760.263C323.527 760.263 326.905 749.801 324.072 748.383C321.238 746.967 302.275 747.621 299.877 750.127C297.479 752.634 299.877 761.93 299.877 761.93Z" fill="#222222"/>
<path d="M299.877 750.128C299.877 750.128 294.755 747.294 294.755 743.479C294.755 739.664 303.582 675.363 300.64 663.919C297.697 652.476 276.686 594.843 264.021 581.526C251.355 568.207 234.922 551.773 237.863 533.136C240.806 514.499 243.422 512.047 243.422 512.047L289.85 488.67L309.304 496.844C309.304 496.844 309.845 521.367 305.895 529.54C305.895 529.54 343.143 636.129 342.163 653.785C341.182 671.441 329.247 741.9 328.103 744.353C326.959 746.804 324.071 748.385 324.071 748.385L299.877 750.128Z" fill="black"/>
<path d="M241.679 498.805C241.679 498.805 238.845 501.257 240.479 506.489C242.114 511.72 243.422 512.047 243.422 512.047C243.422 512.047 292.359 492.757 299.933 494.228C307.507 495.699 309.305 496.843 309.305 496.843C309.305 496.843 313.86 488.56 308.722 484.855L298.678 479.515C298.678 479.515 270.233 474.937 261.405 477.717C252.577 480.496 241.679 498.805 241.679 498.805Z" fill="#B40202"/>
<path d="M286.423 473.459C285.115 477.069 241.211 497.366 230.84 498.805C220.456 500.244 217.592 487.846 215.8 476.245C213.995 464.645 245.357 374.404 245.357 374.404C245.357 374.404 248.98 355.27 264.19 356.343C279.4 357.415 282.382 376.275 282.382 376.275C282.382 376.275 281.192 383.729 279.714 393.106C279.714 393.133 279.701 393.172 279.701 393.198C277.674 406.066 275.136 422.519 274.482 428.182C273.344 437.991 261.574 445.341 261.574 445.341C261.574 445.341 276.117 447.473 279.23 447.8C282.33 448.127 284.291 450.913 284.291 450.913C286.62 453.031 287.731 469.875 286.423 473.459Z" fill="#E20016"/>
<path d="M195.686 582.271C195.686 582.271 203.096 615.202 193.942 630.896C184.788 646.59 180.427 662.284 180.427 662.284H190.454C190.454 662.284 195.903 640.923 202.007 632.422C208.11 623.92 208.328 592.315 202.007 581.416L197.212 580.108L195.686 582.271Z" fill="black"/>
<path d="M282.085 307.289C282.085 307.289 290.341 305.491 289.114 310.967C287.888 316.443 286.029 315.502 286.029 315.502C286.029 315.502 288.177 315.106 287.643 310.477C287.398 308.351 282.085 307.289 282.085 307.289Z" fill="#FF9896"/>
<path d="M279.701 393.198C277.675 406.066 275.137 422.519 274.483 428.182C273.345 437.991 261.575 445.341 261.575 445.341C261.575 445.341 240.375 447.041 236.229 447.957C236.229 447.957 259.77 440.606 260.201 437.991C260.646 435.376 270.01 428.614 266.962 425.567C263.915 422.52 252.249 422.794 252.249 422.794C252.249 422.794 272.848 420.767 273.279 408.133C273.725 395.551 278.668 399.318 279.701 393.198Z" fill="#B40202"/>
<path d="M655.246 581.826C654.252 589.674 651.807 602.059 646.458 597.324C638.82 590.576 639.918 585.998 639.918 585.998C639.918 585.998 639.918 585.985 639.931 585.985C639.984 585.906 640.036 585.828 640.101 585.749C641.16 584.415 646.641 578.072 653.86 581.198C654.279 581.382 654.736 581.591 655.246 581.826Z" fill="#272727"/>
<path d="M664.872 784.567C664.872 784.567 635.773 673.074 636.1 659.995C636.427 646.917 652.775 568.12 652.775 568.12L691.357 589.357C691.357 589.357 667.488 655.745 668.796 662.611C670.104 669.478 679.586 677.651 680.239 718.848C680.893 760.046 681.22 784.567 681.22 784.567H664.872Z" fill="#FEB1B0"/>
<path d="M736.803 770.508C736.803 770.508 691.356 667.516 689.721 658.688C688.086 649.86 679.913 585.449 679.913 585.449L719.148 594.276C719.148 594.276 717.186 648.224 722.091 655.417C726.995 662.61 738.439 675.689 741.708 694.979C744.978 714.27 752.171 765.275 752.171 765.275L736.803 770.508Z" fill="#FEB1B0"/>
<path d="M677.467 489.65C677.467 489.65 644.492 534.77 641.004 537.604C641.004 537.604 642.336 543.065 647.555 544.803L661.057 535.861L677.467 489.65Z" fill="#272727"/>
<path d="M768.95 584.469C765.026 596.671 758.487 597.978 758.487 597.978C758.487 597.978 708.79 600.162 699.203 599.94C694.155 599.835 684.071 595.611 674.498 591.125C670.327 589.176 666.259 587.175 662.741 585.449C659.759 583.984 657.17 582.715 655.247 581.826C654.737 581.59 654.279 581.381 653.861 581.198C646.642 578.072 641.162 584.415 640.103 585.749C640.037 585.828 639.985 585.906 639.933 585.985L643.399 577.052L638.638 573.456L634.466 570.303L639.475 563.319C637.605 562.391 636.729 561.305 636.323 560.259C635.682 558.637 636.166 557.055 635.773 556.126C654.737 544.578 677.468 489.648 677.468 489.648H732.331L762.855 556.348C763.065 558.192 762.751 559.971 762.228 561.553C761.09 565.006 758.932 567.465 758.932 567.465L768.95 584.469Z" fill="black"/>
<path d="M711.405 381.322C710.751 388.516 683.404 396.245 683.404 396.245C683.404 396.245 680.605 390.202 678.382 385.664C677.675 384.186 677.021 382.878 676.538 381.976C674.576 378.262 666.075 380.878 666.075 380.878L685.483 358.292L688.74 354.512L711.405 381.322Z" fill="#FEB1B0"/>
<path d="M687.367 361.574C687.367 361.574 679.899 376.261 678.382 385.664C677.675 384.186 677.021 382.878 676.538 381.976C674.576 378.262 666.075 380.878 666.075 380.878L685.483 358.292L687.367 361.574Z" fill="#FF9896"/>
<path d="M643.452 341.105C643.452 341.105 648.17 369.563 662.322 383.302C665.852 386.413 681.438 371.291 683.29 368.24L692.771 352.764L687.104 331.838L657.024 323.337C657.025 323.337 641.486 332.382 643.452 341.105Z" fill="#FEB1B0"/>
<path d="M684.245 377.177L685.062 385.665C685.062 385.665 663.646 342.292 654.736 337.07C647.063 332.572 645.499 339.822 645.499 339.822C645.499 339.822 643.682 338.752 643.283 339.41L642.23 332.792L660.213 330.422C660.213 330.422 669.859 340.721 673.782 350.856C677.705 360.992 684.245 377.177 684.245 377.177Z" fill="#FF9896"/>
<path d="M676.152 344.481C676.152 344.481 678.768 338.268 682.201 339.086C685.633 339.903 690.211 354.072 683.998 354.507L683.877 360.165L698.536 366.095L697.076 360.83C697.076 360.83 714.677 341.866 703.778 317.017C692.879 292.168 656.914 302.196 650.157 306.773C643.4 311.35 639.476 325.955 639.476 325.955C639.476 325.955 627.052 324.647 631.193 339.905C635.334 355.163 643.279 366.096 643.279 366.096C643.279 366.096 636.425 335.109 644.708 338.161C644.708 338.161 651.311 321.518 672.609 357.125C686.559 380.448 686.559 387.642 686.559 387.642C686.559 387.642 688.739 369.986 673.263 339.687L676.152 344.481Z" fill="black"/>
<path d="M697.881 308.524L707.341 306.989L712.5 329.876L707.274 331.379C707.273 331.378 699.829 320.74 697.881 308.524Z" fill="#FF0E0E"/>
<path d="M712.499 308.515C712.499 308.515 718.384 302.63 720.346 299.578V305.464C720.346 305.464 748.464 292.386 763.505 313.747C778.545 335.108 756.312 406.604 756.312 406.604C756.312 406.604 736.912 394.397 732.553 367.586C728.194 340.776 727.306 325.53 715.333 325.081C715.333 325.081 709.447 315.926 712.499 308.515Z" fill="black"/>
<path d="M708.033 310.064L712.499 308.514L715.333 325.081L711.684 326.256C711.684 326.256 705.53 315.538 708.033 310.064Z" fill="#B40202"/>
<path d="M620.897 421.316C620.897 421.316 627.599 421.643 629.071 423.277C630.542 424.912 631.85 438.481 631.85 438.481C631.85 438.481 654.625 462.84 655.825 462.677C657.025 462.514 662.657 454.896 662.657 454.896L665.036 481.967C665.036 481.967 651.461 488.343 648.277 485.073C645.092 481.803 621.06 440.11 621.06 440.11L627.43 433.676L624.91 427.909C624.909 427.908 618.935 424.094 620.897 421.316Z" fill="#FF9896"/>
<path d="M732.335 478.969C732.335 478.969 736.04 485.291 732.335 489.65C732.335 489.65 714.368 500.331 677.468 489.65L675.008 480.713L732.335 478.969Z" fill="#B40202"/>
<path d="M679.018 486.006L681.874 514.172L675.008 516.134L673.591 497.279C673.591 497.279 674.961 485.958 679.018 486.006Z" fill="#272727"/>
<path d="M732.33 478.965C728.472 484.615 719.278 486.329 709.522 486.329C709.509 486.329 709.509 486.329 709.509 486.329C694.429 486.329 678.055 482.235 678.055 482.235L667.75 467.103L664.113 461.754C664.113 461.754 656.044 450.415 655.821 446.06C655.612 441.692 678.499 398.101 678.499 398.101L683.404 396.244L711.405 381.321C717.735 378.915 726.889 391.13 729.505 406.602C732.121 422.074 732.33 478.965 732.33 478.965Z" fill="#FF0E0E"/>
<path d="M709.509 486.329C694.429 486.329 678.055 482.235 678.055 482.235L667.75 467.103C675.231 448.375 693.54 405.805 698.34 408.773C698.34 408.773 706.409 419.458 700.524 437.768C694.625 456.078 685.248 465.455 692.769 468.947C700.289 472.426 695.058 479.083 701.715 479.907C707.626 480.626 705.337 484.968 709.509 486.329Z" fill="#B40202"/>
<path d="M700.354 421.146C699.7 426.717 674.197 514.826 658.817 516.787C643.463 518.749 613.043 450.899 610.597 447.799C608.138 444.699 599.916 439.612 599.589 438.801C599.262 437.991 595.884 414.776 596.041 411.18C596.211 407.584 597.689 408.564 597.689 405.622C597.689 402.941 600.122 401.07 600.553 400.757C600.592 400.73 600.619 400.717 600.619 400.717L612.886 430.143L614.351 425.892C612.232 415.914 615.502 416.411 615.502 416.411C615.502 416.411 617.307 418.046 619.582 422.624C621.884 427.201 621.06 440.109 621.06 440.109C621.06 440.109 653.586 480.496 654.737 480.652C655.927 480.652 669.934 428.012 672.72 419.028C675.506 410.03 683.666 399.907 691.854 402.523C700.014 405.138 701.007 415.6 700.354 421.146Z" fill="#FEB1B0"/>
<path d="M621.059 440.109C621.059 440.109 621.627 427.321 619.581 422.624C617.054 416.82 615.501 416.411 615.501 416.411C615.501 416.411 612.231 415.914 614.35 425.892L612.885 430.143L600.618 400.717C600.618 400.717 600.591 400.73 600.552 400.757L597.034 392.374L598.342 391.066L607.811 388.79L627.429 433.675L621.059 440.109Z" fill="black"/>
<path d="M622.368 438.801C622.368 438.801 623.192 425.893 620.89 421.316C618.614 416.738 615.501 416.411 615.501 416.411C615.501 416.411 611.979 416.557 614.098 426.535L613.724 427.71L601.926 399.409C601.926 399.409 601.9 399.422 601.86 399.449L598.342 391.066L609.118 387.482L628.736 432.367L622.368 438.801Z" fill="#272727"/>
<path d="M621.073 435.04C621.073 435.04 620.851 425.194 618.886 421.288C616.945 417.381 615.501 416.411 615.501 416.411C615.501 416.411 612.435 416.942 615.174 423.89L614.005 426.825L603.628 401.422C603.628 401.422 603.605 401.433 603.572 401.455L600.57 394.301L609.766 391.243L626.508 429.548L621.073 435.04Z" fill="white"/>
<path d="M683.291 781.734C683.815 782.182 692.664 809.416 692.01 817.591H627.926C627.926 817.591 625.31 807.782 643.293 804.513C651.14 802.878 662.257 781.735 662.257 781.735C662.257 781.735 674.245 773.996 683.291 781.734Z" fill="#222222"/>
<path d="M719.147 817.59H745.957L773.748 797.942L753.804 760.373C753.804 760.373 737.456 761.354 733.859 769.527L741.707 785.548L734.911 796.768C734.912 796.769 719.147 797.972 719.147 817.59Z" fill="#222222"/>
<path d="M671.494 423.207C671.494 423.207 676.97 402.533 688.74 402.116C700.51 401.698 700.518 419.354 700.518 419.354L718.166 507.96L724.379 505.017C724.379 505.017 710.21 397.447 692.772 397.447C675.335 397.447 674.633 411.998 671.494 423.207Z" fill="#272727"/>
<path d="M678.434 563.32L674.498 591.125C670.326 589.176 666.258 587.175 662.74 585.449L664.101 551.105L678.434 563.32Z" fill="#272727"/>
<path d="M665.029 534.142L643.398 577.052L638.637 573.456C643.214 570.814 664.362 535.255 665.029 534.142Z" fill="#272727"/>
<path d="M660.556 535.006L639.474 563.32C637.604 562.392 636.727 561.306 636.321 560.26C639.552 560.417 659.327 536.497 660.556 535.006Z" fill="#272727"/>
<path d="M763.509 605.825L753.256 608.232L747.37 613.672L675.439 626.541L659.235 518.75C659.863 518.75 732.984 502.075 732.984 502.075L763.509 605.825Z" fill="#E20016"/>
<path d="M763.509 605.825L753.256 608.232L747.37 613.672L732.984 502.074L763.509 605.825Z" fill="#B40202"/>
<path d="M673.591 515.565L675.008 524.962L684.816 522.564L683.33 513.364L673.591 515.565Z" fill="#272727"/>
<path d="M716.041 505.934L717.295 514.717L728.629 512.319L726.903 503.461L716.041 505.934Z" fill="#272727"/>
<path d="M683.509 343.417C683.509 343.417 681.466 340.883 679.423 343.417C677.379 345.952 681.384 347.913 682.038 348.976C682.692 350.039 682.284 351.265 682.284 351.265C682.284 351.265 683.837 349.794 682.448 348.077C681.057 346.36 679.013 342.355 683.509 343.417Z" fill="#FF9896"/>
<path d="M762.227 561.555C761.089 565.008 758.931 567.467 758.931 567.467L738.162 514.839C739.235 517.363 756.447 557.723 762.227 561.555Z" fill="#272727"/>
<path d="M501.928 102.24C501.928 102.24 493.4 94.0289 485.789 97.2987C478.178 100.568 457.907 17.5211 406.247 9.67365C354.588 1.82624 330.392 85.5285 330.392 85.5285C330.392 85.5285 341.509 86.8364 346.74 77.6811L346.086 85.5285C346.086 85.5285 353.28 87.4903 361.126 79.6429L358.51 86.8364C358.51 86.8364 365.05 90.1061 376.82 83.5666L373.55 90.1289C373.55 90.1289 380.744 93.3759 387.937 86.1824L384.013 93.2532C384.013 93.2532 390.552 97.0182 399.38 90.1289L395.456 96.3178C395.456 96.3178 402.323 100.895 409.842 97.6257L408.207 102.24C408.207 102.24 415.401 106.738 421.285 103.653L418.997 107.762C418.997 107.762 425.536 111.97 433.383 103.653L429.132 111.373C429.132 111.373 433.383 115.936 440.902 109.07L437.305 114.628C437.305 114.628 443.845 119.533 450.057 112.994L444.825 124.11C444.825 124.11 450.384 126.726 456.922 117.897L454.306 129.963C454.306 129.963 459.865 134.572 465.75 123.782L463.788 131.671C463.788 131.671 469.019 134.898 472.289 125.09C475.559 115.281 488.086 124.683 488.086 124.683C488.086 124.683 503.773 113.394 501.928 102.24Z" fill="#E20016"/>
<path d="M558.107 93.0857C558.107 93.0857 566.636 84.8745 574.247 88.1443C581.857 91.414 602.129 8.36663 653.788 0.519219C705.448 -7.32819 729.643 76.374 729.643 76.374C729.643 76.374 718.527 77.6819 713.295 68.5266L713.949 76.374C713.949 76.374 706.756 78.3359 698.909 70.4885L701.525 77.6819C701.525 77.6819 694.986 80.9517 683.215 74.4122L686.485 80.9745C686.485 80.9745 679.292 84.2214 672.099 77.028L676.023 84.0987C676.023 84.0987 669.483 87.8638 660.656 80.9745L664.579 87.1633C664.579 87.1633 657.713 91.741 650.193 88.4712L651.828 93.0857C651.828 93.0857 644.635 97.5836 638.75 94.4988L641.039 98.6075C641.039 98.6075 634.499 102.815 626.653 94.4988L630.904 102.218C630.904 102.218 626.653 106.782 619.133 99.9154L622.73 105.474C622.73 105.474 616.191 110.379 609.979 103.839L615.211 114.955C615.211 114.955 609.652 117.571 603.113 108.743L605.729 120.809C605.729 120.809 600.171 125.418 594.286 114.628L596.248 122.517C596.248 122.517 591.016 125.744 587.746 115.935C584.477 106.127 571.95 115.529 571.95 115.529C571.95 115.529 556.263 104.239 558.107 93.0857Z" fill="#E20016"/>
<path d="M570.708 151.248C570.708 151.248 515.779 172.5 513.163 172.173C512.953 172.147 512.653 171.742 512.274 171.022C510.024 166.707 505.029 150.947 500.831 136.731C496.999 123.693 493.82 111.961 494.03 111.53C494.527 110.536 503.838 100.073 503.838 100.073C503.838 100.073 507.762 94.6847 532.362 92.0689C556.963 89.4531 560.572 93.3768 560.572 93.3768L570.708 151.248Z" fill="#FEB1B0"/>
<path d="M507.877 101.35C507.877 101.35 505.969 109.397 509.893 113.321C513.817 117.244 523.342 113.448 523.952 119.86C524.606 126.727 542.156 125.011 540.627 117.571C539.646 112.798 557.969 110.705 551.75 98.1175L507.877 101.35Z" fill="#FF9896"/>
<path d="M505.425 85.965C505.425 85.965 505.316 109.397 517.904 112.994C517.904 112.994 523.298 116.59 530.001 116.099C536.703 115.608 539.973 111.686 539.973 111.686C539.973 111.686 550.108 107.926 551.416 102.367C552.724 96.8087 549.782 76.0471 549.782 76.0471C549.782 76.0471 546.676 64.1129 526.567 64.1129C506.459 64.1129 505.301 82.9854 505.425 85.965Z" fill="#FEB1B0"/>
<path d="M507.877 101.35C507.877 101.35 509.403 98.6075 508.585 96.6456C507.768 94.6838 510.13 92.8859 508.826 91.1695C507.523 89.4531 506.052 87.8997 507.033 87.0003C508.014 86.1009 507.768 84.2214 508.749 83.976C509.73 83.7305 509.566 80.9517 510.547 80.2977C511.528 79.6438 512.713 77.4514 512.836 74.3307C512.879 73.2454 514.389 74.4937 514.961 73.2682C515.532 72.0427 518.231 74.9846 520.11 73.6767C521.99 72.3688 524.769 69.1815 526.977 71.7149C529.184 74.2491 532.208 74.9846 534.66 73.1043C537.112 71.224 536.867 70.897 540.219 73.7582C543.57 76.6195 545.45 73.6767 545.94 75.3931C546.43 77.1095 542.671 80.9517 544.959 83.1581C547.248 85.3654 549.946 86.0194 548.802 90.6786C547.658 95.3377 549.632 98.0351 551.75 98.1166L556.404 69.9161L532.862 62.5595L503.191 70.6673C503.191 70.6673 504.172 96.1539 504.499 96.5632C504.826 96.9726 507.877 101.35 507.877 101.35Z" fill="#FF9896"/>
<path d="M512.019 73.4313C512.019 73.4313 512.019 78.8259 509.894 79.1529C507.769 79.4799 509.731 82.2587 508.259 83.2396C506.788 84.2206 507.201 86.8381 505.442 86.8372C505.442 86.8372 508.992 93.0322 507.769 94.6829C506.546 96.3336 508.967 100.006 507.878 101.35C507.878 101.35 507.115 104.328 504.662 103.511C502.21 102.694 500.739 101.876 498.941 98.4436C497.143 95.0108 493.219 97.4626 491.747 94.1929C490.275 90.9231 490.276 86.5094 491.747 85.6915C493.218 84.8745 486.352 83.5666 485.862 79.152C485.372 74.7383 487.496 70.8146 488.313 68.3627C489.13 65.9108 485.044 65.5838 487.006 59.8613C488.967 54.1397 490.438 58.2264 492.891 54.9567C495.344 51.6869 490.275 48.0902 493.872 43.6765C497.469 39.2627 500.248 43.5134 502.373 41.8786C504.499 40.2437 504.335 37.3009 507.441 37.3009C510.547 37.3009 510.547 41.2246 513.327 39.5897C516.106 37.9548 518.067 32.8872 522.481 33.2141C526.895 33.5411 526.895 36.32 531.799 36.1569C536.704 35.9939 536.704 31.4162 540.791 34.522C544.878 37.6279 542.099 37.6279 547.33 39.5897C552.562 41.5516 554.197 38.6088 555.995 42.2055C557.793 45.8023 554.851 48.4181 557.466 51.1969C560.081 53.9758 561.062 52.8318 562.206 55.9376C563.35 59.0435 560.245 59.3704 562.206 62.3132C564.168 65.256 563.023 69.1797 565.312 71.4676C567.601 73.7565 565.639 73.5925 565.312 77.3532C564.985 81.113 566.783 81.2769 564.004 83.8927C561.225 86.5085 559.754 85.8546 558.119 88.7973C556.484 91.7401 554.044 98.4427 551.749 98.1157C549.454 97.7887 550.435 90.4322 549.781 86.1815C549.127 81.9309 546.675 82.5848 547.166 79.642C547.656 76.6993 548.963 74.9013 546.349 73.7565C543.733 72.6125 539.973 71.4676 539.809 69.8328C539.645 68.1979 538.501 65.0552 535.885 68.4249C533.27 71.7946 530.273 73.1025 528.583 70.8137C526.894 68.5249 525.095 66.236 522.643 69.1788C520.191 72.1216 518.066 72.9386 516.268 71.3037C514.47 69.6688 514.144 73.5952 512.019 73.4313Z" fill="black"/>
<path d="M584.767 238.114C584.767 242.9 566.888 234.19 561.658 230.266C556.427 226.343 558.611 224.159 559.486 219.359C560.35 214.572 555.563 190.587 554.255 185.8C552.947 181 542.039 172.172 542.039 172.172C542.039 172.172 534.637 190.155 532.361 194.078C530.099 198.002 549.023 226.774 551.756 230.266C554.49 233.745 546.8 256.424 546.8 256.424C546.8 256.424 538.992 259.039 535.945 258.163C532.885 257.286 535.945 232.882 535.945 232.882C535.945 232.882 513.267 214.572 508.481 207.589C503.681 200.618 512.836 164.43 512.836 164.43L570.708 151.246C570.708 151.246 571.296 153.155 572.199 155.981C572.683 157.524 573.271 159.355 573.9 161.277C575.822 167.214 578.177 174.12 579.536 177.075C582.152 182.738 576.045 209.34 576.045 214.571C576.045 219.801 584.767 233.314 584.767 238.114Z" fill="#FEB1B0"/>
<path d="M517.636 166.039L512.274 171.022C510.024 166.706 505.029 150.946 500.831 136.73C501.942 132.31 503.838 128.687 507.095 128.687C507.095 128.687 512.614 132.389 509.567 141.112C506.519 149.835 511.358 164.391 517.636 166.039Z" fill="#FF9896"/>
<path d="M526.098 128.687L519.594 244.431H516.76C516.76 244.431 512.836 170.102 523.735 128.687L526.098 128.687Z" fill="#E20016"/>
<path d="M530.649 169.074C530.649 169.074 530.401 169.911 529.72 170.525C529.08 171.114 528.033 171.48 526.411 170.696C523.09 169.1 520.107 170.133 520.107 170.133L515.779 176.096H525.417C525.417 176.096 530.492 177.731 525.914 181.001C524.933 181.001 515.949 182.963 515.949 182.963C515.949 182.963 527.065 182.806 527.222 184.925C527.379 186.991 524.724 188.926 516.942 188.246C518.76 188.469 524.815 189.345 525.103 191.306C525.417 193.582 519.048 193.268 516.917 192.771C516.917 192.771 525.103 194.89 524.764 197.192C524.45 199.468 518.068 199.808 515.295 198.657C512.509 197.506 503.028 183.944 501.877 182.466C500.739 181.001 479.983 155.172 480.794 149.116C481.605 143.074 491.256 113.321 494.029 111.529C496.815 109.724 508.585 124.607 507.761 132.768C507.5 135.475 506.65 137.973 505.643 140.118C503.707 144.264 501.157 147.05 500.921 147.312L500.908 147.325L511.646 169.676C511.646 169.676 521.009 163.346 523.141 164.157C525.261 164.98 530.649 169.074 530.649 169.074Z" fill="#FEB1B0"/>
<path d="M557.499 163.894C557.499 163.894 555.84 165.683 554.173 164.187L557.194 162.854L557.499 163.894Z" fill="#FF9896"/>
<path d="M560.062 155.341C560.062 155.341 549.782 160.238 549.02 160.184C548.257 160.13 546.47 158.696 546.873 157.506C547.276 156.316 560.062 155.341 560.062 155.341Z" fill="#FF9896"/>
<path d="M573.899 161.279V161.305C573.899 161.305 571.139 164.758 569.831 165.53C568.523 166.288 559.696 167.675 557.956 166.654L570.707 158.873L572.198 155.982C572.683 157.525 573.271 159.357 573.899 161.279Z" fill="#FF9896"/>
<path d="M529.72 170.525C529.08 171.114 528.033 171.48 526.411 170.696C523.09 169.1 520.107 170.133 520.107 170.133L515.779 176.096L511.528 171.624C511.528 171.624 515.779 176.096 521.088 167.02C521.088 167.02 521.978 169.218 529.72 170.525Z" fill="#FF9896"/>
<path d="M595.073 130.322C595.557 135.881 585.422 146.186 584.611 147.808C583.787 149.456 569.728 163.842 569.728 163.842C569.728 163.842 558.114 167.923 557.147 166.288C556.78 165.7 557.029 164.797 557.5 163.895C556.977 164.182 556.519 164.405 556.153 164.496C553.707 165.15 553.38 162.691 553.38 162.691L560.063 155.341L549.064 159.513C545.573 158.466 547.168 155.341 547.168 155.341L560.246 147.807L561.384 144.708L561.358 144.721C560.94 144.943 554.113 148.474 551.758 148.958C549.312 149.455 549.639 145.989 549.639 145.989L559.592 137.998C559.592 137.998 560.508 136.259 561.528 134.584C562.326 133.277 563.176 132.008 563.686 131.668C564.824 130.897 570.383 133.59 571.691 133.106C572.998 132.609 575.117 129.183 575.117 129.183L565.57 121.911L562.379 103.667V103.654L560.574 93.3741C560.574 93.3741 563.844 92.3932 569.402 95.9899C574.959 99.5884 594.576 124.764 595.073 130.322Z" fill="#FEB1B0"/>
<path d="M519.594 244.431L519.706 242.421L557.709 149.07L526.013 130.203L526.098 128.687L559.336 148.541L519.594 244.431Z" fill="#B40202"/>
<rect x="516.741" y="185.59" width="55.6542" height="2.61668" transform="rotate(-42.7266 516.741 185.59)" fill="black"/>
<path d="M518.064 180.819L511.528 190.155L521.621 188.732L518.064 180.819Z" fill="black"/>
<path d="M417.497 181.437H263.38C250.452 181.437 239.972 191.916 239.972 204.845V219.061C239.972 231.989 250.452 242.469 263.38 242.469H408.323C431.213 261.729 412.569 279.088 412.569 279.088C440.47 266.882 424.7 241.334 424.7 241.334L424.689 241.332C434.096 238.295 440.906 229.477 440.906 219.061V204.845C440.906 191.917 430.425 181.437 417.497 181.437Z" fill="black"/>
<path d="M628.266 211.517H782.383C795.311 211.517 805.791 221.996 805.791 234.925V249.141C805.791 262.069 795.311 272.549 782.383 272.549H637.44C614.55 291.809 633.193 309.168 633.193 309.168C605.293 296.962 621.063 271.414 621.063 271.414L621.073 271.412C611.666 268.375 604.857 259.557 604.857 249.141V234.925C604.857 221.997 615.338 211.517 628.266 211.517Z" fill="black"/>
<path d="M414.274 200.217H261.078C259.994 200.217 259.116 199.339 259.116 198.255C259.116 197.172 259.994 196.293 261.078 196.293H414.275C415.359 196.293 416.237 197.172 416.237 198.255C416.236 199.339 415.358 200.217 414.274 200.217Z" fill="white"/>
<path d="M414.274 214.603H261.078C259.994 214.603 259.116 213.725 259.116 212.641C259.116 211.558 259.994 210.679 261.078 210.679H414.275C415.359 210.679 416.237 211.558 416.237 212.641C416.236 213.725 415.358 214.603 414.274 214.603Z" fill="white"/>
<path d="M414.274 228.989H261.078C259.994 228.989 259.116 228.111 259.116 227.027C259.116 225.944 259.994 225.065 261.078 225.065H414.275C415.359 225.065 416.237 225.944 416.237 227.027C416.236 228.111 415.358 228.989 414.274 228.989Z" fill="white"/>
<path d="M781.093 230.699H627.896C626.813 230.699 625.934 229.82 625.934 228.737C625.934 227.653 626.813 226.775 627.896 226.775H781.093C782.177 226.775 783.055 227.653 783.055 228.737C783.055 229.82 782.177 230.699 781.093 230.699Z" fill="white"/>
<path d="M781.093 245.085H627.896C626.813 245.085 625.934 244.206 625.934 243.123C625.934 242.039 626.813 241.161 627.896 241.161H781.093C782.177 241.161 783.055 242.039 783.055 243.123C783.055 244.206 782.177 245.085 781.093 245.085Z" fill="white"/>
<path d="M781.093 259.471H627.896C626.813 259.471 625.934 258.592 625.934 257.509C625.934 256.425 626.813 255.547 627.896 255.547H781.093C782.177 255.547 783.055 256.425 783.055 257.509C783.055 258.592 782.177 259.471 781.093 259.471Z" fill="white"/>
<path d="M568.715 135.304L559.592 137.999C559.592 137.999 562.066 135.89 564.556 134.97L568.715 135.304Z" fill="#FF9896"/>
<path d="M569.831 141.112L560.246 147.808L561.383 144.708L569.831 141.112Z" fill="#FF9896"/>
<path d="M583.368 124.202C576.907 125.392 575.115 129.185 575.115 129.185L565.568 121.913L562.377 103.669C568.249 125.732 582.112 124.372 583.368 124.202Z" fill="#FF9896"/>
<path d="M505.643 140.118C503.708 144.263 501.158 147.049 500.922 147.311L500.909 147.324L497.195 139.896C497.6 140.497 499.92 144.928 505.125 140.73L505.643 140.118Z" fill="#FF9896"/>
<path d="M560.062 155.341L566.407 152.905L557.499 158.16L560.062 155.341Z" fill="#FF9896"/>
<path d="M557.499 163.894C557.499 163.894 565.098 160.184 565.928 159.748C566.757 159.313 570.108 155.171 570.108 155.171L557.499 163.894Z" fill="#FF9896"/>
<path d="M526.098 96.9726C526.098 96.9726 528.775 99.1799 531.391 97.6266L526.977 101.35C526.977 101.35 523.012 99.5884 526.098 96.9726Z" fill="#FF9896"/>
</svg>
