<svg width="34" height="35" viewBox="0 0 34 35" fill="none" xmlns="http://www.w3.org/2000/svg">
<g clip-path="url(#clip0_24_149)">
<path d="M17.0081 34.3887C26.3859 34.3887 33.9881 26.7865 33.9881 17.4087C33.9881 8.03092 26.3859 0.428711 17.0081 0.428711C7.63028 0.428711 0.0280762 8.03092 0.0280762 17.4087C0.0280762 26.7865 7.63028 34.3887 17.0081 34.3887Z" fill="white"/>
<path d="M21.2768 18.074H18.2469V29.174H13.6564V18.074H11.4731V14.173H13.6564V11.6486C13.6564 9.84337 14.5139 7.0166 18.2878 7.0166L21.6881 7.03083V10.8174H19.221C18.8163 10.8174 18.2472 11.0196 18.2472 11.8807V14.1766H21.6778L21.2768 18.074Z" fill="#3B5998"/>
</g>
<defs>
<clipPath id="clip0_24_149">
<rect width="33.96" height="33.96" fill="white" transform="translate(0.0280762 0.428711)"/>
</clipPath>
</defs>
</svg>
