<svg width="100" height="100" viewBox="0 0 100 100" fill="none" xmlns="http://www.w3.org/2000/svg">
<path d="M24.2777 9H27.7783C30.3547 9.41657 32.7316 10.29 34.7795 11.9755C36.241 13.1867 37.6062 14.5012 38.9382 15.8506C41.6196 18.5811 44.5059 21.077 47.7317 23.1669C54.4125 27.5164 61.8058 30.1575 69.4353 32.2264C73.8023 33.4096 78.2498 34.2095 82.6693 35.1546C87.22 36.1295 89.9715 39.1295 90.6646 43.6751C91.2264 47.3629 90.6068 50.9423 89.5129 54.4534C87.3443 61.4248 83.7369 67.6261 79.2387 73.325C75.7048 77.7865 71.7492 81.8455 66.8098 84.7632C58.8355 89.489 50.1821 91.0275 41.1103 89.3332C28.3734 86.9546 19.0426 79.8519 13.3261 68.1949C10.1756 61.7696 8.95916 54.8139 8.3238 47.7462C8.17503 46.0957 8.10502 44.4364 8 42.7807V39.4551C8.10327 38.0059 8.18903 36.5566 8.3098 35.1091C8.70887 30.3536 9.55776 25.7048 11.28 21.2398C12.1204 19.0008 13.2591 16.8855 14.6651 14.951C17.0788 11.6885 20.2521 9.64411 24.2777 9Z" fill="#FF0E0E" fill-opacity="0.25"/>
<path d="M90.6216 99.0732C88.3364 98.5979 86.6875 97.176 85.091 95.5658C77.7077 88.1205 70.2986 80.7004 62.8636 73.3055C62.6134 73.0553 62.3845 72.7856 62.111 72.4908C50.9759 79.5791 39.1503 81.3464 26.6613 77.0941C17.5942 74.0078 10.6105 68.1919 5.63664 59.9997C-4.19865 43.8171 -0.89112 22.5849 13.437 9.87471C27.5459 -2.63957 48.9488 -3.2875 63.8491 8.09194C79.2422 19.8458 85.1376 43.3418 72.4642 62.1744C72.8073 62.3761 73.1319 62.6079 73.4341 62.8669C80.8355 70.2528 88.2349 77.6386 95.6324 85.0244C97.2386 86.619 98.6742 88.2641 99.1359 90.557V92.8849C98.5423 94.0779 98.0806 95.3641 97.3259 96.4427C96.2435 97.9946 94.5305 98.6425 92.7458 99.0809L90.6216 99.0732ZM74.4332 39.7414C74.5186 20.6644 59.0168 5.08316 39.8623 4.98811C20.7892 4.89693 5.18658 20.3812 5.06243 39.5183C4.93828 58.6147 20.407 74.1901 39.6605 74.355C58.7278 74.5276 74.3498 58.9716 74.4332 39.7414ZM66.0451 69.4548C66.1789 69.5984 66.305 69.7419 66.4331 69.8777L89.706 93.1429C89.8877 93.3295 90.0821 93.5032 90.288 93.6628C90.6121 93.9179 90.9955 94.0868 91.4025 94.1539C91.8095 94.2209 92.2268 94.1839 92.6156 94.0462C93.0044 93.9085 93.3521 93.6747 93.6262 93.3665C93.9003 93.0583 94.0919 92.6858 94.1833 92.2835C94.4685 91.1739 93.9505 90.3611 93.2134 89.6181L70.0044 66.4324C69.8298 66.2579 69.63 66.1104 69.502 66.0018L66.0451 69.4548Z" fill="black"/>
<path d="M31.6916 39.1982C25.29 33.3785 26.7662 24.843 31.2668 20.6625C33.586 18.5172 36.6316 17.3298 39.7909 17.3392C42.9502 17.3485 45.9887 18.5539 48.2952 20.7129C53.0518 25.1747 53.9209 33.6734 47.9383 39.1128C49.3447 40.2516 50.8753 41.2855 52.1595 42.5678C55.3021 45.7046 56.8773 49.5844 57.0907 54.0132C57.1858 56.0035 56.1887 57.0453 54.2177 57.0453C44.5751 57.0453 34.9326 57.0453 25.29 57.0453C23.3501 57.0453 22.3665 56.0579 22.4558 54.0966C22.7429 47.7861 25.6508 43.012 30.9913 39.6909C31.1853 39.5726 31.3793 39.4737 31.5733 39.3553C31.6315 39.3243 31.6548 39.2506 31.6916 39.1982ZM51.8258 52.0248C50.8326 46.0965 44.7336 41.5688 38.6985 42.2012C33.1524 42.7831 27.6411 47.7241 27.7963 52.0248H51.8258ZM39.7597 37.2001C41.2244 37.1986 42.6559 36.7632 43.8735 35.9489C45.091 35.1347 46.0401 33.978 46.601 32.6249C47.1619 31.2718 47.3094 29.7829 47.025 28.346C46.7405 26.9091 46.0369 25.5887 45.0027 24.5513C43.9686 23.514 42.6504 22.8062 41.2144 22.5172C39.7785 22.2283 38.2891 22.3711 36.9342 22.9278C35.5794 23.4844 34.4197 24.4299 33.6017 25.6449C32.7836 26.8599 32.3437 28.29 32.3376 29.7548C32.3376 31.7254 33.1188 33.6156 34.5101 35.0112C35.9013 36.4068 37.7891 37.1939 39.7597 37.2001V37.2001Z" fill="black"/>
</svg>
