<svg width="87" height="99" viewBox="0 0 87 99" fill="none" xmlns="http://www.w3.org/2000/svg">
<path d="M62.0646 82.0444C67.7627 77.1777 78.5299 58.9027 64.2542 47.3166C45.7724 32.3169 61.8455 15.6166 47.829 9.14313C36.0716 3.71321 12.5797 18.3423 24.6225 37.8977C36.6654 57.4531 15.058 53.6196 14.0222 71.7847C13.0504 88.8267 44.21 97.2939 62.0646 82.0444Z" fill="#FF0E0E" fill-opacity="0.25"/>
<path d="M0.0350549 49.3689C0.0350549 41.7515 0.0606535 34.1305 0.00945628 26.513C0.00945628 25.1198 0.448289 24.2494 1.67702 23.54C14.9493 15.8921 28.1996 8.21127 41.428 0.497556C41.8943 0.176644 42.4463 0.00330742 43.0123 4.68593e-05C43.5783 -0.0032137 44.1323 0.163752 44.6022 0.479272C57.8818 8.20517 71.176 15.9018 84.4848 23.5692C84.9887 23.8228 85.4054 24.2211 85.6817 24.713C85.9579 25.2048 86.0811 25.7679 86.0354 26.3302C86.0061 41.704 86.0061 57.0778 86.0354 72.4516C86.0354 73.8156 85.5307 74.6238 84.3715 75.293C71.109 82.9433 57.8598 90.6229 44.6242 98.3318C44.1549 98.6489 43.6015 98.8183 43.0352 98.8183C42.4689 98.8183 41.9155 98.6489 41.4463 98.3318C28.1716 90.6083 14.8847 82.9104 1.5856 75.2382C1.07501 74.9907 0.65123 74.5945 0.36993 74.1018C0.0886297 73.609 -0.0370313 73.0427 0.00945628 72.4772C0.0569965 64.7683 0.0350549 57.0485 0.0350549 49.3689ZM82.2578 49.3689C82.2578 42.205 82.2578 35.041 82.276 27.8771C82.3137 27.5045 82.236 27.1294 82.0535 26.8023C81.8711 26.4753 81.5926 26.2122 81.2558 26.0486C68.8563 18.8834 56.4702 11.7 44.0976 4.49825C43.7906 4.27796 43.4222 4.15948 43.0444 4.15948C42.6665 4.15948 42.2982 4.27796 41.9912 4.49825C29.6648 11.6732 17.319 18.8286 4.95364 25.9645C4.09792 26.4582 3.76514 26.9738 3.76514 27.9831C3.80171 42.2623 3.80171 56.5439 3.76514 70.8279C3.76514 71.8153 4.04306 72.3601 4.91707 72.8648C17.2824 79.9885 29.627 87.1439 41.9509 94.3311C42.8725 94.8686 43.4868 94.6967 44.295 94.2067C56.5507 87.0781 68.8185 79.9727 81.0985 72.8904C81.9615 72.3931 82.287 71.8665 82.2797 70.8644C82.2395 63.6859 82.2578 56.5219 82.2578 49.3689Z" fill="black"/>
<path d="M5.63024 49.4018C5.63024 42.8778 5.6595 36.3538 5.6083 29.8298C5.6083 28.3926 6.07273 27.4894 7.35632 26.7507C18.7002 20.2389 30.0257 13.6856 41.333 7.09094C41.8371 6.74613 42.4336 6.56165 43.0444 6.56165C43.6552 6.56165 44.2517 6.74613 44.7559 7.09094C56.0607 13.6734 67.3814 20.2267 78.7179 26.7507C79.932 27.4491 80.4586 28.2976 80.4549 29.7018C80.4233 42.8424 80.4233 55.9818 80.4549 69.12C80.4549 70.5279 79.9174 71.369 78.7106 72.0638C67.4106 78.5634 56.1302 85.096 44.8692 91.6614C43.5637 92.422 42.5105 92.3928 41.2123 91.6614C30.0196 85.1301 18.8086 78.6439 7.57939 72.2028C6.11661 71.3617 5.57904 70.356 5.60098 68.6995C5.67412 62.2669 5.63024 55.8343 5.63024 49.4018ZM9.36398 49.453C9.36398 55.5198 9.38226 61.5867 9.34204 67.6536C9.29978 68.0272 9.37587 68.4046 9.55958 68.7327C9.7433 69.0607 10.0254 69.3228 10.366 69.482C20.9492 75.5769 31.5153 81.695 42.0644 87.8362C42.333 88.0326 42.6559 88.1408 42.9886 88.1461C43.3213 88.1513 43.6474 88.0533 43.9221 87.8655C54.5199 81.7023 65.125 75.5611 75.7375 69.4418C76.0395 69.3034 76.2916 69.0755 76.4597 68.789C76.6278 68.5025 76.7038 68.1712 76.6773 67.8401C76.6481 55.5674 76.6481 43.2959 76.6773 31.0256C76.709 30.6771 76.6331 30.3272 76.4599 30.0232C76.2866 29.7191 76.0243 29.4755 75.7082 29.3252C65.1641 23.2522 54.6321 17.1573 44.1122 11.0404C43.8059 10.8205 43.439 10.7008 43.0619 10.6975C42.6849 10.6942 42.316 10.8076 42.0058 11.0222C31.4934 17.1439 20.9626 23.2388 10.4135 29.3069C9.57974 29.7859 9.34935 30.3345 9.35301 31.2524C9.38226 37.3192 9.36398 43.3861 9.36398 49.453Z" fill="black"/>
<path d="M16.8316 48.7179C16.8316 53.4914 16.8316 58.2625 16.8316 63.0312C16.8481 63.5782 16.8261 64.1256 16.7657 64.6695C16.7266 65.1069 16.5172 65.5114 16.1828 65.7959C15.8483 66.0805 15.4155 66.2223 14.9775 66.1908C14.5382 66.2112 14.1076 66.0639 13.7728 65.7788C13.4381 65.4936 13.2242 65.0918 13.1746 64.6549C13.1386 64.3834 13.1263 64.1093 13.138 63.8357V36.8731C13.138 36.6464 13.0576 36.3428 13.171 36.2002C13.639 35.6078 14.1071 34.6935 14.6886 34.5948C15.27 34.4961 16.2903 35.0556 16.6268 35.6188C17.2228 36.6098 17.4569 37.8129 17.8299 38.9466C19.7803 44.7806 21.7221 50.6134 23.6554 56.445C23.7816 56.8801 24.0229 57.273 24.3539 57.5824V56.2366C24.3539 46.8382 24.3539 37.4399 24.3539 28.0416C24.3539 27.5406 24.2003 26.8933 24.449 26.5788C24.9024 25.9937 25.6082 25.233 26.2006 25.233C26.7931 25.233 27.4586 26.0046 27.9523 26.5605C28.1644 26.7982 28.0474 27.3504 28.0474 27.76C28.0474 41.5369 28.0474 55.3114 28.0474 69.0834C28.0474 69.3138 28.0474 69.5406 28.0474 69.7709C28.0474 70.8022 27.6049 71.5555 26.5298 71.7347C25.4546 71.9139 24.7013 71.369 24.3649 70.3158C23.2861 67.0758 22.1963 63.8357 21.1175 60.5957C19.8985 56.968 18.6893 53.3379 17.4898 49.7053C17.3691 49.3396 17.2046 49.0032 17.0583 48.6521L16.8316 48.7179Z" fill="black"/>
<path d="M33.8034 47.566C37.4274 47.566 40.9344 47.5294 44.4414 47.6025C45.1446 47.6069 45.819 47.882 46.3248 48.3705C46.4947 48.641 46.5964 48.9487 46.6212 49.2672C46.6461 49.5856 46.5933 49.9054 46.4674 50.199C46.2617 50.4772 45.9991 50.7086 45.697 50.8775C45.395 51.0465 45.0605 51.1493 44.7157 51.179C41.6146 51.2778 38.4989 51.2266 35.4088 51.2266H33.7705C33.7412 51.7897 33.6973 52.2688 33.6973 52.7479C33.6973 60.0008 33.6973 67.255 33.6973 74.5103C33.7219 74.9202 33.7097 75.3314 33.6608 75.7391C33.4743 76.7557 32.8599 77.403 31.7994 77.3993C30.7389 77.3957 30.1428 76.7301 29.9709 75.7171C29.9285 75.353 29.9175 74.986 29.938 74.62C29.9258 57.7859 29.9124 40.9579 29.8978 24.1359C29.8513 23.5276 29.9885 22.9193 30.2917 22.3899C30.5949 21.8605 31.05 21.4343 31.5983 21.1665C34.9517 19.2247 38.2576 17.1987 41.5451 15.1508C41.9699 14.8455 42.478 14.6776 43.001 14.6697C43.5241 14.6619 44.037 14.8145 44.4707 15.1069C47.8826 17.1292 51.3202 19.104 54.7357 21.119C56.0449 21.8906 56.4179 22.9109 55.8328 23.9238C55.2477 24.9368 54.1726 25.1087 52.8597 24.3517C49.9781 22.6732 47.0891 21.0312 44.2586 19.2978C43.4138 18.7822 42.7958 18.7164 41.9364 19.2759C39.5046 20.8447 37.0105 22.2416 34.5896 23.7702C34.3612 23.9179 34.1666 24.1122 34.0185 24.3403C33.8704 24.5685 33.7722 24.8253 33.7303 25.0941C33.6791 32.3458 33.6973 39.6012 33.701 46.8565C33.7192 47.095 33.7534 47.3321 33.8034 47.566Z" fill="black"/>
<path d="M67.3486 32.9639V68.2826C67.3486 68.6483 67.3486 69.014 67.3486 69.3797C67.3193 70.9851 66.6172 71.8335 65.3921 71.7933C64.2109 71.7604 63.5819 70.9485 63.5637 69.3907C63.5637 56.9936 63.5381 44.5966 63.5966 32.1959C63.5966 30.8831 63.2784 30.1041 62.0607 29.5629C60.9143 29.0052 59.8041 28.3762 58.7365 27.6796C57.6394 27.0177 57.3103 25.9498 57.921 25.0283C58.5792 24.0299 59.5118 23.8508 60.5357 24.4322C64.2987 26.5679 68.0617 28.7035 71.7991 30.8794C72.9291 31.534 73.2034 32.5909 72.6219 33.538C72.0404 34.4851 71.0714 34.6753 69.8829 34.0646C69.1259 33.6697 68.3945 33.2784 67.6155 32.8688C67.5863 32.8541 67.5314 32.9127 67.3486 32.9639Z" fill="black"/>
</svg>
