<svg width="99" height="87" viewBox="0 0 99 87" fill="none" xmlns="http://www.w3.org/2000/svg">
<path fill-rule="evenodd" clip-rule="evenodd" d="M62.3862 85.2105L65.6809 86.3933C69.6874 87.1474 73.3648 86.2955 76.7389 84.0404C78.7159 82.6948 80.5023 81.0886 82.0498 79.2652C85.1795 75.6448 87.5492 71.5563 89.5317 67.2153C89.934 66.3333 90.3219 65.4453 90.7098 64.557C90.9032 64.1144 91.0965 63.6717 91.2918 63.2296L92.4154 60.0996C92.5571 59.6094 92.702 59.12 92.8469 58.6306C93.1731 57.5288 93.4993 56.4272 93.7885 55.3167C95.5786 48.45 96.784 41.4924 95.9898 34.3804C94.5484 21.4776 88.1663 11.6398 76.9823 5.09736C69.0165 0.43745 60.3522 -1.03846 51.2501 0.714922C45.6154 1.7921 40.5209 4.27571 35.6874 7.28074C34.8735 7.78867 34.0712 8.31011 33.2817 8.84607C32.1571 7.72842 31.0019 6.64306 29.7795 5.62995C27.7316 3.94442 25.3547 3.07103 22.7783 2.65446H19.2777C15.2521 3.29856 12.0788 5.34291 9.66512 8.60545C8.25906 10.5399 7.12043 12.6553 6.28005 14.8943C4.55776 19.3593 3.70887 24.008 3.3098 28.7636C3.2292 29.7297 3.16419 30.6965 3.09916 31.6636C3.06676 32.1456 3.03435 32.6276 3 33.1096V36.4351C3.0323 36.9444 3.06129 37.4539 3.09027 37.9635C3.15553 39.1107 3.22079 40.2578 3.3238 41.4007C3.95916 48.4684 5.17561 55.424 8.32614 61.8494C14.0426 73.5063 23.3734 80.609 36.1103 82.9877C43.4793 84.3639 50.5723 83.6071 57.2495 80.7416C58.5721 82.6604 60.3421 84.0806 62.3862 85.2105Z" fill="#FF0E0E" fill-opacity="0.25"/>
<path d="M15.7603 32.3983C14.8489 32.331 14.3174 32.8793 14.1876 34.0432C14.0273 35.5373 13.8742 37.0315 13.7283 38.5256C13.3098 42.7531 12.8938 46.9831 12.4826 51.1409C12.4393 52.3432 12.9323 53.0214 13.8124 53.0647C14.6926 53.1079 15.2553 52.4755 15.3611 51.3549C15.4477 50.4339 15.5294 49.5105 15.6232 48.587C16.1041 43.8192 16.5851 39.0507 17.066 34.2813C17.1646 33.1679 16.6572 32.4633 15.7603 32.3983Z" fill="black"/>
<path d="M84.5791 38.5257C84.4316 37.0299 84.2793 35.5358 84.1222 34.0432C83.9996 32.889 83.4585 32.3311 82.5471 32.3984C81.6357 32.4657 81.1428 33.1679 81.2534 34.2789C81.7215 39.0483 82.2025 43.8169 82.6962 48.5847C82.7876 49.5081 82.8718 50.4315 82.9583 51.3525C83.0617 52.4731 83.6341 53.1032 84.5046 53.0623C85.3751 53.0214 85.8777 52.3409 85.8368 51.1385C85.416 46.9831 85 42.7532 84.5791 38.5257Z" fill="black"/>
<path d="M98.3033 33.5431C98.2913 30.5949 96.5045 28.7336 93.5587 28.6519C92.1856 28.6086 90.8077 28.6687 89.4322 28.6206C89.2548 28.614 89.0805 28.572 88.9195 28.4973C88.7585 28.4226 88.614 28.3165 88.4944 28.1854C86.5706 25.4127 83.8869 23.9674 80.602 23.4288C70.1751 21.7214 59.6928 21 49.1553 21C38.6177 21 28.1354 21.7214 17.7157 23.4288C14.4284 23.9674 11.7496 25.4127 9.82095 28.1854C9.70079 28.3171 9.55549 28.4235 9.3936 28.4982C9.23171 28.573 9.0565 28.6146 8.87829 28.6206C7.50278 28.6687 6.12487 28.6086 4.74936 28.6519C1.80596 28.7433 0.0192379 30.5949 0 33.5431C0 36.1042 0 38.6628 0 41.2238C0 43.4915 0.894563 45.3119 2.7414 46.6417C3.38266 47.1114 4.03275 47.5772 4.69164 48.0389C6.53127 49.3519 6.53127 49.3519 6.25713 51.5786C5.89683 54.3366 6.62402 57.1265 8.28473 59.3577C9.94545 61.5889 12.4093 63.0862 15.1547 63.5326C18.6247 64.0953 22.1284 64.4729 25.5936 65.0404C29.5446 65.6872 33.2647 65.3289 36.7709 63.2056C38.9351 61.8998 41.222 60.8249 43.432 59.5984C45.3397 58.5468 47.2427 58.0225 49.1408 58.0258C51.039 58.029 52.9411 58.5532 54.8473 59.5984C57.0596 60.8176 59.3537 61.8926 61.5084 63.2056C65.0145 65.3289 68.7226 65.6872 72.6856 65.0404C76.1557 64.4729 79.6594 64.0953 83.127 63.5326C85.8723 63.0862 88.3362 61.5889 89.9969 59.3577C91.6576 57.1265 92.3848 54.3366 92.0245 51.5786C91.7504 49.3519 91.7504 49.3519 93.5924 48.0389C94.2417 47.5756 94.8918 47.1098 95.5427 46.6417C97.3871 45.3071 98.284 43.4915 98.284 41.2238C98.3057 38.6628 98.3153 36.1042 98.3033 33.5431ZM6.79098 46.0093C5.75454 45.2518 4.88883 44.6554 4.06401 44.0061C3.68424 43.7091 3.3797 43.3268 3.17501 42.8902C2.97031 42.4537 2.8712 41.9751 2.88569 41.4932C2.88569 38.8071 2.87126 36.1234 2.88569 33.4373C2.88569 32.3359 3.33778 31.6867 4.3117 31.6121C5.60304 31.5135 6.90641 31.5881 8.24344 31.5881C7.7649 36.3639 7.28876 41.0796 6.79098 46.0093ZM83.3098 60.4906C79.5295 61.2649 75.6434 61.5174 71.8512 62.2389C68.2152 62.929 65.0602 62.0104 61.9917 60.1708C60.0247 58.9876 57.9398 58.0065 55.9078 56.922C53.6633 55.7276 51.4125 55.1304 49.1553 55.1304C46.898 55.1304 44.6472 55.7276 42.4027 56.922C40.3707 57.9993 38.2858 58.9876 36.3164 60.1708C33.2479 62.0104 30.0929 62.929 26.4569 62.2389C22.6623 61.5174 18.7786 61.2649 14.9984 60.4906C11.0762 59.6874 8.68351 56.0034 9.08751 52.0211C9.71113 45.9291 10.3235 39.8243 10.9247 33.7066C11.3023 29.8831 13.6421 27.0431 17.4464 26.4708C23.0061 25.6315 28.5875 24.7875 34.1906 24.4508C39.1684 24.1574 44.163 24.0348 49.1553 24.0059C54.1475 24.0348 59.1397 24.1574 64.1199 24.4508C69.7206 24.7802 75.3044 25.6315 80.8617 26.4708C84.6684 27.0431 87.0106 29.8831 87.3858 33.7066C87.9822 39.8243 88.5922 45.9291 89.2158 52.0211C89.627 56.0034 87.2319 59.6874 83.3098 60.493V60.4906ZM95.4224 41.4932C95.4367 41.9754 95.3375 42.4543 95.1329 42.8912C94.9282 43.3281 94.6238 43.7108 94.2441 44.0085C93.4217 44.6578 92.5608 45.2542 91.5195 46.0117C91.0217 41.0796 90.5432 36.3639 90.0623 31.5833C91.3969 31.5833 92.7075 31.5087 93.994 31.6073C94.9679 31.6818 95.4128 32.3287 95.42 33.4325C95.4368 36.1234 95.4296 38.8071 95.4224 41.4932Z" fill="black"/>
<path d="M59.8778 27.4158C58.2497 27.322 56.6193 27.2186 54.9889 27.2258C53.0411 27.2386 51.0932 27.2547 49.1454 27.2739C47.1976 27.2547 45.2489 27.2386 43.2995 27.2258C41.6715 27.2258 40.0387 27.322 38.4107 27.4158C37.4896 27.4663 36.9365 28.0627 36.9678 28.8731C36.987 29.6258 37.5522 30.1764 38.4107 30.2606C38.6661 30.2762 38.9223 30.2762 39.1778 30.2606L49.0564 29.948V29.9913H49.2512V29.948L59.1275 30.251C59.3829 30.2666 59.6391 30.2666 59.8946 30.251C60.7555 30.1668 61.3206 29.6161 61.3374 28.8634C61.3615 28.0627 60.8108 27.4663 59.8778 27.4158Z" fill="black"/>
</svg>
