<svg width="237" height="129" viewBox="0 0 237 129" fill="none" xmlns="http://www.w3.org/2000/svg">
<path d="M127.653 40.2122C127.569 39.9908 127.487 39.7667 127.395 39.5089C127.232 39.0522 127.064 38.5787 126.854 38.0828L126.683 37.6793C126.445 37.1189 126.201 36.5334 125.938 36.0206C125.602 35.3034 125.24 34.6393 124.879 33.9865C124.739 33.7063 124.582 33.4598 124.428 33.2048L124.119 32.6977C123.946 32.4175 123.769 32.1373 123.624 31.916C123.203 31.2744 122.744 30.6244 122.259 29.9855C121.699 29.2627 121.239 28.6827 120.791 28.17C120.343 27.6572 119.799 27.0492 119.143 26.3964L118.97 26.2255C118.737 25.9986 118.505 25.7688 118.286 25.5755C118.006 25.3289 117.785 25.1244 117.544 24.9255C115.891 23.141 114.056 21.5343 112.069 20.1316C109.98 18.6352 107.709 17.4112 105.311 16.4892C102.75 15.5194 100.033 15.0302 97.295 15.0463C94.4651 15.0903 91.6753 15.7219 89.1025 16.9011C86.638 18.054 84.375 19.596 82.4005 21.468C80.4421 23.2684 78.732 25.3215 77.3152 27.5732C74.2664 32.4654 73.1889 38.3327 74.3005 43.989C74.8374 46.7127 75.767 49.344 77.0603 51.8004C78.3225 54.159 79.8674 56.355 81.6609 58.3399C83.4125 60.2912 85.3873 62.0299 87.5447 63.5204C87.9733 63.8314 88.4384 64.1256 88.9091 64.4254L92.0752 66.2858L93.364 67.1264C94.9162 68.149 96.5833 69.3678 98.4717 70.8528C99.7606 71.839 101.058 72.9205 102.316 73.974C102.725 74.313 103.131 74.6548 103.526 74.9798L103.574 75.0219C106.896 77.8396 110.59 80.187 114.551 81.9984L115.703 82.5251L117.645 80.6003C116.625 78.7791 115.417 76.8795 113.845 74.6212C112.649 72.9093 111.296 71.1245 109.584 68.998C108.357 67.5214 106.709 65.5854 104.896 63.7446C104.336 63.1282 103.722 62.5594 103.117 61.985C102.854 61.7329 102.588 61.4835 102.31 61.2117L101.593 60.5701C100.918 59.9705 100.22 59.3485 99.4524 58.7517L98.001 57.631L96.4208 56.5327L95.0591 55.6165L94.6641 55.3363C94.4427 55.1794 94.2214 55.0225 93.9608 54.8152C92.4418 53.6413 91.0195 52.3474 89.7077 50.9459C88.4231 49.5789 87.2702 48.0939 86.2642 46.5106C85.3206 45.0439 84.5949 43.448 84.1096 41.7728C83.6581 40.201 83.5266 38.5547 83.723 36.9312C83.94 35.2781 84.4656 33.6805 85.2724 32.2214C86.1749 30.607 87.2886 29.1201 88.5841 27.8001C89.8255 26.4882 91.2597 25.3734 92.8373 24.494C94.3244 23.6883 95.9625 23.1998 97.648 23.0595C99.4269 22.9429 101.212 23.1528 102.915 23.6787C104.773 24.2414 106.549 25.0408 108.202 26.0574C109.933 27.0963 111.548 28.3173 113.019 29.6998L113.352 29.9799L113.419 30.0332C113.63 30.1733 113.868 30.3526 114.114 30.5487C114.291 30.6832 114.462 30.8289 114.655 30.9914L114.803 31.1147C115.364 31.5938 115.818 32.0281 116.235 32.4455C116.653 32.863 117.037 33.2693 117.563 33.8464C118.009 34.3536 118.423 34.8579 118.849 35.4098C118.961 35.5471 119.065 35.69 119.2 35.8749L119.634 36.4661C119.737 36.609 119.847 36.7463 119.976 36.9564C120.337 37.4944 120.71 38.0492 121.032 38.6123L121.071 38.674C121.32 39.0718 121.55 39.5145 121.8 39.9796L122.015 40.3887C122.203 40.7445 122.374 41.1171 122.556 41.5094C122.668 41.7503 122.777 41.9885 122.892 42.2295L123.797 44.1235L128.451 42.3415L127.653 40.2122Z" fill="white"/>
<path d="M113.296 77.775C112.922 77.2259 112.549 76.6795 112.175 76.136C110.867 74.2616 109.472 72.4516 108.034 70.664C106.597 68.8765 105.059 67.1618 103.431 65.5087C102.641 64.6682 101.769 63.8809 100.934 63.0655C100.052 62.2894 99.1973 61.4909 98.2503 60.7568L96.8494 59.6501L95.3476 58.6107L94.6612 58.1343L93.9551 57.672C93.5573 57.3919 93.1874 57.1341 92.7784 56.8063C91.1651 55.5605 89.6547 54.1869 88.2619 52.6988C86.8758 51.2314 85.6309 49.6366 84.5438 47.9357C83.4794 46.2791 82.6594 44.4777 82.1091 42.5871C81.5829 40.7331 81.4324 38.7927 81.6664 36.8798C81.9192 34.9385 82.5331 33.0617 83.4764 31.3462C84.4803 29.5563 85.7173 27.9075 87.1551 26.4431C88.5595 24.9569 90.1816 23.6928 91.9658 22.6942C93.7304 21.7448 95.6729 21.1723 97.6703 21.0131C99.7246 20.8742 101.787 21.1116 103.756 21.7136C105.801 22.3295 107.76 23.2042 109.584 24.3165C111.44 25.4279 113.173 26.7334 114.753 28.211L114.865 28.3203L114.904 28.3483C115.148 28.5136 115.439 28.7265 115.703 28.9395C115.966 29.1524 116.238 29.3737 116.504 29.5979C117.025 30.0518 117.541 30.5253 118.034 31.0212C118.527 31.5171 119.009 32.0271 119.474 32.551C119.536 32.621 119.592 32.6967 119.653 32.7667C109.404 41.2871 103.773 53.4021 113.296 77.775Z" fill="#CE0000"/>
<path d="M113.083 79.9195L110.282 77.8349C108.6 76.3584 106.9 74.8874 105.199 73.4501C103.498 72.0128 101.803 70.5894 100.061 69.2474C98.3178 67.9053 96.5919 66.5913 94.8184 65.4257L93.4931 64.5683L92.151 63.7922L90.6913 62.9377C90.1589 62.5931 89.5706 62.2344 89.0915 61.8842C87.062 60.4819 85.2031 58.8477 83.5523 57.0147C81.8876 55.1671 80.4529 53.1246 79.2795 50.9319C78.0964 48.6836 77.2469 46.2749 76.7579 43.7817C75.7558 38.6855 76.7262 33.399 79.4728 28.9909C80.7749 26.9114 82.3495 25.0155 84.1547 23.3537C85.9503 21.6533 88.0068 20.2514 90.2458 19.2014C92.533 18.1507 95.0139 17.5877 97.5305 17.5483C99.9876 17.531 102.427 17.9709 104.723 18.8456C106.939 19.6961 109.038 20.8259 110.968 22.2078C112.884 23.5606 114.648 25.1162 116.23 26.8476L116.076 26.7131C116.406 26.9764 116.675 27.2118 116.955 27.4696C117.236 27.7273 117.499 27.9823 117.765 28.2429C118.286 28.7696 118.793 29.3075 119.273 29.8679C119.752 30.4283 120.214 30.9886 120.673 31.5826C121.133 32.1766 121.542 32.7678 121.943 33.3814C122.156 33.6812 122.338 33.9978 122.528 34.3116C122.719 34.6254 122.915 34.9308 123.089 35.2558C123.442 35.8946 123.792 36.5362 124.1 37.1974C124.408 37.8587 124.702 38.5255 124.988 39.1923C125.274 39.8592 125.493 40.5568 125.748 41.2321L125.154 41.4674C124.845 40.823 124.571 40.1674 124.237 39.5398C123.904 38.9122 123.585 38.2817 123.209 37.6794C122.834 37.077 122.464 36.4774 122.069 35.8918C121.881 35.5948 121.66 35.3314 121.455 35.0288C121.251 34.7263 121.046 34.4685 120.822 34.1883C120.393 33.6279 119.945 33.0872 119.48 32.5605C119.015 32.0337 118.538 31.521 118.04 31.0307C117.541 30.5403 117.031 30.0612 116.51 29.6073C116.244 29.3832 115.98 29.1563 115.709 28.9489C115.437 28.7416 115.148 28.523 114.91 28.3577L114.871 28.3297L114.759 28.2204C113.179 26.7428 111.446 25.4373 109.59 24.3259C107.766 23.2137 105.807 22.339 103.762 21.723C101.791 21.1177 99.7272 20.8775 97.6706 21.0142C95.6732 21.1733 93.7306 21.7458 91.9661 22.6953C90.1828 23.6896 88.5607 24.9489 87.1554 26.4301C85.7169 27.8939 84.4798 29.5428 83.4766 31.3333C82.5334 33.0487 81.9195 34.9255 81.6667 36.8668C81.4308 38.7844 81.5813 40.7297 82.1093 42.5881C82.6549 44.4759 83.4692 46.2754 84.5273 47.9312C85.6144 49.6321 86.8592 51.2268 88.2453 52.6943C89.6382 54.1824 91.1486 55.556 92.7618 56.8017C93.1709 57.1295 93.5407 57.3761 93.9386 57.6675L94.6446 58.1298L95.3311 58.6061L96.8329 59.6456L98.2338 60.7523C99.1808 61.4864 100.035 62.2849 100.918 63.061C101.758 63.8763 102.624 64.658 103.414 65.5042C105.042 67.1572 106.55 68.8943 108.018 70.6595C109.486 72.4246 110.85 74.257 112.159 76.1314C113.467 78.0058 114.72 79.9139 115.84 81.9172L113.083 79.9195Z" fill="#E30613"/>
<path d="M114.904 81.6783C98.4801 43.7922 116.255 33.588 134.363 23.1961C144.301 17.4916 154.345 11.7255 158.131 0.997326C158.258 0.66131 158.502 0.382365 158.818 0.211641C159.134 0.0409169 159.501 -0.0101431 159.852 0.0678239C160.202 0.145791 160.513 0.347559 160.727 0.63613C160.941 0.924701 161.044 1.28073 161.017 1.63894C160.949 3.03985 159.686 23.3025 143.071 34.8432C143.009 37.1407 142.082 43.3103 134.643 49.8133C134.702 58.0422 130.418 61.8919 126.03 65.8341C121.97 69.4764 117.807 73.2168 117.779 81.146C117.781 81.4958 117.66 81.8351 117.437 82.1045C117.214 82.374 116.903 82.5564 116.559 82.6199C116.215 82.6833 115.859 82.6238 115.555 82.4516C115.25 82.2795 115.016 82.0057 114.893 81.6783H114.904Z" fill="white"/>
<path d="M114.904 81.6783C98.4801 43.7922 116.255 33.588 134.363 23.1961C144.301 17.4916 154.345 11.7255 158.131 0.997326C158.258 0.66131 158.502 0.382365 158.818 0.211641C159.134 0.0409169 159.501 -0.0101431 159.852 0.0678239C160.202 0.145791 160.513 0.347559 160.727 0.63613C160.941 0.924701 161.044 1.28073 161.017 1.63894C160.949 3.03985 159.686 23.3025 143.071 34.8432C143.009 37.1407 142.082 43.3103 134.643 49.8133C134.702 58.0422 130.418 61.8919 126.03 65.8341C121.97 69.4764 117.807 73.2168 117.779 81.146C117.781 81.4958 117.66 81.8351 117.437 82.1045C117.214 82.374 116.903 82.5564 116.559 82.6199C116.215 82.6833 115.859 82.6238 115.555 82.4516C115.25 82.2795 115.016 82.0057 114.893 81.6783H114.904Z" fill="white"/>
<path d="M131.496 52.3297C130.964 52.7024 130.412 53.0778 129.849 53.4505C126.568 55.6751 122.875 58.1827 121.365 61.7102C121.2 62.0606 120.906 62.3334 120.544 62.4714C120.182 62.6094 119.781 62.6017 119.425 62.4501C119.069 62.2985 118.785 62.0146 118.634 61.6582C118.483 61.3019 118.475 60.9007 118.614 60.5391C120.471 56.2103 124.551 53.4421 128.173 50.9821C129.488 50.131 130.753 49.2068 131.964 48.2139C132.029 48.1284 132.103 48.0504 132.186 47.9813C137.43 43.5769 139.226 39.5087 139.82 36.959C138.254 37.878 136.61 38.7185 134.942 39.5703C129.969 42.1087 124.8 44.748 121.525 49.8361C121.419 50.0017 121.281 50.1448 121.12 50.2572C120.959 50.3696 120.777 50.4492 120.585 50.4913C120.393 50.5335 120.194 50.5374 120.001 50.5028C119.807 50.4683 119.622 50.396 119.457 50.29C119.291 50.1841 119.148 50.0465 119.036 49.8853C118.923 49.724 118.844 49.5422 118.802 49.3502C118.76 49.1582 118.756 48.9597 118.79 48.7662C118.825 48.5727 118.897 48.3879 119.003 48.2223C122.721 42.4478 128.249 39.6207 133.572 36.903C136.069 35.6281 138.518 34.3813 140.644 32.86L140.728 32.8011C150.305 26.4522 154.592 16.9849 156.502 10.1064C151.299 16.8896 143.536 21.3473 135.831 25.7714C119.768 35.023 103.968 44.098 115.554 75.3158C117.053 69.8831 120.58 66.717 124.041 63.6098C127.417 60.5783 130.72 57.6084 131.496 52.3297Z" fill="#E30613"/>
<path fill-rule="evenodd" clip-rule="evenodd" d="M141.651 27.5104C129.765 34.8119 120.239 41.3485 119.012 48.2438C122.73 42.4692 128.258 39.6422 133.581 36.9245C136.078 35.6496 138.527 34.4028 140.653 32.8814L140.737 32.8226C150.314 26.4737 154.601 17.0064 156.511 10.1279C156.491 10.1562 156.47 10.1833 156.447 10.2092C156.447 10.2092 153.53 20.2117 141.642 27.5104" fill="#CE0000"/>
<path fill-rule="evenodd" clip-rule="evenodd" d="M139.821 36.9668C139.821 36.9668 136.691 42.2902 131.356 45.2938C126.022 48.2973 119.446 53.3378 118.614 60.5468C120.471 56.218 124.551 53.4499 128.174 50.9899C129.488 50.1388 130.754 49.2146 131.964 48.2217C132.029 48.1362 132.104 48.0582 132.186 47.9891C137.431 43.5847 139.227 39.5164 139.821 36.9668Z" fill="#CE0000"/>
<path fill-rule="evenodd" clip-rule="evenodd" d="M131.497 52.3301C131.497 52.3301 127.798 58.3063 122.931 62.0496C118.065 65.7928 114.823 69.7658 115.554 75.3161C117.053 69.8834 120.581 66.7174 124.041 63.6102C127.417 60.5786 130.72 57.6087 131.497 52.3301Z" fill="#CE0000"/>
<path fill-rule="evenodd" clip-rule="evenodd" d="M132.113 27.9531C117.473 36.5687 104.871 46.5263 115.554 75.3037C110.432 56.6409 113.918 40.2447 132.113 27.9531Z" fill="#CE0000"/>
<path d="M14.8088 103.836C17.25 103.828 19.5984 104.771 21.3562 106.465C21.6102 106.709 21.9099 106.901 22.238 107.03C22.5662 107.158 22.9164 107.221 23.2687 107.214C23.6211 107.207 23.9686 107.131 24.2915 106.99C24.6144 106.849 24.9064 106.645 25.1507 106.391C25.395 106.137 25.5868 105.838 25.7153 105.509C25.8438 105.181 25.9065 104.831 25.8996 104.479C25.8928 104.126 25.8166 103.779 25.6754 103.456C25.5342 103.133 25.3308 102.841 25.0769 102.597C22.9893 100.589 20.3586 99.2366 17.5105 98.7083C14.6624 98.1801 11.7219 98.4986 9.05301 99.6246C6.38411 100.751 4.10401 102.634 2.49496 105.043C0.885911 107.452 0.0185693 110.28 0.000294839 113.176C-0.0179796 116.073 0.813617 118.911 2.39215 121.34C3.97068 123.769 6.22683 125.681 8.88131 126.841C11.5358 128 14.472 128.356 17.3266 127.864C20.1811 127.371 22.8286 126.053 24.9414 124.071C26.7147 122.407 25.5237 119.43 23.1053 119.43C22.4232 119.43 21.7664 119.689 21.2693 120.156C19.9258 121.416 18.2433 122.255 16.429 122.571C14.6147 122.886 12.7477 122.664 11.0578 121.933C9.3679 121.201 7.92891 119.991 6.91793 118.451C5.90695 116.912 5.36812 115.111 5.36775 113.269C5.3674 113.804 5.20758 114.326 4.90873 114.77C5.20758 114.326 5.3674 113.804 5.36775 113.269C5.37256 110.768 6.36904 108.37 8.13877 106.602C9.90849 104.833 12.3071 103.839 14.8088 103.836Z" fill="#E20016"/>
<path d="M54.3079 116.015C54.2282 115.632 54.0663 115.271 53.8335 114.957C53.6006 114.642 53.3023 114.382 52.9592 114.195C53.3834 114.426 53.7372 114.768 53.9831 115.183C54.2291 115.599 54.3581 116.074 54.3564 116.557V101.484C54.3564 100.772 54.0738 100.09 53.5706 99.5861C53.0675 99.0825 52.385 98.7994 51.6731 98.7988C50.9613 98.7994 50.2788 99.0825 49.7756 99.5861C49.2725 100.09 48.9899 100.772 48.9899 101.484V116.557C48.9909 116.074 49.1217 115.6 49.3686 115.185C49.6154 114.77 49.9693 114.428 50.3932 114.197C49.9682 114.427 49.6133 114.768 49.3663 115.183C49.1192 115.599 48.9892 116.073 48.9899 116.557C48.9899 119.865 45.4755 122.593 41.8621 122.593C38.0848 122.593 34.7707 119.762 34.7707 116.557V101.484C34.7707 100.773 34.4889 100.092 33.987 99.5882C33.4852 99.0848 32.8042 98.801 32.0934 98.7988C31.3816 98.7994 30.6991 99.0825 30.1959 99.5861C29.6928 100.09 29.4102 100.772 29.4102 101.484V116.557C29.4102 122.738 35.1144 127.959 41.8681 127.959C48.6218 127.959 54.3564 122.738 54.3564 116.557C54.3588 116.375 54.3425 116.193 54.3079 116.015Z" fill="#E20016"/>
<path d="M71.3578 98.7949H61.7287C61.3763 98.7947 61.0272 98.8639 60.7016 98.9986C60.3759 99.1334 60.08 99.331 59.8308 99.5802C59.5815 99.8295 59.3839 100.125 59.2492 100.451C59.1144 100.777 59.0452 101.126 59.0454 101.478V124.825C59.0356 125.184 59.0977 125.541 59.2282 125.875C59.3587 126.209 59.5548 126.514 59.8051 126.771C60.0553 127.028 60.3545 127.233 60.6851 127.372C61.0157 127.512 61.3709 127.584 61.7297 127.584C62.0886 127.584 62.4438 127.512 62.7744 127.372C63.1049 127.233 63.4042 127.028 63.6544 126.771C63.9046 126.514 64.1008 126.209 64.2313 125.875C64.3617 125.541 64.4239 125.184 64.414 124.825V119.163H71.3578C74.0329 119.126 76.5857 118.036 78.464 116.131C80.3424 114.226 81.3955 111.658 81.3955 108.983C81.3955 106.308 80.3424 103.74 78.464 101.835C76.5857 99.9298 74.0329 98.8407 71.3578 98.803V98.7949ZM71.3578 113.787H64.414V104.161H71.3578C72.6342 104.161 73.8583 104.669 74.7608 105.571C75.6633 106.474 76.1704 107.698 76.1704 108.974C76.1704 110.25 75.6633 111.474 74.7608 112.377C73.8583 113.28 72.6342 113.787 71.3578 113.787Z" fill="#E20016"/>
<path d="M88.0219 98.7949C87.3103 98.7949 86.6278 99.0776 86.1245 99.5808C85.6213 100.084 85.3386 100.767 85.3386 101.478V124.837C85.3578 125.536 85.6491 126.2 86.1504 126.688C86.6517 127.176 87.3235 127.449 88.0229 127.449C88.7224 127.449 89.3942 127.176 89.8955 126.688C90.3968 126.2 90.688 125.536 90.7072 124.837V101.478C90.7067 100.766 90.4235 100.084 89.92 99.5807C89.4165 99.0776 88.7338 98.7949 88.0219 98.7949Z" fill="#E20016"/>
<path d="M110.341 98.7949H99.6892C99.3367 98.7947 98.9877 98.8639 98.662 98.9986C98.3363 99.1334 98.0404 99.331 97.7912 99.5802C97.542 99.8295 97.3443 100.125 97.2096 100.451C97.0748 100.777 97.0056 101.126 97.0059 101.478V124.837C97.0059 125.19 97.0753 125.538 97.2101 125.864C97.345 126.19 97.5426 126.485 97.7918 126.735C98.0409 126.984 98.3368 127.181 98.6623 127.316C98.9879 127.451 99.3368 127.52 99.6892 127.52H110.333C117.975 127.431 123.717 121.29 123.717 113.164C123.717 105.037 117.979 98.8879 110.341 98.7949ZM110.165 122.142H102.374V104.161H110.165C114.909 104.161 118.351 107.943 118.351 113.15C118.349 118.367 114.907 122.142 110.165 122.142Z" fill="#E20016"/>
<path d="M147.618 103.102L147.669 103.029L147.721 102.956L147.754 102.904C147.768 102.882 147.78 102.859 147.792 102.837L147.835 102.768L147.853 102.736L147.877 102.683L147.912 102.617C147.912 102.592 147.932 102.57 147.944 102.546L147.97 102.477L147.996 102.416C147.995 102.41 147.995 102.403 147.996 102.396V102.384L148.015 102.325C148.015 102.295 148.033 102.265 148.043 102.234C148.053 102.204 148.059 102.186 148.065 102.162L148.077 102.105C148.077 102.105 148.077 102.091 148.077 102.083C148.077 102.075 148.092 102.022 148.098 101.99C148.103 101.967 148.107 101.944 148.11 101.921C148.11 101.891 148.11 101.858 148.124 101.826C148.124 101.8 148.124 101.771 148.124 101.743C148.124 101.715 148.124 101.703 148.124 101.682C148.124 101.662 148.124 101.612 148.124 101.575C148.124 101.539 148.124 101.521 148.124 101.492C148.124 101.462 148.124 101.434 148.124 101.403V101.367C148.124 101.343 148.124 101.32 148.124 101.296C148.124 101.272 148.124 101.213 148.112 101.173C148.1 101.132 148.112 101.132 148.112 101.11C148.112 101.088 148.112 101.058 148.098 101.029C148.083 101.001 148.083 100.948 148.075 100.91C148.067 100.872 148.075 100.868 148.059 100.845C148.043 100.823 148.045 100.791 148.039 100.764C148.033 100.738 148.019 100.692 148.007 100.657C147.999 100.633 147.99 100.61 147.98 100.586L147.95 100.502L147.916 100.417C147.903 100.388 147.889 100.362 147.875 100.334C147.861 100.305 147.861 100.295 147.851 100.277L147.833 100.247L147.802 100.188C147.784 100.158 147.766 100.13 147.75 100.099C147.734 100.069 147.717 100.047 147.699 100.02C147.689 100.003 147.677 99.9858 147.665 99.9698C147.645 99.9388 147.622 99.9084 147.598 99.8788C147.58 99.8545 147.564 99.8302 147.544 99.808L147.507 99.7615L147.43 99.6766C147.41 99.6563 147.392 99.6321 147.37 99.6118C147.355 99.596 147.34 99.5811 147.323 99.5674L147.246 99.4946C147.228 99.4784 147.212 99.4602 147.192 99.444L147.172 99.4278L147.149 99.4096L147.087 99.3591L147.002 99.3005L146.939 99.256L146.88 99.2175L146.824 99.1832L146.739 99.1346L146.717 99.1225L146.658 99.0942L146.601 99.0659L146.526 99.0315L146.46 99.0052L146.379 98.9709L146.312 98.9486L146.219 98.9203L146.146 98.8981L146.076 98.8819L145.983 98.8596L145.914 98.8475C145.881 98.8475 145.847 98.8475 145.815 98.8354L145.734 98.8232H145.671H145.562H145.475H127.654C126.943 98.8232 126.26 99.1059 125.757 99.6092C125.254 100.112 124.971 100.795 124.971 101.507C124.971 102.218 125.254 102.901 125.757 103.404C126.26 103.907 126.943 104.19 127.654 104.19H140.056L125.521 123.226C125.505 123.246 125.493 123.268 125.477 123.288L125.41 123.383C125.4 123.401 125.39 123.418 125.378 123.434C125.363 123.456 125.351 123.48 125.337 123.505L125.285 123.596C125.274 123.615 125.265 123.634 125.256 123.654C125.24 123.685 125.228 123.713 125.214 123.743C125.201 123.766 125.191 123.79 125.181 123.814C125.172 123.836 125.163 123.859 125.155 123.883C125.143 123.913 125.131 123.943 125.121 123.976C125.112 123.996 125.105 124.016 125.099 124.036V124.057C125.099 124.079 125.099 124.099 125.082 124.121C125.066 124.144 125.068 124.17 125.062 124.194C125.056 124.218 125.05 124.243 125.046 124.269C125.042 124.295 125.046 124.317 125.032 124.342L125.02 124.4V124.431C125.02 124.459 125.02 124.489 125.02 124.518C125.02 124.546 125.02 124.566 125.02 124.59V124.655C125.02 124.683 125.02 124.712 125.02 124.74C125.02 124.768 125.02 124.805 125.02 124.837C125.02 124.87 125.02 124.9 125.02 124.932V124.948C125.02 124.965 125.02 124.983 125.02 124.999C125.02 125.015 125.02 125.021 125.02 125.031C125.02 125.074 125.02 125.114 125.03 125.155C125.04 125.195 125.03 125.195 125.03 125.215C125.03 125.236 125.03 125.268 125.042 125.294L125.066 125.42C125.066 125.44 125.076 125.462 125.082 125.484C125.088 125.506 125.097 125.537 125.103 125.561C125.109 125.585 125.123 125.636 125.135 125.67C125.147 125.705 125.153 125.721 125.161 125.747L125.192 125.828C125.204 125.856 125.214 125.885 125.226 125.911L125.268 126C125.268 126.018 125.283 126.036 125.293 126.054C125.303 126.073 125.305 126.075 125.309 126.085L125.339 126.141L125.394 126.232L125.442 126.311C125.454 126.327 125.465 126.344 125.475 126.36L125.543 126.453L125.596 126.522C125.608 126.537 125.621 126.552 125.634 126.566C125.659 126.596 125.685 126.625 125.711 126.653L125.77 126.716L125.816 126.762L125.897 126.835C125.913 126.851 125.928 126.867 125.944 126.881L125.968 126.9L125.996 126.922L126.055 126.97L126.128 127.023L126.211 127.082L126.239 127.1L126.346 127.163L126.419 127.205H126.433L126.542 127.258L126.631 127.3H126.658L126.728 127.328L126.827 127.367H126.856L126.925 127.387L127.032 127.419L127.094 127.431L127.175 127.448L127.242 127.462L127.351 127.474H127.422C127.505 127.474 127.588 127.488 127.671 127.488H145.499C146.198 127.469 146.862 127.178 147.35 126.676C147.838 126.175 148.111 125.503 148.111 124.804C148.111 124.104 147.838 123.433 147.35 122.931C146.862 122.43 146.198 122.139 145.499 122.12H133.08L147.614 103.084L147.618 103.102Z" fill="white"/>
<path d="M164.543 98C160.541 98.0462 156.718 99.6684 153.905 102.515C151.091 105.361 149.513 109.202 149.513 113.205C149.513 117.207 151.091 121.049 153.905 123.895C156.718 126.741 160.541 128.364 164.543 128.41C168.546 128.364 172.368 126.741 175.182 123.895C177.996 121.049 179.574 117.207 179.574 113.205C179.574 109.202 177.996 105.361 175.182 102.515C172.368 99.6684 168.546 98.0462 164.543 98ZM164.543 123.041C161.935 123.038 159.435 122.001 157.591 120.156C155.747 118.312 154.709 115.812 154.706 113.204C154.709 110.596 155.746 108.096 157.59 106.252C159.434 104.408 161.934 103.37 164.541 103.367C165.845 103.348 167.139 103.588 168.349 104.074C169.559 104.56 170.66 105.282 171.588 106.197C172.517 107.112 173.254 108.203 173.757 109.406C174.261 110.608 174.52 111.899 174.52 113.203C174.52 114.507 174.261 115.797 173.757 117C173.254 118.203 172.517 119.293 171.588 120.209C170.66 121.124 169.559 121.845 168.349 122.331C167.139 122.817 165.845 123.058 164.541 123.039L164.543 123.041Z" fill="white"/>
<path d="M208.452 126.454L208.515 126.371L208.565 126.299L208.624 126.208L208.665 126.139C208.705 126.068 208.743 125.997 208.778 125.923C208.784 125.912 208.79 125.902 208.794 125.89C208.812 125.854 208.827 125.817 208.84 125.779C208.85 125.758 208.859 125.736 208.867 125.714C208.881 125.676 208.895 125.639 208.907 125.601C208.919 125.563 208.921 125.557 208.927 125.534C208.934 125.512 208.952 125.455 208.962 125.415C208.972 125.375 208.962 125.385 208.972 125.371C208.992 125.286 209.006 125.199 209.018 125.112V125.067C209.018 125.025 209.018 124.982 209.018 124.94C209.018 124.897 209.018 124.897 209.018 124.875C209.018 124.853 209.018 124.792 209.018 124.75C209.018 124.707 209.018 124.705 209.018 124.685C209.018 124.665 209.018 124.598 209.018 124.556V101.462C209.018 100.75 208.736 100.067 208.233 99.5642C207.729 99.061 207.047 98.7783 206.335 98.7783C205.623 98.7783 204.941 99.061 204.438 99.5642C203.935 100.067 203.652 100.75 203.652 101.462V117.497L188.622 99.7631C188.262 99.327 187.775 99.0154 187.228 98.8727C186.681 98.7299 186.103 98.7633 185.577 98.9681C185.05 99.1728 184.601 99.5385 184.294 100.013C183.988 100.488 183.838 101.047 183.868 101.611V124.808C183.868 125.52 184.151 126.203 184.654 126.706C185.157 127.209 185.84 127.492 186.551 127.492C187.263 127.492 187.945 127.209 188.449 126.706C188.952 126.203 189.235 125.52 189.235 124.808V108.773L204.297 126.531L204.271 126.495L204.333 126.57L204.36 126.598L204.376 126.616L204.416 126.659L204.459 126.701L204.475 126.717C204.565 126.806 204.661 126.888 204.762 126.964H204.774L204.851 127.021L204.865 127.031L204.887 127.045L204.942 127.081L205.075 127.16H205.092L205.132 127.18H205.15L205.179 127.194H205.195L205.215 127.205H205.237C205.226 127.195 205.213 127.188 205.199 127.182H205.213C205.282 127.215 205.348 127.241 205.415 127.265L205.492 127.292C205.543 127.31 205.591 127.324 205.64 127.338L205.72 127.36L205.874 127.393L205.939 127.405C206.01 127.417 206.08 127.425 206.141 127.431H206.19H206.353H206.426H206.566H206.636C206.689 127.431 206.742 127.417 206.792 127.407H206.839C206.903 127.393 206.966 127.376 207.041 127.358L207.099 127.34L207.231 127.296L207.3 127.267L207.419 127.217L207.484 127.186L207.629 127.105L207.68 127.075C207.726 127.049 207.77 127.02 207.813 126.988L207.88 126.942L207.971 126.871L208.007 126.843L208.038 126.814L208.121 126.739L208.183 126.681C208.224 126.64 208.266 126.598 208.305 126.553L208.365 126.481L208.452 126.454Z" fill="white"/>
<path d="M233.573 122.142H220.69V115.835H231.288C231.999 115.835 232.682 115.552 233.185 115.049C233.688 114.546 233.971 113.863 233.971 113.152C233.971 112.44 233.688 111.757 233.185 111.254C232.682 110.751 231.999 110.468 231.288 110.468H220.686V104.161H233.569C234.28 104.161 234.963 103.879 235.466 103.376C235.969 102.872 236.252 102.19 236.252 101.478C236.252 100.767 235.969 100.084 235.466 99.5808C234.963 99.0776 234.28 98.7949 233.569 98.7949H217.999C217.646 98.7947 217.297 98.8639 216.972 98.9986C216.646 99.1334 216.35 99.331 216.101 99.5802C215.852 99.8295 215.654 100.125 215.519 100.451C215.384 100.777 215.315 101.126 215.315 101.478V124.837C215.315 125.19 215.385 125.538 215.52 125.864C215.655 126.19 215.852 126.485 216.101 126.735C216.351 126.984 216.646 127.181 216.972 127.316C217.297 127.451 217.646 127.52 217.999 127.52H233.569C234.268 127.501 234.932 127.21 235.42 126.709C235.907 126.207 236.18 125.536 236.18 124.836C236.18 124.137 235.907 123.465 235.42 122.964C234.932 122.462 234.268 122.171 233.569 122.152L233.573 122.142Z" fill="white"/>
</svg>
