<svg width="35" height="35" viewBox="0 0 35 35" fill="none" xmlns="http://www.w3.org/2000/svg">
<g clip-path="url(#clip0_24_153)">
<path d="M17.2881 34.3877C26.6659 34.3877 34.2681 26.7855 34.2681 17.4077C34.2681 8.02994 26.6659 0.427734 17.2881 0.427734C7.91031 0.427734 0.308105 8.02994 0.308105 17.4077C0.308105 26.7855 7.91031 34.3877 17.2881 34.3877Z" fill="white"/>
<path d="M27.4333 18.7746V25.7751H23.3746V19.2437C23.3746 17.6038 22.7886 16.4838 21.3191 16.4838C20.1976 16.4838 19.5314 17.2378 19.2372 17.9679C19.1304 18.2288 19.1028 18.5911 19.1028 18.9571V25.7747H15.0438C15.0438 25.7747 15.0983 14.7128 15.0438 13.5678H19.1031V15.2976C19.0949 15.3112 19.0834 15.3246 19.0762 15.3376H19.1031V15.2976C19.6425 14.4677 20.6044 13.2811 22.7611 13.2811C25.4313 13.2811 27.4333 15.0258 27.4333 18.7746ZM10.7977 7.68359C9.40933 7.68359 8.50098 8.59498 8.50098 9.7924C8.50098 10.9644 9.383 11.9021 10.7445 11.9021H10.7708C12.1865 11.9021 13.0667 10.9644 13.0667 9.7924C13.0397 8.59498 12.1865 7.68359 10.7977 7.68359ZM8.74222 25.7751H12.7997V13.5678H8.74222V25.7751Z" fill="#007AB9"/>
</g>
<defs>
<clipPath id="clip0_24_153">
<rect width="33.96" height="33.96" fill="white" transform="translate(0.308105 0.428711)"/>
</clipPath>
</defs>
</svg>
