<svg width="301" height="61" viewBox="0 0 301 61" fill="none" xmlns="http://www.w3.org/2000/svg">
<path d="M38.8124 29.6983C38.7517 29.5386 38.6931 29.3768 38.6264 29.1908C38.5091 28.8612 38.3877 28.5195 38.2361 28.1616L38.1127 27.8704C37.9409 27.466 37.7649 27.0434 37.5749 26.6733C37.3322 26.1557 37.0714 25.6764 36.8105 25.2053C36.7094 25.0031 36.5962 24.8251 36.485 24.6411L36.2626 24.2751C36.1372 24.0729 36.0098 23.8707 35.9046 23.711C35.6013 23.2479 35.2697 22.7788 34.9199 22.3178C34.5155 21.7961 34.1839 21.3775 33.8603 21.0075C33.5368 20.6374 33.1445 20.1986 32.6714 19.7275L32.546 19.6042C32.3782 19.4404 32.2103 19.2746 32.0526 19.135C31.8504 18.9571 31.6907 18.8095 31.5168 18.6659C30.3239 17.3781 28.9997 16.2185 27.5656 15.2062C26.0582 14.1262 24.4192 13.2429 22.6884 12.5775C20.8405 11.8776 18.8793 11.5245 16.9033 11.5361C14.861 11.5679 12.8475 12.0237 10.9907 12.8747C9.21209 13.7068 7.57895 14.8197 6.15394 16.1707C4.74052 17.47 3.50633 18.9518 2.48388 20.5768C0.283565 24.1075 -0.49409 28.342 0.308137 32.4241C0.695617 34.3898 1.36653 36.2888 2.29988 38.0616C3.21083 39.7638 4.32579 41.3486 5.62011 42.7811C6.88426 44.1894 8.30948 45.4443 9.86646 46.5199C10.1758 46.7444 10.5115 46.9567 10.8512 47.1731L13.1361 48.5157L14.0663 49.1223C15.1865 49.8604 16.3897 50.74 17.7525 51.8117C18.6827 52.5235 19.6189 53.304 20.5268 54.0643C20.822 54.3089 21.1152 54.5556 21.4003 54.7902L21.4347 54.8205C23.8323 56.8541 26.4981 58.5482 29.3572 59.8555L30.1883 60.2356L31.5895 58.8465C30.8535 57.5321 29.982 56.1612 28.8476 54.5314C27.9842 53.2959 27.0075 52.0078 25.7721 50.4731C24.8864 49.4074 23.6974 48.0102 22.3891 46.6817C21.9847 46.2368 21.5419 45.8264 21.1051 45.4118C20.915 45.2298 20.7229 45.0499 20.5228 44.8537L20.0051 44.3907C19.5178 43.958 19.0143 43.5091 18.4603 43.0784L17.4128 42.2695L16.2724 41.4769L15.2896 40.8157L15.0045 40.6135C14.8448 40.5002 14.6851 40.387 14.497 40.2374C13.4007 39.3902 12.3743 38.4564 11.4275 37.4449C10.5004 36.4583 9.66835 35.3866 8.94237 34.2439C8.26137 33.1854 7.73759 32.0336 7.3874 30.8246C7.0615 29.6903 6.96662 28.5021 7.10836 27.3305C7.26498 26.1374 7.64429 24.9844 8.22656 23.9314C8.87787 22.7663 9.68165 21.6932 10.6166 20.7406C11.5125 19.7938 12.5476 18.9892 13.6861 18.3545C14.7594 17.7731 15.9416 17.4205 17.158 17.3192C18.4419 17.2351 19.7302 17.3866 20.9595 17.7661C22.2998 18.1722 23.5823 18.7492 24.7752 19.4828C26.0243 20.2326 27.1895 21.1138 28.2511 22.1115L28.4917 22.3137L28.5403 22.3522C28.6919 22.4533 28.8638 22.5827 29.0417 22.7242C29.1691 22.8213 29.2925 22.9264 29.432 23.0437L29.5392 23.1327C29.9436 23.4784 30.2712 23.7919 30.5724 24.0932C30.8737 24.3944 31.1508 24.6876 31.5309 25.1042C31.8524 25.4702 32.1517 25.8342 32.459 26.2325C32.5399 26.3316 32.6147 26.4347 32.7118 26.5682L33.0252 26.9948C33.1 27.0979 33.1789 27.197 33.2719 27.3487C33.5328 27.7369 33.8017 28.1373 34.0342 28.5437L34.0625 28.5882C34.2425 28.8753 34.4083 29.1948 34.5883 29.5305L34.744 29.8257C34.8795 30.0825 35.0028 30.3515 35.1342 30.6345C35.2151 30.8084 35.294 30.9803 35.3769 31.1542L36.03 32.5211L39.3887 31.2351L38.8124 29.6983Z" fill="black"/>
<path d="M28.4514 56.8082C28.1818 56.4119 27.9122 56.0176 27.6426 55.6253C26.6983 54.2725 25.6913 52.9663 24.654 51.6762C23.6166 50.3861 22.5065 49.1486 21.3317 47.9556C20.7615 47.349 20.1326 46.7808 19.53 46.1924C18.8931 45.6322 18.2764 45.056 17.5929 44.5262L16.5819 43.7275L15.498 42.9773L15.0026 42.6335L14.4931 42.2999C14.2059 42.0977 13.939 41.9116 13.6438 41.6751C12.4795 40.776 11.3895 39.7847 10.3842 38.7107C9.38388 37.6516 8.48548 36.5007 7.70093 35.2732C6.93274 34.0776 6.34092 32.7775 5.94375 31.4131C5.564 30.075 5.45538 28.6747 5.62426 27.2941C5.80673 25.8931 6.24977 24.5386 6.93052 23.3005C7.65504 22.0087 8.54783 20.8188 9.5855 19.7619C10.599 18.6893 11.7697 17.777 13.0574 17.0564C14.3308 16.3711 15.7328 15.958 17.1743 15.8431C18.6569 15.7429 20.1453 15.9142 21.5663 16.3486C23.0425 16.7932 24.4559 17.4244 25.7722 18.2271C27.1118 19.0292 28.3624 19.9714 29.5029 21.0378L29.5838 21.1167L29.6121 21.1369C29.788 21.2562 29.9983 21.4099 30.1884 21.5636C30.3784 21.7172 30.5746 21.877 30.7667 22.0387C31.1428 22.3663 31.5148 22.708 31.8707 23.0659C32.2266 23.4239 32.5744 23.7919 32.9101 24.17C32.9546 24.2205 32.995 24.2751 33.0395 24.3257C25.6428 30.4748 21.5784 39.2182 28.4514 56.8082Z" fill="#CE0000"/>
<path d="M28.2976 58.3551L26.2756 56.8507C25.0623 55.7851 23.8349 54.7235 22.6075 53.6862C21.3801 52.6488 20.1568 51.6216 18.8991 50.6531C17.6413 49.6845 16.3957 48.7361 15.1158 47.895L14.1593 47.2762L13.1908 46.7161L12.1373 46.0994C11.7531 45.8506 11.3284 45.5918 10.9827 45.3391C9.518 44.327 8.17639 43.1476 6.98502 41.8247C5.78365 40.4913 4.74822 39.0172 3.90136 37.4348C3.04748 35.8121 2.43443 34.0738 2.0815 32.2745C1.35832 28.5966 2.05865 24.7813 4.04089 21.6C4.9806 20.0991 6.11698 18.7309 7.41976 17.5316C8.7157 16.3044 10.1998 15.2926 11.8157 14.5349C13.4664 13.7766 15.2569 13.3703 17.0731 13.3418C18.8464 13.3293 20.6066 13.6468 22.2638 14.2781C23.8633 14.8918 25.3779 15.7073 26.771 16.7045C28.1535 17.6809 29.4267 18.8036 30.5684 20.0531L30.4572 19.956C30.6958 20.1461 30.8899 20.316 31.0921 20.502C31.2943 20.688 31.4844 20.872 31.6765 21.0601C32.0526 21.4402 32.4186 21.8285 32.7644 22.2329C33.1102 22.6373 33.4438 23.0417 33.7754 23.4704C34.107 23.8991 34.4023 24.3257 34.6914 24.7685C34.8451 24.9849 34.9765 25.2134 35.114 25.4399C35.2515 25.6663 35.3931 25.8868 35.5184 26.1213C35.7732 26.5823 36.026 27.0454 36.2484 27.5226C36.4708 27.9998 36.6832 28.4811 36.8894 28.9623C37.0957 29.4436 37.2534 29.9471 37.4374 30.4344L37.0087 30.6042C36.7863 30.1392 36.5881 29.666 36.3475 29.2131C36.1069 28.7601 35.8763 28.3051 35.6054 27.8704C35.3344 27.4357 35.0675 27.0029 34.7824 26.5803C34.6469 26.366 34.4872 26.1759 34.3396 25.9575C34.192 25.7391 34.0443 25.5531 33.8826 25.3509C33.5732 24.9465 33.2497 24.5562 32.914 24.1761C32.5784 23.7959 32.2346 23.4259 31.8747 23.072C31.5147 22.7182 31.1467 22.3724 30.7706 22.0448C30.5785 21.8831 30.3884 21.7193 30.1923 21.5696C29.9962 21.42 29.7879 21.2623 29.616 21.143L29.5877 21.1228L29.5068 21.0439C28.3663 19.9775 27.1157 19.0353 25.7761 18.2332C24.4598 17.4305 23.0464 16.7992 21.5702 16.3547C20.1483 15.9179 18.6585 15.7445 17.1742 15.8431C15.7327 15.958 14.3307 16.3711 13.0573 17.0564C11.7703 17.774 10.5996 18.6828 9.5854 19.7518C8.54726 20.8083 7.65442 21.9983 6.93042 23.2904C6.24967 24.5285 5.80663 25.883 5.62417 27.284C5.45392 28.6679 5.56255 30.0718 5.94365 31.4131C6.33739 32.7755 6.9251 34.0741 7.6887 35.2692C8.47325 36.4967 9.37165 37.6476 10.372 38.7067C11.3772 39.7806 12.4673 40.772 13.6316 41.671C13.9268 41.9076 14.1937 42.0856 14.4808 42.2958L14.9904 42.6295L15.4858 42.9732L16.5696 43.7234L17.5807 44.5221C18.2641 45.0519 18.8809 45.6282 19.5178 46.1883C20.1244 46.7768 20.7492 47.3409 21.3195 47.9516C22.4943 49.1446 23.5822 50.3983 24.6417 51.6722C25.7013 52.9461 26.686 54.2685 27.6303 55.6213C28.5747 56.974 29.4785 58.3511 30.2873 59.7969L28.2976 58.3551Z" fill="#E30613"/>
<path d="M29.612 59.625C17.7586 32.2826 30.5866 24.9182 43.6553 17.4183C50.8275 13.3014 58.0767 9.13998 60.8085 1.39747C60.9002 1.15497 61.0763 0.953653 61.3044 0.830442C61.5325 0.70723 61.7974 0.67038 62.0505 0.726649C62.3036 0.782918 62.5279 0.928534 62.6823 1.1368C62.8367 1.34506 62.9109 1.60201 62.8912 1.86053C62.8427 2.87156 61.9307 17.4952 49.9399 25.8241C49.8954 27.4822 49.2261 31.9348 43.8575 36.628C43.8999 42.5668 40.8082 45.3451 37.6416 48.1902C34.7117 50.8189 31.7069 53.5183 31.6866 59.2408C31.688 59.4932 31.6005 59.7381 31.4396 59.9326C31.2786 60.1271 31.0543 60.2587 30.8061 60.3045C30.5578 60.3503 30.3013 60.3073 30.0816 60.1831C29.8618 60.0589 29.6927 59.8613 29.6039 59.625H29.612Z" fill="#161616"/>
<path d="M29.612 59.625C17.7586 32.2826 30.5866 24.9182 43.6553 17.4183C50.8275 13.3014 58.0767 9.13998 60.8085 1.39747C60.9002 1.15497 61.0763 0.953653 61.3044 0.830442C61.5325 0.70723 61.7974 0.67038 62.0505 0.726649C62.3036 0.782918 62.5279 0.928534 62.6823 1.1368C62.8367 1.34506 62.9109 1.60201 62.8912 1.86053C62.8427 2.87156 61.9307 17.4952 49.9399 25.8241C49.8954 27.4822 49.2261 31.9348 43.8575 36.628C43.8999 42.5668 40.8082 45.3451 37.6416 48.1902C34.7117 50.8189 31.7069 53.5183 31.6866 59.2408C31.688 59.4932 31.6005 59.7381 31.4396 59.9326C31.2786 60.1271 31.0543 60.2587 30.8061 60.3045C30.5578 60.3503 30.3013 60.3073 30.0816 60.1831C29.8618 60.0589 29.6927 59.8613 29.6039 59.625H29.612Z" fill="#161616"/>
<path d="M41.5865 38.4438C41.2023 38.7127 40.804 38.9837 40.3976 39.2526C38.0297 40.8581 35.3646 42.6679 34.2747 45.2137C34.1558 45.4665 33.9435 45.6634 33.6824 45.763C33.4213 45.8626 33.1318 45.8571 32.8747 45.7477C32.6176 45.6382 32.4129 45.4334 32.3037 45.1762C32.1945 44.919 32.1893 44.6295 32.2891 44.3685C33.6297 41.2444 36.5738 39.2466 39.1884 37.4712C40.137 36.8569 41.0504 36.19 41.9242 35.4734C41.9711 35.4117 42.0246 35.3554 42.084 35.3055C45.8693 32.1268 47.1654 29.1908 47.5941 27.3507C46.4638 28.014 45.2768 28.6206 44.0737 29.2353C40.4845 31.0673 36.7538 32.9721 34.39 36.6441C34.3135 36.7636 34.2143 36.8669 34.0979 36.948C33.9815 37.0292 33.8503 37.0866 33.7117 37.117C33.5731 37.1474 33.4299 37.1502 33.2903 37.1253C33.1506 37.1004 33.0172 37.0482 32.8977 36.9717C32.7782 36.8953 32.675 36.796 32.5938 36.6796C32.5127 36.5632 32.4553 36.432 32.4249 36.2934C32.3944 36.1549 32.3916 36.0116 32.4165 35.872C32.4415 35.7323 32.4937 35.5989 32.5701 35.4794C35.2534 31.312 39.243 29.2717 43.0849 27.3103C44.8866 26.3902 46.6538 25.4904 48.1886 24.3924L48.2493 24.35C55.1607 19.768 58.2545 12.9354 59.6335 7.97121C55.8785 12.8666 50.2754 16.0837 44.7147 19.2766C33.1222 25.9535 21.7197 32.503 30.081 55.0328C31.1628 51.1121 33.7086 48.8271 36.2058 46.5846C38.6424 44.3968 41.0264 42.2534 41.5865 38.4438Z" fill="#E30613"/>
<path fill-rule="evenodd" clip-rule="evenodd" d="M48.9147 20.5323C40.3371 25.8018 33.4621 30.5193 32.5764 35.4956C35.2597 31.3281 39.2492 29.2879 43.0912 27.3265C44.8928 26.4064 46.6601 25.5066 48.1949 24.4086L48.2555 24.3662C55.167 19.7842 58.2607 12.9516 59.6398 7.9874C59.6254 8.00781 59.6099 8.02739 59.5933 8.04604C59.5933 8.04604 57.4883 15.2648 48.9087 20.5323" fill="#CE0000"/>
<path fill-rule="evenodd" clip-rule="evenodd" d="M47.5942 27.3568C47.5942 27.3568 45.3356 31.1987 41.4856 33.3664C37.6355 35.534 32.8897 39.1717 32.2892 44.3745C33.6298 41.2504 36.5739 39.2526 39.1885 37.4772C40.1371 36.863 41.0505 36.196 41.9243 35.4794C41.9712 35.4177 42.0248 35.3614 42.0841 35.3116C45.8694 32.1329 47.1655 29.1969 47.5942 27.3568Z" fill="#CE0000"/>
<path fill-rule="evenodd" clip-rule="evenodd" d="M41.5866 38.4438C41.5866 38.4438 38.9175 42.7569 35.4052 45.4584C31.8928 48.1599 29.5533 51.0272 30.0811 55.0329C31.1629 51.1121 33.7087 48.8271 36.2059 46.5847C38.6425 44.3968 41.0265 42.2534 41.5866 38.4438Z" fill="#CE0000"/>
<path fill-rule="evenodd" clip-rule="evenodd" d="M42.0314 20.8518C31.4661 27.0697 22.3709 34.2561 30.081 55.0248C26.3847 41.5558 28.9001 29.7226 42.0314 20.8518Z" fill="#CE0000"/>
<path d="M79.557 21.1288C81.9982 21.1207 84.3466 22.0635 86.1044 23.7575C86.3584 24.0018 86.658 24.1937 86.9862 24.3222C87.3143 24.4507 87.6646 24.5133 88.0169 24.5065C88.3693 24.4996 88.7168 24.4234 89.0397 24.2822C89.3626 24.1411 89.6545 23.9377 89.8988 23.6837C90.1431 23.4297 90.335 23.1301 90.4635 22.8019C90.592 22.4738 90.6546 22.1236 90.6478 21.7712C90.6409 21.4189 90.5647 21.0713 90.4236 20.7484C90.2824 20.4255 90.079 20.1336 89.825 19.8893C87.7375 17.8811 85.1068 16.5291 82.2587 16.0009C79.4106 15.4726 76.4701 15.7911 73.8012 16.9171C71.1323 18.0431 68.8522 19.927 67.2431 22.3357C65.6341 24.7444 64.7667 27.5721 64.7485 30.4687C64.7302 33.3653 65.5618 36.2037 67.1403 38.6325C68.7188 41.0613 70.975 42.9739 73.6295 44.1334C76.284 45.293 79.2202 45.6486 82.0748 45.1563C84.9293 44.664 87.5768 43.3454 89.6895 41.3637C91.4629 39.6995 90.2719 36.723 87.8535 36.723C87.1713 36.722 86.5145 36.9817 86.0175 37.4489C84.674 38.7085 82.9915 39.5477 81.1772 39.8632C79.3628 40.1788 77.4958 39.957 75.806 39.2251C74.1161 38.4932 72.6771 37.2831 71.6661 35.7439C70.6551 34.2046 70.1163 32.4033 70.1159 30.5618C70.1156 31.0964 69.9557 31.6188 69.6569 32.0621C69.9557 31.6188 70.1156 31.0964 70.1159 30.5618C70.1207 28.0601 71.1172 25.6623 72.8869 23.8941C74.6567 22.1259 77.0553 21.1315 79.557 21.1288Z" fill="#E20016"/>
<path d="M119.056 33.3078C118.977 32.9249 118.815 32.5638 118.582 32.2496C118.349 31.9354 118.051 31.6755 117.707 31.4879C118.132 31.719 118.485 32.0606 118.731 32.4763C118.977 32.8921 119.106 33.3666 119.105 33.8497V18.7772C119.105 18.0653 118.822 17.3826 118.319 16.8791C117.816 16.3755 117.133 16.0924 116.421 16.0919C115.71 16.0924 115.027 16.3755 114.524 16.8791C114.021 17.3826 113.738 18.0653 113.738 18.7772V33.8497C113.739 33.3667 113.87 32.8929 114.117 32.4777C114.364 32.0626 114.718 31.7214 115.141 31.4899C114.716 31.7201 114.362 32.061 114.115 32.4764C113.868 32.8918 113.737 33.3663 113.738 33.8497C113.738 37.1578 110.224 39.8855 106.61 39.8855C102.833 39.8855 99.519 37.0547 99.519 33.8497V18.7772C99.519 18.0664 99.2371 17.3846 98.7353 16.8812C98.2335 16.3779 97.5525 16.094 96.8417 16.0919C96.1299 16.0924 95.4474 16.3755 94.9442 16.8791C94.4411 17.3826 94.1584 18.0653 94.1584 18.7772V33.8497C94.1584 40.0311 99.8627 45.2521 106.616 45.2521C113.37 45.2521 119.105 40.0311 119.105 33.8497C119.107 33.6679 119.091 33.4863 119.056 33.3078Z" fill="#E20016"/>
<path d="M136.106 16.0878H126.477C126.125 16.0875 125.776 16.1568 125.45 16.2915C125.124 16.4263 124.828 16.6239 124.579 16.8731C124.33 17.1223 124.132 17.4183 123.997 17.7439C123.863 18.0696 123.793 18.4186 123.794 18.7711V42.1179C123.784 42.4766 123.846 42.8336 123.977 43.1679C124.107 43.5022 124.303 43.807 124.553 44.0641C124.804 44.3213 125.103 44.5258 125.433 44.6654C125.764 44.805 126.119 44.8769 126.478 44.8769C126.837 44.8769 127.192 44.805 127.523 44.6654C127.853 44.5258 128.152 44.3213 128.403 44.0641C128.653 43.807 128.849 43.5022 128.98 43.1679C129.11 42.8336 129.172 42.4766 129.162 42.1179V36.4561H136.106C138.781 36.4184 141.334 35.3293 143.212 33.4242C145.091 31.5192 146.144 28.9513 146.144 26.276C146.144 23.6006 145.091 21.0328 143.212 19.1278C141.334 17.2227 138.781 16.1336 136.106 16.0959V16.0878ZM136.106 31.0794H129.162V21.4544H136.106C137.382 21.4544 138.607 21.9614 139.509 22.8639C140.412 23.7665 140.919 24.9905 140.919 26.2669C140.919 27.5433 140.412 28.7673 139.509 29.6699C138.607 30.5724 137.382 31.0794 136.106 31.0794Z" fill="#E20016"/>
<path d="M152.77 16.0878C152.059 16.0878 151.376 16.3705 150.873 16.8737C150.37 17.3769 150.087 18.0594 150.087 18.7711V42.13C150.106 42.8292 150.397 43.4933 150.899 43.981C151.4 44.4688 152.072 44.7417 152.771 44.7417C153.471 44.7417 154.142 44.4688 154.644 43.981C155.145 43.4933 155.436 42.8292 155.456 42.13V18.7711C155.455 18.0592 155.172 17.3767 154.668 16.8736C154.165 16.3704 153.482 16.0878 152.77 16.0878Z" fill="#E20016"/>
<path d="M175.09 16.0878H164.437C164.085 16.0875 163.736 16.1568 163.41 16.2915C163.085 16.4263 162.789 16.6239 162.539 16.8731C162.29 17.1223 162.093 17.4183 161.958 17.7439C161.823 18.0696 161.754 18.4186 161.754 18.7711V42.13C161.754 42.4824 161.824 42.8313 161.958 43.1569C162.093 43.4824 162.291 43.7782 162.54 44.0274C162.789 44.2766 163.085 44.4742 163.411 44.6091C163.736 44.7439 164.085 44.8133 164.437 44.8133H175.082C182.723 44.7243 188.466 38.5833 188.466 30.4566C188.466 22.3299 182.727 16.1808 175.09 16.0878ZM174.914 39.4346H167.123V21.4544H174.914C179.658 21.4544 183.099 25.2356 183.099 30.4425C183.097 35.6594 179.656 39.4346 174.914 39.4346Z" fill="#E20016"/>
<path d="M212.367 20.3948L212.417 20.322L212.47 20.2492L212.502 20.1967C212.516 20.1744 212.528 20.1522 212.541 20.1299L212.583 20.0612L212.601 20.0288L212.625 19.9763L212.66 19.9095C212.66 19.8853 212.68 19.863 212.692 19.8388L212.719 19.77L212.745 19.7093C212.744 19.7026 212.744 19.6958 212.745 19.6891V19.677L212.763 19.6183C212.763 19.588 212.781 19.5577 212.791 19.5274C212.801 19.497 212.807 19.4788 212.814 19.4546L212.826 19.3979C212.826 19.3979 212.826 19.3838 212.826 19.3757C212.826 19.3676 212.84 19.315 212.846 19.2827C212.851 19.26 212.855 19.237 212.858 19.2139C212.858 19.1836 212.858 19.1512 212.872 19.1189C212.872 19.0926 212.872 19.0643 212.872 19.036C212.872 19.0077 212.872 18.9955 212.872 18.9753C212.872 18.9551 212.872 18.9046 212.872 18.8682C212.872 18.8318 212.872 18.8136 212.872 18.7853C212.872 18.7549 212.872 18.7266 212.872 18.6963V18.6599C212.872 18.6356 212.872 18.6134 212.872 18.5891C212.872 18.5648 212.872 18.5062 212.86 18.4658C212.848 18.4253 212.86 18.4253 212.86 18.4031C212.86 18.3808 212.86 18.3505 212.846 18.3222C212.832 18.2939 212.832 18.2413 212.824 18.2029C212.816 18.1645 212.824 18.1604 212.807 18.1382C212.791 18.1159 212.793 18.0836 212.787 18.0573C212.781 18.031 212.767 17.9845 212.755 17.9501C212.747 17.9261 212.739 17.9025 212.729 17.8794L212.698 17.7944L212.664 17.7095C212.652 17.6812 212.638 17.6549 212.623 17.6266C212.609 17.5983 212.609 17.5882 212.599 17.57L212.581 17.5397L212.551 17.481C212.532 17.4507 212.514 17.4224 212.498 17.392C212.482 17.3617 212.466 17.3395 212.448 17.3132C212.437 17.2956 212.426 17.2787 212.413 17.2626C212.393 17.2316 212.371 17.2013 212.346 17.1716C212.328 17.1474 212.312 17.1231 212.292 17.1009L212.255 17.0544L212.179 16.9694C212.158 16.9492 212.14 16.9249 212.118 16.9047C212.103 16.8889 212.088 16.874 212.071 16.8602L211.995 16.7874C211.976 16.7713 211.96 16.7531 211.94 16.7369L211.92 16.7207L211.898 16.7025L211.835 16.652L211.75 16.5933L211.687 16.5488L211.629 16.5104L211.572 16.476L211.487 16.4275L211.465 16.4154L211.406 16.3871L211.35 16.3588L211.275 16.3244L211.208 16.2981L211.127 16.2637L211.06 16.2415L210.967 16.2132L210.895 16.1909L210.824 16.1748L210.731 16.1525L210.662 16.1404C210.63 16.1404 210.595 16.1404 210.563 16.1283L210.482 16.1161H210.419H210.31H210.223H192.403C191.691 16.1161 191.009 16.3988 190.505 16.902C190.002 17.4053 189.719 18.0878 189.719 18.7994C189.719 19.5111 190.002 20.1936 190.505 20.6968C191.009 21.2 191.691 21.4827 192.403 21.4827H204.804L190.269 40.5185C190.253 40.5387 190.241 40.5609 190.225 40.5811L190.158 40.6762C190.149 40.6938 190.138 40.7106 190.126 40.7267C190.112 40.749 190.1 40.7732 190.085 40.7975L190.033 40.8885C190.022 40.9074 190.013 40.927 190.005 40.9471C189.988 40.9775 189.976 41.0058 189.962 41.0361C189.95 41.0589 189.939 41.0826 189.93 41.1069C189.92 41.1293 189.911 41.1523 189.903 41.1756C189.891 41.206 189.879 41.2363 189.869 41.2686C189.86 41.2884 189.853 41.3087 189.847 41.3293V41.3495C189.847 41.3718 189.847 41.392 189.831 41.4142C189.815 41.4365 189.817 41.4628 189.81 41.487C189.804 41.5113 189.798 41.5356 189.794 41.5618C189.79 41.5881 189.794 41.6104 189.78 41.6346L189.768 41.6933V41.7236C189.768 41.7519 189.768 41.7822 189.768 41.8106C189.768 41.8389 189.768 41.8591 189.768 41.8834V41.9481C189.768 41.9764 189.768 42.0047 189.768 42.033C189.768 42.0613 189.768 42.0977 189.768 42.13C189.768 42.1624 189.768 42.1927 189.768 42.2251V42.2413C189.768 42.2574 189.768 42.2756 189.768 42.2918C189.768 42.308 189.768 42.3141 189.768 42.3242C189.768 42.3666 189.768 42.4071 189.778 42.4475C189.788 42.488 189.778 42.4879 189.778 42.5082C189.778 42.5284 189.778 42.5607 189.79 42.587L189.815 42.7124C189.815 42.7326 189.825 42.7549 189.831 42.7771C189.837 42.7994 189.845 42.8297 189.851 42.8539C189.857 42.8782 189.871 42.9288 189.883 42.9631C189.895 42.9975 189.901 43.0137 189.91 43.04L189.94 43.1209C189.952 43.1492 189.962 43.1775 189.974 43.2038L190.017 43.2927C190.017 43.3109 190.031 43.3291 190.041 43.3473C190.051 43.3655 190.053 43.3676 190.057 43.3777L190.088 43.4343L190.142 43.5253L190.191 43.6041C190.203 43.6203 190.213 43.6365 190.223 43.6527L190.292 43.7457L190.344 43.8144C190.356 43.8302 190.369 43.845 190.383 43.8589C190.407 43.8892 190.433 43.9176 190.46 43.9459L190.518 44.0085L190.565 44.0551L190.646 44.1278C190.662 44.144 190.676 44.1602 190.692 44.1744L190.716 44.1926L190.745 44.2148L190.803 44.2633L190.876 44.3159L190.959 44.3745L190.987 44.3927L191.094 44.4554L191.167 44.4979H191.181L191.291 44.5505L191.38 44.5929H191.406L191.477 44.6212L191.576 44.6597H191.604L191.673 44.6799L191.78 44.7122L191.843 44.7244L191.924 44.7405L191.99 44.7547L192.099 44.7668H192.17C192.253 44.7668 192.336 44.781 192.419 44.781H210.248C210.947 44.7618 211.611 44.4706 212.099 43.9693C212.586 43.4679 212.859 42.7961 212.859 42.0967C212.859 41.3973 212.586 40.7254 212.099 40.2241C211.611 39.7228 210.947 39.4316 210.248 39.4124H197.828L212.363 20.3766L212.367 20.3948Z" fill="black"/>
<path d="M229.292 15.2931C225.289 15.3393 221.467 16.9616 218.653 19.808C215.839 22.6545 214.261 26.4956 214.261 30.4981C214.261 34.5006 215.839 38.3417 218.653 41.1882C221.467 44.0346 225.289 45.6569 229.292 45.703C233.294 45.6569 237.116 44.0346 239.93 41.1882C242.744 38.3417 244.322 34.5006 244.322 30.4981C244.322 26.4956 242.744 22.6545 239.93 19.808C237.116 16.9616 233.294 15.3393 229.292 15.2931ZM229.292 40.3344C226.684 40.3312 224.183 39.2938 222.339 37.4496C220.495 35.6054 219.457 33.1051 219.454 30.4971C219.457 27.8894 220.495 25.3894 222.338 23.5453C224.182 21.7012 226.682 20.6635 229.29 20.6597C230.593 20.641 231.887 20.8816 233.097 21.3676C234.307 21.8535 235.408 22.5751 236.337 23.4903C237.265 24.4056 238.002 25.4962 238.506 26.6989C239.009 27.9016 239.268 29.1923 239.268 30.4961C239.268 31.7998 239.009 33.0905 238.506 34.2932C238.002 35.4959 237.265 36.5866 236.337 37.5018C235.408 38.4171 234.307 39.1386 233.097 39.6246C231.887 40.1105 230.593 40.3511 229.29 40.3324L229.292 40.3344Z" fill="black"/>
<path d="M273.201 43.7477L273.263 43.6648L273.314 43.592L273.372 43.501L273.413 43.4322C273.453 43.3615 273.492 43.2907 273.526 43.2159C273.533 43.2057 273.538 43.1949 273.542 43.1835C273.56 43.1474 273.575 43.1102 273.589 43.0723C273.599 43.0513 273.608 43.0297 273.615 43.0076C273.629 42.9692 273.643 42.9328 273.655 42.8944C273.668 42.856 273.67 42.8499 273.676 42.8277C273.682 42.8054 273.7 42.7488 273.71 42.7083C273.72 42.6679 273.71 42.678 273.72 42.6639C273.74 42.5789 273.755 42.492 273.767 42.405V42.3606C273.767 42.3181 273.767 42.2756 273.767 42.2332C273.767 42.1907 273.767 42.1907 273.767 42.1685C273.767 42.1462 273.767 42.0856 273.767 42.0431C273.767 42.0006 273.767 41.9986 273.767 41.9784C273.767 41.9582 273.767 41.8914 273.767 41.849V18.7549C273.767 18.0433 273.484 17.3608 272.981 16.8575C272.478 16.3543 271.795 16.0716 271.083 16.0716C270.372 16.0716 269.689 16.3543 269.186 16.8575C268.683 17.3608 268.4 18.0433 268.4 18.7549V34.7899L253.37 17.0564C253.011 16.6203 252.523 16.3087 251.976 16.166C251.429 16.0232 250.852 16.0566 250.325 16.2614C249.798 16.4661 249.349 16.8318 249.043 17.3064C248.736 17.781 248.587 18.3402 248.616 18.9045V42.1017C248.616 42.8134 248.899 43.4959 249.402 43.9991C249.905 44.5023 250.588 44.785 251.3 44.785C252.011 44.785 252.694 44.5023 253.197 43.9991C253.7 43.4959 253.983 42.8134 253.983 42.1017V26.0667L269.045 43.8245L269.019 43.7881L269.082 43.8629L269.108 43.8913L269.124 43.9095L269.164 43.9519L269.207 43.9944L269.223 44.0106C269.313 44.0993 269.409 44.1817 269.51 44.2573H269.522L269.599 44.3139L269.613 44.324L269.636 44.3381L269.69 44.3745L269.824 44.4534H269.84L269.88 44.4736H269.899L269.927 44.4878H269.943L269.963 44.4979H269.985C269.974 44.4884 269.961 44.4809 269.947 44.4756H269.961C270.03 44.508 270.097 44.5343 270.163 44.5585L270.24 44.5848C270.291 44.603 270.339 44.6172 270.388 44.6313L270.469 44.6536L270.622 44.6859L270.687 44.6981C270.758 44.7102 270.829 44.7183 270.889 44.7244H270.938H271.102H271.174H271.314H271.385C271.437 44.7244 271.49 44.7102 271.54 44.7001H271.587C271.652 44.6859 271.714 44.6698 271.789 44.6516L271.848 44.6334L271.979 44.5889L272.048 44.5606L272.167 44.51L272.232 44.4797L272.378 44.3988L272.428 44.3685C272.474 44.3418 272.519 44.3128 272.562 44.2815L272.628 44.235L272.719 44.1642L272.756 44.1359L272.786 44.1076L272.869 44.0328L272.932 43.9742C272.972 43.9337 273.015 43.8913 273.053 43.8468L273.114 43.774L273.201 43.7477Z" fill="black"/>
<path d="M298.321 39.4346H285.438V33.1278H296.036C296.748 33.1278 297.43 32.8451 297.933 32.3419C298.437 31.8386 298.719 31.1561 298.719 30.4445C298.719 29.7328 298.437 29.0503 297.933 28.5471C297.43 28.0439 296.748 27.7612 296.036 27.7612H285.434V21.4544H298.317C299.029 21.4544 299.711 21.1717 300.214 20.6685C300.718 20.1652 301 19.4827 301 18.7711C301 18.0594 300.718 17.3769 300.214 16.8737C299.711 16.3705 299.029 16.0878 298.317 16.0878H282.747C282.395 16.0875 282.046 16.1568 281.72 16.2915C281.394 16.4263 281.098 16.6239 280.849 16.8731C280.6 17.1223 280.402 17.4183 280.267 17.7439C280.133 18.0696 280.063 18.4186 280.064 18.7711V42.13C280.064 42.4824 280.133 42.8313 280.268 43.1569C280.403 43.4824 280.6 43.7782 280.85 44.0274C281.099 44.2766 281.395 44.4742 281.72 44.6091C282.046 44.7439 282.395 44.8133 282.747 44.8133H298.317C299.016 44.7941 299.68 44.5029 300.168 44.0016C300.656 43.5003 300.929 42.8284 300.929 42.129C300.929 41.4296 300.656 40.7578 300.168 40.2565C299.68 39.7551 299.016 39.4639 298.317 39.4447L298.321 39.4346Z" fill="black"/>
</svg>
