<svg width="849" height="1162" viewBox="0 0 849 1162" fill="none" xmlns="http://www.w3.org/2000/svg">
<mask id="mask0_36_507" style="mask-type:alpha" maskUnits="userSpaceOnUse" x="0" y="195" width="849" height="967">
<rect y="195" width="849" height="967" fill="#C4C4C4"/>
</mask>
<g mask="url(#mask0_36_507)">
<path d="M424.079 1141C647.754 1141 829.079 959.675 829.079 736C829.079 512.325 647.754 331 424.079 331C200.404 331 19.0791 512.325 19.0791 736C19.0791 959.675 200.404 1141 424.079 1141Z" fill="black"/>
</g>
<mask id="mask1_36_507" style="mask-type:alpha" maskUnits="userSpaceOnUse" x="17" y="0" width="815" height="1141">
<path d="M421.942 1140.71C645.585 1140.71 826.884 959.416 826.884 735.773C826.884 512.129 878.365 0 654.722 0C431.079 0 17 512.129 17 735.773C17 959.416 198.299 1140.71 421.942 1140.71Z" fill="url(#paint0_linear_36_507)"/>
</mask>
<g mask="url(#mask1_36_507)">
<path d="M304.584 276.487C307.922 262.638 313.345 247.831 330.289 233.365C341.266 224.18 355.425 219.702 369.687 220.906C365.549 220.512 362.205 222.217 361.53 225.443C337.319 223.135 312.538 245.91 306.223 276.278C305.161 276.173 304.636 276.278 304.584 276.494V276.487Z" fill="#292A2A"/>
<path d="M363.104 222.663C362.113 223.148 360.297 222.112 359.982 223.621C359.89 224.04 360.277 224.171 361.818 224.499C361.694 224.802 361.597 225.116 361.53 225.437C337.319 223.129 312.538 245.903 306.223 276.271C305.161 276.166 304.636 276.271 304.584 276.488C305.296 273.293 306.172 270.137 307.207 267.032C316.388 240.277 339.903 218.506 369.714 220.899C366.999 220.643 364.625 221.28 363.156 222.663H363.104Z" fill="#292A2A"/>
<path d="M364.113 221.922C363.962 221.949 363.808 221.962 363.654 221.962C358.677 222.447 354.671 223.929 354.585 224.244C354.546 224.388 354.703 224.598 354.828 224.676C357.005 226.047 359.353 224.906 361.608 225.122C337.346 223.155 312.538 245.903 306.223 276.271C305.161 276.166 304.636 276.271 304.584 276.488C305.296 273.293 306.172 270.137 307.207 267.032C316.388 240.231 339.942 218.506 369.714 220.899C367.794 220.644 365.843 221.002 364.14 221.922H364.113Z" fill="#282828"/>
<path d="M365.281 221.371C351.648 224.198 339.877 226.618 327.109 238.5C311.463 253.025 307.476 270.514 306.171 276.265C305.148 276.173 304.636 276.265 304.584 276.488C305.296 273.293 306.172 270.137 307.207 267.032C316.322 240.395 339.844 218.506 369.714 220.899C368.228 220.73 366.723 220.891 365.307 221.371H365.281Z" fill="#262727"/>
<path d="M366.776 220.985C321.109 224.919 308.735 264.264 306.033 276.252C305.102 276.179 304.63 276.252 304.584 276.488C306.118 270.12 306.118 270.12 307.207 267.032C316.388 240.231 339.942 218.506 369.714 220.899C368.743 220.801 367.765 220.83 366.802 220.985H366.776Z" fill="#252626"/>
<path d="M368.71 220.84C344.598 219.529 314.381 238.46 305.889 276.245C305.05 276.193 304.63 276.278 304.578 276.488C305.29 273.293 306.165 270.137 307.201 267.032C316.381 240.231 339.936 218.506 369.707 220.899C369.373 220.867 369.051 220.847 368.73 220.84H368.71Z" fill="#242525"/>
<path d="M364.546 220.664C341.995 220.985 313.712 240.573 305.738 276.233C304.997 276.233 304.623 276.292 304.584 276.488C305.296 273.293 306.171 270.137 307.207 267.032C316.02 241.281 338.303 220.415 365.287 220.664H364.546Z" fill="#232323"/>
<path d="M356.92 221.261C337.391 224.349 312.984 242.9 305.568 276.232C304.912 276.232 304.623 276.311 304.584 276.488C305.296 273.293 306.172 270.137 307.207 267.032C314.906 244.468 333.188 224.972 357.169 221.221L356.92 221.261Z" fill="#212222"/>
<path d="M346.979 223.844C341.51 225.923 313.81 238.271 305.371 276.259C304.873 276.259 304.617 276.357 304.584 276.514C306.118 270.147 306.118 270.147 307.207 267.058C316.866 238.828 338.382 227.713 337.372 228.441C338.683 227.726 340.362 226.762 341.673 226.1C343.896 224.998 348.054 223.424 347.857 223.536L346.985 223.844H346.979Z" fill="#202121"/>
<path d="M306.224 276.305L117.825 1181.43H117.773L306.165 276.265L306.224 276.305Z" fill="#282828"/>
<path d="M306.165 276.265L117.773 1181.42H117.622L306.014 276.252H306.165V276.265Z" fill="#262727"/>
<path d="M306.014 276.252L117.622 1181.41H117.484L305.876 276.246L306.014 276.252Z" fill="#252626"/>
<path d="M305.876 276.246L117.484 1181.4H117.34C146.298 1042.28 205.519 757.727 296.315 321.499L305.732 276.252H305.876V276.246Z" fill="#242525"/>
<path d="M305.732 276.232L296.315 321.48C296.276 321.676 150.318 1022.94 155.02 1000.35C153.649 1006.91 116.009 1187.79 117.34 1181.38H117.15L305.548 276.232H305.732Z" fill="#232323"/>
<path d="M305.548 276.232L117.15 1181.39H116.979L305.371 276.232H305.548Z" fill="#212222"/>
<path d="M305.371 276.233L116.979 1181.39C116.481 1181.39 116.225 1181.49 116.192 1181.65C263.134 475.654 285.79 366.714 285.744 367.002C306.184 270.029 303.981 276.252 305.371 276.233Z" fill="#202121"/>
<path d="M757.764 263.065L361.53 225.438C361.53 225.326 361.583 225.215 361.616 225.103L738.019 260.855L757.836 262.737C757.836 262.842 757.777 262.953 757.751 263.065H757.764Z" fill="#282828"/>
<path d="M757.849 262.737L738.032 260.855L361.629 225.103C361.684 224.879 361.759 224.659 361.852 224.448L758.078 262.075C757.992 262.288 757.92 262.508 757.862 262.73L757.849 262.737Z" fill="#292A2A"/>
<path d="M758.065 262.088L361.858 224.461C362.144 223.782 362.571 223.172 363.111 222.67L759.344 260.304C758.805 260.805 758.376 261.412 758.085 262.088H758.065Z" fill="#2A2B2B"/>
<path d="M759.324 260.304L363.091 222.67C363.403 222.387 363.743 222.136 364.107 221.923L760.341 259.55C759.978 259.768 759.638 260.02 759.324 260.304Z" fill="#292A2A"/>
<path d="M760.341 259.55L364.107 221.923C364.483 221.703 364.878 221.518 365.288 221.372L761.521 259.006C761.113 259.153 760.718 259.335 760.341 259.55Z" fill="#282828"/>
<path d="M761.521 259.006L365.288 221.372C365.771 221.196 366.269 221.067 366.776 220.985L763.01 258.599C762.503 258.681 762.004 258.81 761.521 258.986V259.006Z" fill="#262727"/>
<path d="M763.01 258.599L366.776 220.985C368.652 220.67 765.18 258.501 764.944 258.475C764.285 258.463 763.627 258.511 762.977 258.619L763.01 258.599Z" fill="#252626"/>
<path d="M764.944 258.475L368.711 220.847C369.032 220.847 369.367 220.847 369.688 220.9L765.921 258.527C765.587 258.527 765.266 258.481 764.944 258.475Z" fill="#242525"/>
<path d="M782.715 262.888C814.133 275.918 820.218 306.679 815.444 331.126C815.549 330.614 813.372 329.401 809.398 327.847C815.654 297.781 803.988 271.059 782.715 262.862V262.888Z" fill="#353636"/>
<path d="M809.397 327.873C810.781 321.204 810.433 320.063 811.247 315.243C811.942 308.843 811.811 303.551 809.122 295.485C802.453 268.822 782.511 262.73 782.715 262.887C805.214 272.219 816.624 291.485 817.024 315L816.938 319.59C816.283 327.859 815.391 331.328 815.443 331.125C815.548 330.614 813.371 329.4 809.397 327.846V327.873Z" fill="#353636"/>
<path d="M809.397 327.874C809.633 326.739 809.994 324.759 810.053 324.654C815.24 309.099 811.365 296.745 807.168 289.118C799.154 267.741 782.531 262.744 782.734 262.888C827.706 281.538 815.522 331.316 815.463 331.126C815.568 330.615 813.391 329.402 809.417 327.847L809.397 327.874Z" fill="#343535"/>
<path d="M809.909 328.069C813.338 319.682 817.299 302.901 805.279 284.73C800.374 274.474 792.577 266.684 782.715 262.887C827.693 281.543 815.502 331.315 815.443 331.125C815.548 330.633 813.561 329.505 809.909 328.069Z" fill="#333434"/>
<path d="M810.925 328.482C813.934 320.649 814.828 312.161 813.516 303.873C812.203 295.585 808.732 287.788 803.45 281.268C794.997 266.618 782.511 262.789 782.715 262.907C827.686 281.556 815.502 331.335 815.443 331.145C815.535 330.705 813.929 329.741 810.925 328.522V328.482Z" fill="#323232"/>
<path d="M811.811 328.856C817.948 311.072 814.034 291.695 801.594 278.278C793.39 266.159 782.511 262.769 782.715 262.887C827.686 281.537 815.502 331.315 815.443 331.125C815.529 330.732 814.237 329.912 811.811 328.856Z" fill="#303131"/>
<path d="M812.565 329.197C820.04 305.275 810.316 285.426 799.712 275.688C791.954 265.786 782.512 262.769 782.715 262.887C827.687 281.537 815.503 331.315 815.444 331.125C815.516 330.771 814.506 330.089 812.565 329.197Z" fill="#2F3030"/>
<path d="M813.207 329.499C819.234 307.925 813.332 286.429 797.797 273.412C790.662 265.464 782.511 262.776 782.715 262.887C827.686 281.537 815.502 331.315 815.443 331.125C815.509 330.81 814.729 330.24 813.207 329.499Z" fill="#2E2F2F"/>
<path d="M813.745 329.768C819.968 306.764 813.089 284.383 795.83 271.36C792.079 267.674 787.617 264.791 782.715 262.887C827.693 281.543 815.502 331.315 815.443 331.125C815.384 330.935 814.912 330.384 813.745 329.768Z" fill="#2D2D2D"/>
<path d="M814.191 330.01C820.519 305.865 812.519 282.14 793.797 269.51C790.504 266.692 786.757 264.453 782.715 262.887C827.693 281.543 815.502 331.315 815.443 331.125C815.384 330.935 815.056 330.509 814.191 330.01Z" fill="#2B2C2C"/>
<path d="M814.545 330.227C821.758 298.803 807.469 277.393 791.692 267.832C788.936 265.786 785.916 264.123 782.715 262.887C827.693 281.543 815.502 331.315 815.443 331.125C815.384 330.935 815.174 330.614 814.545 330.227Z" fill="#2A2B2B"/>
<path d="M814.833 330.41C822.086 297.268 806.492 275.57 789.482 266.31C787.349 264.941 785.081 263.794 782.715 262.887C827.686 281.537 815.502 331.315 815.443 331.125C815.384 330.935 815.273 330.712 814.833 330.41Z" fill="#292A2A"/>
<path d="M815.056 330.574C826.112 277.898 782.511 262.717 782.715 262.887C827.686 281.537 815.502 331.315 815.443 331.125C815.384 330.935 815.338 330.804 815.056 330.574Z" fill="#282828"/>
<path d="M789.784 266.218C787.503 264.953 785.142 263.84 782.715 262.887C785.247 263.863 787.702 265.03 790.059 266.376L789.784 266.218Z" fill="#262727"/>
<path d="M815.22 330.732C816.316 325.335 819.647 308.915 812.165 291.387C812.342 291.971 816.755 300.672 817.024 315.04C817.068 320.456 816.538 325.861 815.443 331.165C815.443 331.06 815.391 330.922 815.22 330.758V330.732Z" fill="#262727"/>
<path d="M815.339 330.85C817.129 321.775 817.811 313.886 815.693 302.653C817.563 312.069 817.479 321.77 815.443 331.152C815.448 331.101 815.441 331.05 815.423 331.002C815.405 330.954 815.376 330.911 815.339 330.877V330.85Z" fill="#252626"/>
<path d="M815.417 330.962C816.701 325.035 817.221 318.968 816.965 312.909C817.177 319.02 816.666 325.135 815.443 331.126C815.462 331.073 815.462 331.015 815.443 330.962H815.417Z" fill="#242525"/>
<path d="M815.45 331.06C816.106 327.44 816.257 326.785 816.637 323.512C816.454 325.172 815.496 331.48 815.45 331.06Z" fill="#232323"/>
<path d="M780.085 261.878C782.328 262.757 783.187 263.039 784.675 263.707L782.052 262.698C781.397 262.409 780.741 262.134 780.085 261.878Z" fill="#262727"/>
<path d="M782.046 262.691C783.805 263.306 785.512 264.056 787.155 264.934L784.532 263.924C783.725 263.485 782.899 263.072 782.053 262.691H782.046Z" fill="#282828"/>
<path d="M784.525 263.924C786.263 264.711 786.354 264.317 789.476 266.311L786.853 265.301C786.092 264.816 785.318 264.357 784.525 263.924Z" fill="#292A2A"/>
<path d="M786.853 265.301L789.476 266.311C790.23 266.79 790.971 267.301 791.692 267.832L789.069 266.822C788.348 266.291 787.607 265.78 786.853 265.301Z" fill="#2A2B2B"/>
<path d="M789.069 266.822L791.692 267.832C792.414 268.37 793.115 268.927 793.797 269.511L791.174 268.501C790.519 267.917 789.784 267.353 789.069 266.822Z" fill="#2B2C2C"/>
<path d="M791.174 268.501L793.797 269.511C794.499 270.101 795.174 270.724 795.837 271.367L793.214 270.357C792.558 269.701 791.902 269.091 791.174 268.501Z" fill="#2D2D2D"/>
<path d="M793.214 270.357L795.837 271.367C796.492 272.022 797.148 272.711 797.804 273.426L795.181 272.416C794.525 271.701 793.869 271.019 793.214 270.357Z" fill="#2E2F2F"/>
<path d="M795.188 272.416L797.811 273.426C798.467 274.16 799.122 274.914 799.719 275.701L797.096 274.691C796.48 273.905 795.843 273.146 795.188 272.416Z" fill="#2F3030"/>
<path d="M797.096 274.691L799.719 275.701C800.374 276.534 801.03 277.393 801.594 278.278L798.971 277.269C798.368 276.383 797.745 275.518 797.096 274.691Z" fill="#303131"/>
<path d="M798.971 277.269L801.594 278.278C802.25 279.242 802.866 280.246 803.456 281.262L800.833 280.252C800.243 279.229 799.622 278.235 798.971 277.269Z" fill="#323232"/>
<path d="M800.833 280.239L803.457 281.249C804.112 282.39 804.729 283.564 805.306 284.77L802.683 283.76C802.106 282.549 801.489 281.376 800.833 280.239Z" fill="#333434"/>
<path d="M802.683 283.773L805.306 284.783C805.961 286.2 806.617 287.662 807.161 289.164L804.538 288.154C803.974 286.65 803.356 285.19 802.683 283.773Z" fill="#343535"/>
<path d="M804.539 288.154L807.162 289.164C807.94 291.273 808.597 293.426 809.129 295.61L806.506 294.6C805.974 292.416 805.317 290.263 804.539 288.154Z" fill="#353636"/>
<path d="M806.532 294.6L809.155 295.61C810.89 302.786 811.468 310.193 810.867 317.552L808.243 316.535C808.843 309.179 808.268 301.775 806.539 294.6H806.532Z" fill="#373737"/>
<path d="M808.237 316.535L810.86 317.552C810.683 319.893 810.395 322.273 809.988 324.673L807.365 323.663C807.772 321.257 808.021 318.883 808.231 316.535H808.237Z" fill="#353636"/>
<path d="M807.372 323.663L809.995 324.673C809.818 325.735 809.621 326.798 809.398 327.873L806.775 326.857C806.998 325.788 807.195 324.719 807.372 323.663Z" fill="#343535"/>
<path d="M765.92 258.527C770.745 258.995 775.486 260.111 780.012 261.845C801.357 270.075 813.03 296.797 806.774 326.857C800.97 324.627 793.541 322.555 790.183 322.233C796.505 291.872 781.98 265.36 757.763 263.065C758.418 259.832 761.783 258.14 765.92 258.527Z" fill="#9D9E9E"/>
<path d="M794.741 323.093C794.538 322.686 795.148 322.116 795.318 321.703C797.745 315.919 797.128 305.309 795.863 305.04C794.977 304.856 793.948 322.745 793.941 322.903C792.703 322.609 791.448 322.39 790.184 322.247C796.505 291.885 781.98 265.373 757.763 263.078C758.419 259.845 761.783 258.153 765.921 258.54C768.941 258.878 771.934 259.426 774.878 260.18C776.643 260.655 778.381 261.224 780.085 261.885C801.358 270.088 813.03 296.81 806.774 326.87C802.844 325.371 798.825 324.114 794.741 323.106V323.093Z" fill="#9D9E9E"/>
<path d="M795.042 323.165C794.682 322.509 795.606 321.492 795.849 320.778C798.393 313.302 796.675 302.489 795.482 304.161C795.115 304.679 793.711 322.673 793.705 322.85C792.544 322.574 791.368 322.368 790.183 322.233C796.505 291.872 781.98 265.36 757.763 263.065C758.418 259.832 761.783 258.14 765.92 258.527C768.941 258.865 771.934 259.413 774.878 260.166C776.642 260.642 778.381 261.211 780.085 261.871C801.357 270.075 813.03 296.797 806.774 326.857C802.94 325.396 799.022 324.163 795.042 323.165Z" fill="#9B9B9B"/>
<path d="M795.26 323.217C795.128 322.981 795.469 322.621 795.561 322.371C799.115 312.247 796.492 301.689 795.41 303.053C795.227 303.289 795.109 304.082 794.892 308.155C794.591 313.991 794.355 316.024 793.581 322.817C792.465 322.559 791.335 322.364 790.197 322.234C796.519 291.872 781.994 265.36 757.777 263.065C758.432 259.832 761.796 258.14 765.934 258.527C768.954 258.865 771.948 259.413 774.892 260.166C776.656 260.642 778.394 261.211 780.099 261.871C801.371 270.075 813.044 296.797 806.788 326.857C803.023 325.423 799.178 324.208 795.273 323.217H795.26Z" fill="#989898"/>
<path d="M795.469 323.271C795.122 322.654 795.968 321.697 796.177 321.021C798.145 314.752 797.902 305.283 795.653 301.893C795.378 302.222 795.182 302.61 795.082 303.027C794.381 309.585 794.276 316.228 793.43 322.792C792.349 322.541 791.254 322.355 790.151 322.234C796.473 291.873 781.948 265.361 757.73 263.066C758.386 259.833 761.75 258.141 765.888 258.528C768.908 258.866 771.901 259.414 774.846 260.167C776.61 260.643 778.348 261.212 780.052 261.872C801.325 270.076 812.998 296.798 806.742 326.858C803.044 325.449 799.269 324.252 795.436 323.271H795.469Z" fill="#959595"/>
<path d="M795.659 323.322C795.567 323.152 795.803 322.896 795.862 322.712C799.141 312.797 797.39 303.249 795.554 300.908C794.898 302.069 794.898 302.069 794.8 305.341C794.68 311.175 794.185 316.995 793.318 322.765C792.284 322.528 791.237 322.351 790.183 322.233C796.505 291.872 781.98 265.36 757.763 263.065C758.418 259.832 761.783 258.14 765.92 258.527C768.941 258.865 771.934 259.413 774.878 260.166C776.642 260.642 778.381 261.211 780.085 261.871C801.357 270.075 813.03 296.797 806.774 326.857C803.127 325.471 799.405 324.291 795.626 323.322H795.659Z" fill="#929292"/>
<path d="M795.849 323.368C795.495 322.712 796.334 321.761 796.544 321.073C799.639 310.85 796.544 299.859 795.442 299.938C794.787 299.977 794.787 300.692 794.695 305.341C794.614 311.17 794.123 316.985 793.226 322.745C792.222 322.52 791.206 322.349 790.183 322.233C796.505 291.872 781.98 265.36 757.763 263.065C758.418 259.832 761.783 258.14 765.92 258.527C768.941 258.865 771.934 259.413 774.878 260.166C776.642 260.642 778.381 261.211 780.085 261.871C801.357 270.075 813.03 296.797 806.774 326.857C803.198 325.498 799.551 324.333 795.849 323.368Z" fill="#8E8F8F"/>
<path d="M796.033 323.414C795.954 323.27 796.151 323.047 796.204 322.883C800.525 309.184 795.968 298.915 795.312 298.961C794.656 299.007 794.656 300.272 794.656 302.587C794.72 309.33 794.222 316.066 793.168 322.726C792.194 322.505 791.209 322.341 790.217 322.234C796.538 291.872 782.013 265.36 757.796 263.065C758.452 259.832 761.816 258.14 765.954 258.527C768.974 258.865 771.967 259.413 774.911 260.166C776.676 260.642 778.414 261.211 780.118 261.871C801.391 270.075 813.063 296.797 806.807 326.857C803.291 325.518 799.706 324.368 796.066 323.414H796.033Z" fill="#8B8B8B"/>
<path d="M796.224 323.467C795.876 322.812 796.703 321.861 796.88 321.172C800.368 309.454 796.329 297.912 795.142 297.991C794.486 298.037 794.486 298.45 794.486 303.952C794.547 310.234 794.06 316.509 793.03 322.707C792.087 322.497 791.132 322.339 790.171 322.234C796.493 291.873 781.968 265.361 757.751 263.066C758.406 259.833 761.771 258.141 765.908 258.528C768.929 258.866 771.922 259.414 774.866 260.167C776.63 260.643 778.369 261.212 780.073 261.872C801.345 270.076 813.018 296.798 806.762 326.858C803.307 325.542 799.785 324.41 796.211 323.467H796.224Z" fill="#878888"/>
<path d="M796.413 323.519C796.36 323.414 796.498 323.25 796.531 323.138C801.311 307.787 795.711 296.456 794.682 297.072C793.652 297.689 795.521 306.063 792.964 322.686C792.045 322.488 791.117 322.337 790.183 322.233C796.505 291.872 781.98 265.36 757.763 263.065C758.418 259.832 761.783 258.14 765.92 258.527C768.941 258.865 771.934 259.413 774.878 260.166C776.642 260.642 778.381 261.211 780.085 261.871C801.357 270.075 813.03 296.797 806.774 326.857C803.381 325.565 799.922 324.45 796.413 323.519Z" fill="#838484"/>
<path d="M796.623 323.572C801.981 305.479 794.931 295.997 794.833 296.03C792.912 296.148 795.941 303.099 792.866 322.699C791.81 322.483 790.898 322.332 790.157 322.26C796.479 291.899 781.954 265.386 757.737 263.091C758.393 259.858 761.757 258.167 765.894 258.553C768.915 258.892 771.908 259.439 774.852 260.193C776.617 260.668 778.355 261.238 780.059 261.898C801.331 270.101 813.004 296.823 806.748 326.883C803.419 325.621 800.029 324.527 796.59 323.604L796.623 323.572Z" fill="#808080"/>
<path d="M796.826 323.624C796.361 322.804 797.443 321.512 797.705 320.601C801.312 308.207 796.171 294.895 794.623 294.994C792.656 295.118 795.993 303.414 792.813 322.66C791.947 322.472 791.071 322.33 790.19 322.234C796.512 291.872 781.987 265.36 757.77 263.065C758.425 259.832 761.789 258.14 765.927 258.527C768.947 258.865 771.94 259.413 774.885 260.166C776.649 260.642 778.387 261.211 780.091 261.871C801.364 270.075 813.037 296.797 806.781 326.857C803.64 325.65 800.02 324.49 796.833 323.624H796.826Z" fill="#7B7C7C"/>
<path d="M797.049 323.683C796.826 323.283 797.357 322.666 797.488 322.227C802.138 306.738 795.665 293.885 794.393 293.925C793.862 293.925 793.633 294.351 793.855 298.01C794.459 307.912 794.21 313.44 792.734 322.64C791.744 322.443 790.878 322.299 790.183 322.233C796.505 291.872 781.98 265.36 757.763 263.065C758.418 259.832 761.783 258.14 765.92 258.527C768.941 258.865 771.934 259.413 774.878 260.166C776.642 260.642 778.381 261.211 780.085 261.871C801.357 270.075 813.03 296.797 806.774 326.857C803.705 325.676 800.216 324.542 797.049 323.683Z" fill="#777777"/>
<path d="M797.279 323.748C796.846 322.981 797.856 321.781 798.105 320.929C802.151 307.158 795.934 292.652 794.124 292.816C793.685 292.856 793.311 292.888 793.62 296.62C794.538 307.886 794.013 314.22 792.656 322.627C791.837 322.453 791.009 322.322 790.177 322.233C796.498 291.872 781.973 265.36 757.756 263.065C758.412 259.832 761.776 258.14 765.914 258.527C768.934 258.865 771.927 259.413 774.872 260.166C776.636 260.642 778.374 261.211 780.078 261.871C801.351 270.075 813.023 296.797 806.767 326.857C803.777 325.709 800.354 324.601 797.279 323.748Z" fill="#727373"/>
<path d="M797.535 323.821C797.075 322.988 798.19 321.696 798.433 320.791C802.61 306.745 796.053 291.59 793.843 291.676C793.029 291.708 793.187 293.335 793.554 297.276C794.451 305.724 794.131 314.257 792.603 322.614C791.666 322.424 790.852 322.299 790.19 322.234C796.512 291.872 781.987 265.36 757.77 263.065C758.425 259.832 761.789 258.14 765.927 258.527C768.947 258.865 771.94 259.413 774.885 260.166C776.649 260.642 778.387 261.211 780.091 261.871C801.364 270.075 813.037 296.797 806.781 326.857C803.869 325.735 800.551 324.66 797.541 323.821H797.535Z" fill="#6C6D6D"/>
<path d="M797.816 323.899C804.577 302.017 794.19 290.298 793.482 290.416C793.023 290.488 792.662 290.547 793.141 294.679C794.38 305.361 794.223 312.384 792.524 322.601C791.751 322.437 790.97 322.315 790.183 322.233C796.505 291.872 781.98 265.36 757.763 263.065C758.418 259.832 761.783 258.14 765.92 258.527C768.941 258.865 771.934 259.413 774.878 260.166C776.642 260.642 778.381 261.211 780.085 261.871C801.357 270.075 813.03 296.797 806.774 326.857C803.954 325.775 800.747 324.725 797.816 323.899Z" fill="#666767"/>
<path d="M798.124 323.984C805.338 300.843 793.869 289.006 793.082 289.118C792.295 289.229 792.426 290.279 792.99 294.705C794.301 305.256 794.177 312.036 792.452 322.588C791.703 322.43 790.945 322.312 790.183 322.233C796.505 291.872 781.98 265.36 757.763 263.065C758.418 259.832 761.783 258.14 765.92 258.527C768.941 258.865 771.934 259.413 774.878 260.166C776.642 260.642 778.381 261.211 780.085 261.871C801.357 270.075 813.03 296.797 806.774 326.857C804.052 325.807 800.97 324.797 798.124 323.984Z" fill="#5F6060"/>
<path d="M798.472 324.083C798.17 323.532 798.911 322.686 799.127 322.083C805.344 302.489 794.117 287.164 792.616 287.662C791.894 287.898 791.96 288.777 792.701 293.564C794.504 305.368 793.96 313.151 792.406 322.555C791.56 322.391 790.819 322.28 790.209 322.221C796.531 291.859 782.006 265.347 757.789 263.052C758.444 259.819 761.808 258.127 765.946 258.514C768.966 258.852 771.96 259.4 774.904 260.153C776.668 260.629 778.406 261.198 780.11 261.858C801.383 270.062 813.056 296.784 806.8 326.844C804.177 325.84 801.245 324.876 798.498 324.07L798.472 324.083Z" fill="#555656"/>
<path d="M798.865 324.175C798.61 323.689 799.272 322.948 799.443 322.424C806.387 301.276 793.947 285.092 792 286.049C791.396 286.344 791.344 287.118 792.203 291.721C794.747 305.44 793.646 314.463 792.301 322.542C791.488 322.384 790.773 322.28 790.183 322.221C796.505 291.859 781.98 265.347 757.763 263.052C758.418 259.819 761.783 258.127 765.92 258.514C768.941 258.852 771.934 259.4 774.878 260.153C776.642 260.629 778.381 261.198 780.085 261.858C801.357 270.062 813.03 296.784 806.774 326.844C804.289 325.886 801.528 324.962 798.865 324.188V324.175Z" fill="#3E3F3F"/>
<path d="M799.338 324.338C799.187 324.05 799.58 323.63 799.685 323.322C808.144 298.771 793.488 284.16 791.626 284.311C791.404 284.337 791.2 284.442 791.049 284.606C790.675 285.072 790.977 286.574 791.626 289.754C794.131 302.049 794.249 310.325 792.229 322.542C791.449 322.391 790.754 322.286 790.183 322.233C796.505 291.872 781.98 265.36 757.763 263.065C758.418 259.832 761.783 258.14 765.92 258.527C768.941 258.865 771.934 259.413 774.878 260.166C776.642 260.642 778.381 261.211 780.085 261.871C801.357 270.075 813.03 296.797 806.774 326.857C804.433 325.958 801.829 325.086 799.338 324.338Z" fill="#3D3E3E"/>
<path d="M799.901 324.509C799.586 323.853 800.472 322.935 800.714 322.26C809.613 297.662 792.085 279.465 790.222 282.724C790.111 282.908 790.045 283.446 790.347 284.947C793.816 302.417 794.747 307.112 792.176 322.529C791.422 322.384 790.76 322.286 790.209 322.233C796.531 291.872 782.006 265.36 757.789 263.065C758.444 259.832 761.808 258.14 765.946 258.527C768.966 258.865 771.96 259.413 774.904 260.166C776.668 260.642 778.406 261.211 780.11 261.871C801.383 270.075 813.056 296.797 806.8 326.857C804.629 326.024 802.209 325.211 799.914 324.509H799.901Z" fill="#3C3C3C"/>
<path d="M800.557 324.719C800.728 324.772 803.954 316.536 804.216 309.69C804.643 305.001 803.561 300.384 803.003 297.886C800.282 286.082 787.383 274.698 789.337 282.679C793.272 298.804 794.911 305.48 792.046 322.49C791.331 322.359 790.688 322.267 790.157 322.214C796.479 291.853 781.954 265.341 757.737 263.046C758.392 259.813 761.756 258.121 765.894 258.508C768.914 258.846 771.908 259.394 774.852 260.147C776.616 260.623 778.354 261.192 780.059 261.852C801.331 270.056 813.004 296.778 806.748 326.837C804.78 326.09 802.656 325.355 800.557 324.7V324.719Z" fill="#3A3B3B"/>
<path d="M801.436 324.988C801.194 324.457 801.961 323.735 802.191 323.198C814.211 294.699 790.066 274.796 787.974 277.997C787.633 278.515 788.072 279.964 788.236 280.547C792.702 295.577 795.161 303.853 791.987 322.516C791.331 322.391 790.676 322.299 790.184 322.253C796.505 291.892 781.98 265.38 757.763 263.085C758.419 259.852 761.783 258.16 765.921 258.547C768.941 258.885 771.934 259.433 774.878 260.186C776.643 260.662 778.381 261.231 780.085 261.891C801.358 270.095 813.03 296.817 806.774 326.877C805.082 326.221 803.259 325.565 801.436 325.008V324.988Z" fill="#393A3A"/>
<path d="M802.472 325.329C802.748 325.329 806.223 317.164 806.59 311.099C806.98 306.909 806.663 302.684 805.653 298.6C800.308 280.029 788.236 275.445 788.118 275.406C785.37 274.54 786.275 276.855 787.777 280.685C790.596 287.898 795.849 301.328 791.908 322.483C791.252 322.365 790.675 322.279 790.183 322.233C796.505 291.872 781.98 265.36 757.763 263.065C758.418 259.832 761.783 258.14 765.92 258.527C768.941 258.865 771.934 259.413 774.878 260.166C776.642 260.642 778.381 261.211 780.085 261.871C801.357 270.075 813.03 296.797 806.774 326.857C805.403 326.332 803.948 325.814 802.472 325.329Z" fill="#383939"/>
<path d="M803.659 325.729C819.397 292.252 787.816 272.088 785.186 273.072C784.393 273.373 784.229 273.95 786.157 277.963C793.095 292.39 794.728 305.308 791.81 322.463C791.2 322.358 790.649 322.279 790.183 322.233C796.505 291.872 781.98 265.36 757.763 263.065C758.418 259.832 761.783 258.14 765.92 258.527C768.941 258.865 771.934 259.413 774.878 260.166C776.642 260.642 778.381 261.211 780.085 261.871C801.357 270.075 813.03 296.797 806.774 326.857C805.771 326.476 804.728 326.096 803.659 325.729Z" fill="#373737"/>
<path d="M790.183 322.208C796.505 291.846 781.98 265.334 757.763 263.039C758.418 259.806 761.783 258.114 765.92 258.501C768.941 258.839 771.934 259.387 774.878 260.14C776.642 260.616 778.381 261.185 780.085 261.845C793.2 266.888 802.616 278.934 806.498 294.449C799.941 276.829 784.393 269.531 782.891 271.328C782.458 271.832 783.396 273.59 784.013 274.751C790.354 286.626 795.718 299.21 791.718 322.424C791.147 322.319 790.629 322.247 790.19 322.208H790.183Z" fill="#353636"/>
<path d="M790.183 322.208C796.505 291.846 781.98 265.334 757.763 263.039C758.418 259.806 761.783 258.114 765.92 258.501C768.941 258.839 771.934 259.387 774.878 260.14C776.642 260.616 778.381 261.185 780.085 261.845C798.767 269.059 804.702 288.384 804.518 288.076C794.682 271.426 781.442 268.331 780.839 269.682C780.662 270.088 781.121 271.098 782.386 273.052C789.305 283.715 795.803 297.918 791.606 322.398C791.075 322.306 790.596 322.24 790.183 322.201V322.208Z" fill="#343535"/>
<path d="M790.183 322.208C796.505 291.846 781.98 265.334 757.763 263.039C758.418 259.806 761.783 258.114 765.92 258.501C768.941 258.839 771.934 259.387 774.878 260.14C776.642 260.616 778.381 261.185 780.085 261.845C796.479 268.16 802.793 283.892 802.656 283.695C791.868 269.085 779.475 266.809 778.839 267.957C778.504 268.547 778.904 269.085 782.006 273.301C796.583 293.125 792.747 315.165 791.488 322.404C791.003 322.326 790.57 322.267 790.177 322.227L790.183 322.208Z" fill="#333434"/>
<path d="M790.183 322.208C796.505 291.846 781.98 265.334 757.763 263.039C758.418 259.806 761.783 258.114 765.92 258.501C770.769 258.984 775.532 260.108 780.085 261.845C794.61 267.445 800.977 280.403 800.82 280.206C789.442 267.091 777.127 265.498 776.642 266.6C776.412 267.131 777.737 268.672 778.904 270.029C791.088 284.187 795.298 301.794 791.364 322.365C790.924 322.293 790.531 322.24 790.177 322.208H790.183Z" fill="#323232"/>
<path d="M790.183 322.208C796.505 291.846 781.98 265.334 757.763 263.039C758.418 259.806 761.783 258.114 765.92 258.501C780.308 260.252 790.911 265.341 798.97 277.236C788.196 266.291 774.707 263.583 774.38 265.432C774.275 265.957 775.691 267.354 776.603 268.278C790.452 282.049 795.239 299.755 791.232 322.365C790.852 322.306 790.498 322.26 790.183 322.227V322.208Z" fill="#303131"/>
<path d="M790.183 322.208C796.505 291.846 781.98 265.334 757.763 263.039C758.418 259.806 761.783 258.114 765.92 258.501C779.127 260.108 789.023 264.357 797.082 274.652C784.537 263.583 772.511 263.091 772.038 264.108C771.802 264.613 772.563 265.275 775.075 267.472C789.691 280.259 795.233 299.223 791.101 322.319C790.767 322.273 790.446 322.234 790.183 322.208Z" fill="#2F3030"/>
<path d="M790.183 322.208C796.505 291.846 781.98 265.334 757.763 263.039C758.418 259.806 761.783 258.114 765.92 258.501C770.769 258.984 775.532 260.108 780.085 261.845C785.87 264.103 791.038 267.699 795.167 272.337C782.124 262.042 769.724 262.101 769.474 263.157C769.363 263.642 770.13 264.232 773.121 266.436C782.301 273.236 796.878 289.538 790.95 322.286C790.675 322.247 790.413 322.214 790.177 322.194L790.183 322.208Z" fill="#2E2F2F"/>
<path d="M790.183 322.208C796.505 291.846 781.98 265.334 757.763 263.039C758.418 259.806 761.783 258.114 765.92 258.501C770.769 258.984 775.532 260.108 780.085 261.845C784.988 263.749 789.451 266.634 793.2 270.324C779.429 260.56 766.845 261.301 766.733 262.409C766.688 262.842 767.389 263.281 769.52 264.586C794.439 279.905 793.541 307.309 790.813 322.293L790.157 322.221L790.183 322.208Z" fill="#2D2D2D"/>
<path d="M790.183 322.208C796.505 291.846 781.98 265.334 757.763 263.039C758.418 259.806 761.783 258.114 765.92 258.501C778.235 260.003 785.468 263.616 791.173 268.475C777.022 259.412 763.769 260.54 763.717 261.786C763.717 262.173 764.078 262.363 766.996 263.793C786.767 273.505 795.619 295.361 790.669 322.26L790.177 322.208H790.183Z" fill="#2B2C2C"/>
<path d="M790.183 322.208C796.505 291.846 781.98 265.334 757.763 263.039C758.418 259.806 761.783 258.114 765.92 258.501C770.769 258.984 775.532 260.108 780.085 261.845C783.288 263.079 786.309 264.745 789.062 266.796C773.416 257.767 760.773 260.698 760.438 261.157C760.396 261.222 760.368 261.296 760.357 261.373C760.346 261.45 760.351 261.528 760.373 261.603C761.1 262.019 761.869 262.357 762.668 262.613C789.613 271.977 794.734 299.558 790.537 322.247L790.183 322.208Z" fill="#2A2B2B"/>
<path d="M786.007 264.862C773.547 258.494 762.439 259.76 759.331 260.272C762.065 257.747 766.032 258.521 768.675 258.835C773.265 259.649 775.082 260.199 774.878 260.147C776.643 260.623 778.381 261.192 780.085 261.852C782.453 262.764 784.722 263.914 786.859 265.282L786.007 264.842V264.862Z" fill="#292A2A"/>
<path d="M783.817 263.596C776.489 260.188 768.386 258.792 760.341 259.55C763.023 257.976 765.921 258.533 768.675 258.894C773.265 259.707 775.082 260.258 774.879 260.206C776.643 260.681 778.381 261.25 780.085 261.911C782.289 262.763 786.158 264.711 783.817 263.635V263.596Z" fill="#282828"/>
<path d="M781.836 262.606C775.421 259.88 768.469 258.649 761.508 259.006C763.947 258.121 766.098 258.553 768.668 258.862C773.259 259.675 775.075 260.226 774.872 260.173C780.616 261.891 782.806 263.019 781.829 262.613L781.836 262.606Z" fill="#262727"/>
<path d="M790.184 322.207C796.505 291.846 781.98 265.334 757.763 263.039C757.832 262.718 757.928 262.404 758.052 262.101C788.944 268.691 794.774 298.613 790.407 322.227H790.184V322.207Z" fill="#292A2A"/>
<path d="M776.839 260.744C772.364 259.328 767.697 258.611 763.003 258.619C766.498 258.022 773.869 259.753 777.659 261.006L776.839 260.744Z" fill="#252626"/>
<path d="M794.223 321.906C794.223 321.742 794.991 306.122 795.909 306.279C796.486 306.377 798.04 317.427 794.446 322.522C794.356 322.323 794.281 322.117 794.223 321.906Z" fill="#A0A1A1"/>
<path d="M769.003 258.914C768.059 258.776 766.767 258.593 764.938 258.475C766.079 258.475 769.095 258.934 769.305 258.96L769.003 258.914Z" fill="#242525"/>
<path d="M790.184 322.207C796.505 291.846 781.98 265.334 757.763 263.039L757.842 262.73L760.085 263.058C783.534 267.491 795.948 291.82 790.249 322.214L790.184 322.207Z" fill="#282828"/>
<path d="M794.512 320.358C794.512 320.267 794.859 308.791 795.928 307.591C797.24 310.45 796.505 318.489 794.735 321.027C794.642 320.815 794.568 320.596 794.512 320.371V320.358Z" fill="#A3A3A3"/>
<path d="M794.827 318.391C794.827 318.332 794.866 311.263 795.922 309.25C796.656 311.774 796.525 316.352 795.024 319.355C794.939 319.038 794.873 318.716 794.827 318.391Z" fill="#A6A6A6"/>
<path d="M804.912 326.142C804.709 325.663 805.417 325.034 805.633 324.555C806.794 321.957 807.674 319.242 808.256 316.457C807.991 319.943 807.5 323.408 806.787 326.831L804.925 326.142H804.912Z" fill="#353636"/>
<path d="M795.26 316.962C795.037 314.922 795.378 313.44 795.85 311.388C796.02 314.076 796.119 315.558 795.325 317.25C795.325 317.165 795.273 317.053 795.26 316.962Z" fill="#A8A9A9"/>
<path d="M806.139 326.621C806.506 325.775 806.991 324.653 807.352 323.794C807.175 324.811 806.984 325.834 806.775 326.857L806.119 326.621H806.139Z" fill="#343535"/>
<path d="M621.006 1233.05L809.397 327.873L809.909 328.07C801.122 370.268 611.871 1279.64 621.511 1233.23L621.006 1233.03V1233.05Z" fill="#343535"/>
<path d="M621.536 1233.23C626.553 1209.13 809.974 327.867 809.935 328.07C810.289 328.208 810.63 328.346 810.951 328.483L622.533 1233.64C622.21 1233.5 621.869 1233.36 621.51 1233.23H621.536Z" fill="#333434"/>
<path d="M622.533 1233.64L810.925 328.483L811.811 328.857L623.419 1234.02L622.533 1233.64Z" fill="#323232"/>
<path d="M623.419 1234.02L811.811 328.857L812.565 329.191L624.16 1234.36L623.406 1234.02L623.419 1234.02Z" fill="#303131"/>
<path d="M624.16 1234.36L812.565 329.191L813.22 329.499L624.815 1234.66L624.16 1234.36V1234.36Z" fill="#2F3030"/>
<path d="M624.815 1234.66L813.207 329.5L813.745 329.768L625.347 1234.93L624.815 1234.66Z" fill="#2E2F2F"/>
<path d="M625.347 1234.93L813.745 329.768L814.184 330.011L625.793 1235.17L625.347 1234.93Z" fill="#2D2D2D"/>
<path d="M625.792 1235.17L814.184 330.011L814.545 330.221C805.804 372.268 626.127 1235.58 626.127 1235.39C626.015 1235.31 625.897 1235.24 625.766 1235.17H625.792Z" fill="#2B2C2C"/>
<path d="M626.127 1235.39C635.662 1189.55 822.427 292.239 814.519 330.221L814.807 330.411C806.053 372.451 626.37 1235.77 626.415 1235.57L626.127 1235.39Z" fill="#2A2B2B"/>
<path d="M626.442 1235.57C635.963 1189.77 822.735 292.423 814.834 330.411L815.056 330.575L626.665 1235.73L626.442 1235.57Z" fill="#292A2A"/>
<path d="M626.665 1235.73L815.056 330.575L815.22 330.719L626.828 1235.88L626.665 1235.73Z" fill="#282828"/>
<path d="M626.828 1235.88L815.22 330.732L815.338 330.864L626.946 1236.01C626.911 1235.96 626.871 1235.92 626.828 1235.88Z" fill="#262727"/>
<path d="M626.947 1236.01L815.338 330.85C815.367 330.885 815.394 330.923 815.417 330.962L627.019 1236.12C627 1236.08 626.976 1236.04 626.947 1236.01Z" fill="#252626"/>
<path d="M627.019 1236.12L815.417 330.962V331.06L627.051 1236.22C627.059 1236.19 627.059 1236.15 627.051 1236.12H627.019Z" fill="#242525"/>
<path d="M627.051 1236.23L815.45 331.06C815.45 331.093 627.071 1236.34 627.051 1236.23Z" fill="#232323"/>
<path d="M806.774 326.857L809.397 327.873L621.006 1233.03L618.376 1232.02L806.774 326.857Z" fill="#373838"/>
<path d="M601.792 1227.39L790.184 322.207H790.263L601.864 1227.4L601.792 1227.39Z" fill="#282828"/>
<path d="M601.864 1227.4L790.262 322.24H790.4L602.001 1227.42H601.87L601.864 1227.4Z" fill="#292A2A"/>
<path d="M602.002 1227.42L790.401 322.253H790.538L602.14 1227.43H602.002V1227.42Z" fill="#2A2B2B"/>
<path d="M602.14 1227.43L790.538 322.273H790.676L602.284 1227.45H602.14V1227.43Z" fill="#2B2C2C"/>
<path d="M602.284 1227.45L790.676 322.286H790.814L602.422 1227.46H602.284V1227.45Z" fill="#2D2D2D"/>
<path d="M602.422 1227.46L790.814 322.306H790.951L602.56 1227.48H602.422V1227.46Z" fill="#2E2F2F"/>
<path d="M602.56 1227.48L790.951 322.325H791.089L602.697 1227.5H602.56V1227.48Z" fill="#2F3030"/>
<path d="M602.697 1227.5L791.089 322.345H791.233L602.842 1227.53H602.697V1227.5Z" fill="#303131"/>
<path d="M602.842 1227.53L791.234 322.371H791.358L602.966 1227.55H602.842V1227.53Z" fill="#323232"/>
<path d="M602.966 1227.55L791.378 322.391H791.483L603.071 1227.56H602.966V1227.55Z" fill="#333434"/>
<path d="M603.071 1227.56L791.463 322.404H791.568L603.176 1227.58H603.071V1227.56Z" fill="#343535"/>
<path d="M603.176 1227.58L791.568 322.424H791.679L603.281 1227.6H603.176V1227.58Z" fill="#353636"/>
<path d="M603.281 1227.6L791.679 322.444H791.784L603.393 1227.62H603.281V1227.6Z" fill="#373737"/>
<path d="M603.392 1227.62L791.784 322.463H791.896L603.504 1227.64H603.392V1227.62Z" fill="#383939"/>
<path d="M603.504 1227.64L791.896 322.483H791.988L603.596 1227.65H603.504V1227.64Z" fill="#393A3A"/>
<path d="M603.596 1227.65L791.988 322.496H792.06L603.668 1227.67H603.596V1227.65Z" fill="#3A3B3B"/>
<path d="M603.668 1227.67L792.033 322.509H792.112L603.74 1227.68H603.668V1227.67Z" fill="#3C3C3C"/>
<path d="M603.74 1227.68L792.138 322.522H792.21L603.832 1227.7H603.753L603.74 1227.68Z" fill="#3D3E3E"/>
<path d="M603.832 1227.7L792.21 322.535H792.283L603.891 1227.71H603.819L603.832 1227.7Z" fill="#3E3F3F"/>
<path d="M603.891 1227.71L792.283 322.555H792.361L603.97 1227.73H603.891V1227.71Z" fill="#555656"/>
<path d="M603.969 1227.73L792.361 322.568H792.433L604.042 1227.74H603.969V1227.73Z" fill="#5F6060"/>
<path d="M604.042 1227.74L792.434 322.581H792.512L604.12 1227.76H604.042V1227.74Z" fill="#666767"/>
<path d="M604.12 1227.76L792.512 322.594H792.591L604.199 1227.81H604.12V1227.76Z" fill="#6C6D6D"/>
<path d="M604.199 1227.8L792.591 322.614H792.67L604.278 1227.8H604.199Z" fill="#727373"/>
<path d="M604.278 1227.8L792.689 322.627H792.768L604.357 1227.8H604.278Z" fill="#777777"/>
<path d="M604.356 1227.81L792.748 322.647H792.827L604.435 1227.81H604.356Z" fill="#7B7C7C"/>
<path d="M604.435 1227.81L792.827 322.66H792.912L604.52 1227.84H604.435V1227.81Z" fill="#808080"/>
<path d="M604.521 1227.84L792.912 322.679H792.991L604.599 1227.85H604.521V1227.84Z" fill="#838484"/>
<path d="M604.599 1227.85L792.991 322.693H793.076L604.684 1227.87H604.599V1227.85Z" fill="#878888"/>
<path d="M604.684 1227.87L793.076 322.712H793.161L604.763 1227.89H604.684V1227.87Z" fill="#8B8B8B"/>
<path d="M604.763 1227.89L793.161 322.732H793.24L604.848 1227.91H604.763V1227.89Z" fill="#8E8F8F"/>
<path d="M604.848 1227.91L793.24 322.745H793.325L604.934 1227.92H604.848V1227.91Z" fill="#929292"/>
<path d="M604.934 1227.92L793.345 322.765H793.476L605.058 1227.95H604.934V1227.92Z" fill="#959595"/>
<path d="M605.058 1227.95L793.457 322.791L793.647 322.837L605.255 1228L605.058 1227.95Z" fill="#989898"/>
<path d="M605.255 1228L793.646 322.863L793.843 322.902L605.445 1228.04L605.255 1228Z" fill="#9B9B9B"/>
<path d="M605.445 1228.04L793.843 322.863L794.04 322.909L605.642 1228.09L605.445 1228.04Z" fill="#9D9E9E"/>
<path d="M605.642 1228.09L794.04 322.922L794.512 323.034L606.121 1228.19L605.642 1228.09Z" fill="#A0A1A1"/>
<path d="M606.12 1228.19L794.512 323.034L795.024 323.158L606.632 1228.32L606.12 1228.19Z" fill="#9D9E9E"/>
<path d="M606.632 1228.32L795.024 323.158L795.227 323.211L606.835 1228.37L606.632 1228.32Z" fill="#9B9B9B"/>
<path d="M606.835 1228.37L795.227 323.211L795.437 323.263L607.038 1228.42L606.835 1228.37Z" fill="#989898"/>
<path d="M607.039 1228.42L795.437 323.263L795.64 323.316L607.248 1228.46L607.039 1228.41V1228.42Z" fill="#959595"/>
<path d="M607.248 1228.46L795.64 323.316L795.85 323.368L607.458 1228.53L607.248 1228.47V1228.46Z" fill="#929292"/>
<path d="M607.458 1228.53L795.85 323.368L796.04 323.414L607.648 1228.58L607.458 1228.53Z" fill="#8E8F8F"/>
<path d="M607.648 1228.58L796.04 323.414L796.23 323.467L607.839 1228.62L607.648 1228.58Z" fill="#8B8B8B"/>
<path d="M607.838 1228.62L796.23 323.466L796.42 323.519L608.029 1228.68L607.838 1228.62Z" fill="#878888"/>
<path d="M608.029 1228.68L796.42 323.519L796.617 323.571L608.225 1228.73L608.029 1228.68Z" fill="#838484"/>
<path d="M608.225 1228.73L796.624 323.571L796.847 323.63L608.422 1228.79L608.206 1228.73H608.225Z" fill="#808080"/>
<path d="M608.422 1228.79L796.821 323.63L797.05 323.689L608.678 1228.85L608.442 1228.79H608.422Z" fill="#7B7C7C"/>
<path d="M608.678 1228.85L797.07 323.689L797.306 323.755L608.907 1228.91L608.678 1228.85Z" fill="#777777"/>
<path d="M608.907 1228.91L797.28 323.755L797.509 323.821L609.144 1228.98L608.907 1228.91Z" fill="#727373"/>
<path d="M609.143 1228.98L797.535 323.821L797.837 323.906L609.445 1229.06L609.143 1228.98Z" fill="#6C6D6D"/>
<path d="M609.445 1229.06L797.837 323.906L798.152 323.991L609.734 1229.15L609.426 1229.06H609.445Z" fill="#666767"/>
<path d="M609.733 1229.15L798.132 323.991L798.44 324.083L610.068 1229.24L609.753 1229.15H609.733Z" fill="#5F6060"/>
<path d="M610.068 1229.24L798.46 324.083L798.899 324.208L610.501 1229.37L610.068 1229.24Z" fill="#555656"/>
<path d="M610.501 1229.37L798.899 324.208L799.339 324.339L610.947 1229.5L610.501 1229.37Z" fill="#3E3F3F"/>
<path d="M610.947 1229.5L799.339 324.339L799.922 324.516L611.53 1229.67L610.947 1229.5Z" fill="#3D3E3E"/>
<path d="M611.531 1229.67L799.903 324.516L800.558 324.725L612.206 1229.88L611.55 1229.67H611.531Z" fill="#3C3C3C"/>
<path d="M612.206 1229.88L800.604 324.726L801.444 324.994L613.052 1230.15L612.206 1229.88Z" fill="#3A3B3B"/>
<path d="M613.052 1230.15L801.444 324.994C801.791 325.099 802.139 325.217 802.48 325.329L614.088 1230.49L613.052 1230.15Z" fill="#393A3A"/>
<path d="M614.088 1230.49L802.48 325.329L803.667 325.729L615.275 1230.89L614.088 1230.49Z" fill="#383939"/>
<path d="M615.275 1230.89L803.667 325.729L804.912 326.168L616.521 1231.33L615.275 1230.89Z" fill="#373737"/>
<path d="M616.521 1231.33L804.913 326.142C805.326 326.286 805.732 326.437 806.132 326.588L617.74 1231.78L616.521 1231.33Z" fill="#353636"/>
<path d="M617.74 1231.78L806.132 326.614L806.788 326.857L618.376 1232.02L617.721 1231.78H617.74Z" fill="#343535"/>
<path d="M757.763 263.065C781.98 265.36 796.505 291.872 790.184 322.234C727.384 623.955 664.587 925.675 601.792 1227.39C595.47 1257.77 570.696 1280.51 546.479 1278.23L150.245 1240.59C126.028 1238.3 111.503 1211.81 117.825 1181.43C180.629 879.713 243.428 578.004 306.223 276.305C312.538 245.937 337.319 223.188 361.53 225.47L757.763 263.065Z" fill="#2B2C2C"/>
<path d="M757.363 284.003C772.97 285.518 782.138 302.843 777.777 322.555C711.349 623.153 644.923 923.753 578.5 1224.36C574.145 1244.08 557.876 1258.91 542.276 1257.37L150.377 1219.1C134.77 1217.59 125.583 1200.27 129.95 1180.55C196.4 879.944 262.826 579.344 329.227 278.75C333.575 259.038 349.864 244.199 365.465 245.727L757.363 284.003Z" fill="white"/>
<path fill-rule="evenodd" clip-rule="evenodd" d="M76.6953 947C148.804 1063.21 277.551 1140.6 424.373 1140.6C571.195 1140.6 699.942 1063.21 772.051 947H76.6953Z" fill="url(#paint1_linear_36_507)"/>
<path d="M349.843 670.642C349.794 670.479 349.746 670.313 349.693 670.123C349.599 669.786 349.501 669.437 349.375 669.069L349.272 668.77C349.129 668.355 348.982 667.921 348.818 667.539C348.612 667.006 348.385 666.509 348.158 666.021C348.071 665.813 347.97 665.627 347.872 665.436L347.676 665.055C347.565 664.845 347.451 664.634 347.358 664.468C347.087 663.985 346.789 663.494 346.472 663.01C346.105 662.461 345.803 662.021 345.506 661.629C345.209 661.237 344.848 660.773 344.408 660.27L344.292 660.138C344.136 659.963 343.98 659.786 343.832 659.636C343.643 659.444 343.494 659.286 343.33 659.131C342.23 657.763 340.989 656.515 339.629 655.405C338.2 654.223 336.626 653.228 334.945 652.445C333.15 651.618 331.218 651.13 329.246 651.005C327.207 650.895 325.167 651.21 323.255 651.93C321.423 652.637 319.717 653.634 318.201 654.882C316.701 656.081 315.367 657.473 314.235 659.023C311.795 662.393 310.725 666.563 311.243 670.691C311.493 672.679 312.03 674.62 312.839 676.453C313.629 678.215 314.632 679.873 315.824 681.392C316.987 682.884 318.322 684.235 319.8 685.416C320.093 685.661 320.414 685.897 320.737 686.136L322.924 687.634L323.81 688.304C324.876 689.117 326.015 690.078 327.301 691.242C328.179 692.017 329.059 692.86 329.912 693.682C330.189 693.946 330.465 694.213 330.733 694.466L330.765 694.499C333.016 696.694 335.558 698.569 338.319 700.071L339.122 700.508L340.616 699.219C339.973 697.857 339.199 696.429 338.18 694.725C337.405 693.432 336.52 692.08 335.394 690.463C334.584 689.338 333.495 687.862 332.282 686.446C331.909 685.974 331.496 685.534 331.089 685.09C330.912 684.895 330.733 684.703 330.547 684.493L330.062 683.995C329.606 683.53 329.135 683.047 328.612 682.579L327.623 681.699L326.541 680.829L325.606 680.102L325.336 679.88C325.184 679.756 325.033 679.632 324.855 679.47C323.821 678.549 322.861 677.546 321.987 676.471C321.131 675.423 320.375 674.296 319.73 673.106C319.124 672.002 318.681 670.817 318.416 669.587C318.169 668.433 318.157 667.241 318.38 666.082C318.619 664.902 319.077 663.778 319.731 662.768C320.461 661.651 321.338 660.636 322.337 659.751C323.296 658.868 324.384 658.138 325.564 657.583C326.675 657.078 327.879 656.808 329.099 656.791C330.386 656.797 331.661 657.037 332.861 657.501C334.17 657.999 335.409 658.663 336.548 659.478C337.742 660.313 338.844 661.273 339.833 662.341L340.06 662.56L340.105 662.602C340.25 662.713 340.412 662.854 340.58 663.007C340.7 663.113 340.816 663.227 340.947 663.353L341.048 663.449C341.427 663.822 341.732 664.158 342.012 664.479C342.291 664.801 342.547 665.112 342.898 665.554C343.193 665.942 343.467 666.326 343.745 666.744C343.819 666.849 343.887 666.957 343.974 667.097L344.257 667.544C344.325 667.652 344.397 667.756 344.479 667.914C344.712 668.32 344.953 668.738 345.157 669.159L345.182 669.206C345.341 669.504 345.485 669.835 345.641 670.182L345.776 670.487C345.893 670.753 345.997 671.03 346.109 671.321C346.178 671.5 346.244 671.677 346.315 671.857L346.872 673.265L350.312 672.215L349.843 670.642Z" fill="black"/>
<path d="M337.627 696.968C337.386 696.554 337.144 696.142 336.902 695.732C336.054 694.317 335.14 692.944 334.195 691.585C333.249 690.227 332.228 688.915 331.138 687.643C330.612 686.999 330.024 686.388 329.463 685.759C328.867 685.157 328.292 684.539 327.646 683.963L326.693 683.096L325.664 682.272L325.194 681.895L324.708 681.527C324.436 681.305 324.183 681.101 323.905 680.845C322.805 679.867 321.787 678.803 320.858 677.662C319.934 676.536 319.118 675.325 318.42 674.046C317.737 672.8 317.236 671.462 316.935 670.074C316.649 668.712 316.637 667.308 316.902 665.942C317.181 664.557 317.717 663.237 318.482 662.049C319.294 660.81 320.267 659.685 321.376 658.703C322.461 657.703 323.692 656.874 325.027 656.245C326.345 655.649 327.772 655.335 329.218 655.32C330.704 655.323 332.177 655.597 333.564 656.129C335.006 656.675 336.372 657.402 337.63 658.294C338.911 659.188 340.093 660.214 341.157 661.357L341.232 661.441L341.259 661.463C341.426 661.595 341.625 661.763 341.804 661.929C341.983 662.096 342.168 662.269 342.348 662.443C342.7 662.796 343.048 663.163 343.378 663.545C343.708 663.926 344.03 664.318 344.338 664.718C344.379 664.772 344.416 664.829 344.457 664.882C336.651 670.504 331.99 678.944 337.627 696.968Z" fill="#CE0000"/>
<path d="M337.366 698.501L335.453 696.86C334.317 695.713 333.166 694.569 332.014 693.449C330.861 692.329 329.712 691.219 328.524 690.166C327.337 689.112 326.16 688.08 324.942 687.152L324.03 686.468L323.103 685.842L322.095 685.154C321.729 684.879 321.323 684.592 320.996 684.316C319.605 683.204 318.348 681.935 317.251 680.533C316.145 679.119 315.215 677.577 314.48 675.939C313.74 674.261 313.249 672.485 313.022 670.665C312.556 666.946 313.519 663.188 315.717 660.152C316.758 658.72 317.987 657.434 319.37 656.328C320.748 655.194 322.298 654.287 323.963 653.643C325.662 653.001 327.476 652.72 329.29 652.818C331.06 652.928 332.794 653.367 334.404 654.112C335.957 654.835 337.411 655.753 338.732 656.845C340.043 657.915 341.235 659.123 342.288 660.449L342.184 660.344C342.408 660.55 342.59 660.733 342.779 660.933C342.968 661.133 343.145 661.329 343.323 661.53C343.672 661.936 344.01 662.348 344.327 662.776C344.644 663.203 344.949 663.63 345.25 664.08C345.551 664.531 345.816 664.977 346.074 665.439C346.212 665.665 346.327 665.902 346.449 666.138C346.57 666.373 346.696 666.603 346.805 666.846C347.027 667.323 347.247 667.803 347.436 668.294C347.625 668.786 347.803 669.281 347.976 669.775C348.148 670.269 348.27 670.783 348.42 671.281L347.981 671.421C347.791 670.942 347.626 670.456 347.418 669.987C347.209 669.519 347.011 669.049 346.77 668.597C346.53 668.144 346.294 667.694 346.039 667.253C345.919 667.029 345.772 666.829 345.64 666.601C345.508 666.372 345.374 666.177 345.227 665.964C344.946 665.539 344.65 665.127 344.342 664.725C344.033 664.322 343.716 663.929 343.382 663.551C343.047 663.173 342.704 662.803 342.351 662.45C342.171 662.275 341.993 662.098 341.807 661.936C341.622 661.773 341.425 661.601 341.262 661.47L341.235 661.448L341.16 661.364C340.096 660.221 338.914 659.194 337.633 658.301C336.376 657.409 335.01 656.681 333.568 656.135C332.179 655.601 330.705 655.325 329.218 655.32C327.772 655.335 326.345 655.65 325.027 656.245C323.693 656.872 322.462 657.697 321.376 658.693C320.267 659.675 319.294 660.8 318.482 662.039C317.717 663.227 317.181 664.547 316.902 665.932C316.636 667.301 316.647 668.709 316.934 670.074C317.233 671.46 317.729 672.796 318.408 674.042C319.105 675.321 319.922 676.531 320.846 677.657C321.775 678.798 322.793 679.862 323.893 680.84C324.171 681.097 324.425 681.293 324.696 681.522L325.182 681.891L325.652 682.268L326.681 683.091L327.634 683.958C328.279 684.534 328.855 685.152 329.451 685.755C330.016 686.384 330.6 686.99 331.126 687.639C332.216 688.91 333.214 690.236 334.183 691.581C335.151 692.925 336.042 694.313 336.89 695.728C337.738 697.143 338.545 698.579 339.251 700.077L337.366 698.501Z" fill="#E30613"/>
<path d="M338.59 699.859C328.661 671.76 341.969 665.303 355.526 658.728C362.967 655.118 370.487 651.47 373.749 643.935C373.857 643.7 374.047 643.511 374.283 643.404C374.519 643.297 374.786 643.278 375.035 643.352C375.283 643.426 375.497 643.587 375.636 643.805C375.776 644.023 375.832 644.285 375.795 644.541C375.676 645.547 373.752 660.072 361.213 667.549C361.053 669.2 360.077 673.596 354.396 677.905C354.026 683.833 350.749 686.39 347.393 689.009C344.288 691.428 341.103 693.912 340.686 699.62C340.67 699.872 340.566 700.11 340.391 700.293C340.217 700.475 339.985 700.591 339.734 700.62C339.483 700.648 339.23 700.588 339.019 700.448C338.809 700.309 338.654 700.1 338.582 699.858L338.59 699.859Z" fill="#161616"/>
<path d="M338.59 699.859C328.661 671.76 341.969 665.303 355.526 658.728C362.967 655.118 370.487 651.47 373.749 643.935C373.857 643.7 374.047 643.511 374.283 643.404C374.519 643.297 374.786 643.278 375.035 643.352C375.283 643.426 375.497 643.587 375.636 643.805C375.776 644.023 375.832 644.285 375.795 644.541C375.676 645.547 373.752 660.072 361.213 667.549C361.053 669.2 360.077 673.596 354.396 677.905C354.026 683.833 350.749 686.39 347.393 689.009C344.288 691.428 341.103 693.912 340.686 699.62C340.67 699.872 340.566 700.11 340.391 700.293C340.217 700.475 339.985 700.591 339.734 700.62C339.483 700.648 339.23 700.588 339.019 700.448C338.809 700.309 338.654 700.1 338.582 699.858L338.59 699.859Z" fill="#161616"/>
<path d="M352.004 679.559C351.602 679.801 351.186 680.043 350.762 680.284C348.288 681.721 345.504 683.342 344.24 685.806C344.104 686.05 343.879 686.231 343.611 686.313C343.344 686.394 343.056 686.368 342.807 686.241C342.558 686.114 342.368 685.896 342.277 685.632C342.186 685.367 342.2 685.078 342.318 684.825C343.872 681.801 346.948 680.012 349.679 678.423C350.668 677.876 351.625 677.274 352.547 676.619C352.598 676.561 352.655 676.509 352.718 676.463C356.715 673.554 358.211 670.715 358.766 668.909C357.593 669.493 356.367 670.015 355.124 670.545C351.416 672.124 347.562 673.765 344.95 677.265C344.865 677.379 344.759 677.475 344.637 677.548C344.515 677.621 344.38 677.669 344.24 677.689C344.1 677.71 343.957 677.703 343.819 677.668C343.682 677.634 343.552 677.573 343.438 677.488C343.324 677.403 343.228 677.297 343.155 677.176C343.082 677.054 343.034 676.919 343.014 676.779C342.993 676.638 343 676.495 343.034 676.358C343.069 676.22 343.13 676.091 343.215 675.977C346.181 672.005 350.302 670.247 354.271 668.556C356.132 667.763 357.957 666.988 359.565 665.999L359.628 665.961C366.841 661.87 370.401 655.268 372.121 650.411C368.035 655.035 362.223 657.855 356.454 660.655C344.426 666.512 332.597 672.255 339.376 695.31C340.727 691.474 343.425 689.371 346.072 687.307C348.654 685.294 351.181 683.321 352.004 679.559Z" fill="#E30613"/>
<path fill-rule="evenodd" clip-rule="evenodd" d="M360.557 662.199C351.634 666.861 344.449 671.09 343.22 675.993C346.186 672.022 350.307 670.263 354.276 668.573C356.137 667.78 357.963 667.005 359.57 666.016L359.633 665.978C366.846 661.886 370.406 655.285 372.126 650.428C372.11 650.447 372.093 650.466 372.075 650.483C372.075 650.483 369.475 657.539 360.551 662.199" fill="#CE0000"/>
<path fill-rule="evenodd" clip-rule="evenodd" d="M358.766 668.916C358.766 668.916 356.247 672.592 352.256 674.487C348.264 676.383 343.278 679.682 342.318 684.831C343.872 681.807 346.948 680.019 349.679 678.429C350.668 677.882 351.625 677.28 352.547 676.626C352.598 676.567 352.655 676.515 352.718 676.469C356.714 673.561 358.211 670.722 358.766 668.916Z" fill="#CE0000"/>
<path fill-rule="evenodd" clip-rule="evenodd" d="M352.004 679.559C352.004 679.559 349.043 683.677 345.351 686.128C341.66 688.58 339.127 691.278 339.376 695.31C340.727 691.474 343.425 689.371 346.072 687.307C348.654 685.294 351.181 683.321 352.004 679.559Z" fill="#CE0000"/>
<path fill-rule="evenodd" clip-rule="evenodd" d="M353.668 662.04C342.697 667.511 333.125 674.049 339.376 695.302C336.623 681.609 339.953 669.979 353.668 662.04Z" fill="#CE0000"/>
<path d="M391.084 664.919C393.52 665.08 395.797 666.184 397.433 667.996C397.67 668.257 397.955 668.469 398.274 668.62C398.592 668.771 398.937 668.858 399.289 668.875C399.641 668.893 399.993 668.841 400.325 668.723C400.657 668.604 400.962 668.422 401.224 668.185C401.485 667.949 401.697 667.663 401.848 667.345C401.999 667.026 402.086 666.681 402.103 666.329C402.121 665.977 402.069 665.625 401.951 665.293C401.832 664.961 401.65 664.656 401.413 664.395C399.47 662.247 396.939 660.715 394.135 659.991C391.33 659.266 388.375 659.38 385.634 660.318C382.893 661.257 380.488 662.978 378.716 665.269C376.944 667.56 375.882 670.321 375.663 673.21C375.444 676.098 376.077 678.987 377.483 681.52C378.89 684.052 381.008 686.116 383.575 687.457C386.143 688.798 389.048 689.357 391.929 689.063C394.811 688.77 397.544 687.638 399.789 685.808C401.673 684.271 400.692 681.219 398.279 681.051C397.599 681.003 396.925 681.216 396.397 681.648C394.969 682.811 393.233 683.532 391.401 683.721C389.569 683.91 387.722 683.559 386.087 682.712C384.452 681.864 383.1 680.557 382.198 678.952C381.297 677.346 380.884 675.512 381.011 673.675C380.974 674.208 380.778 674.718 380.449 675.14C380.778 674.718 380.974 674.208 381.011 673.675C381.19 671.179 382.35 668.856 384.238 667.215C386.126 665.574 388.588 664.748 391.084 664.919Z" fill="#E20016"/>
<path d="M429.643 679.808C429.59 679.421 429.454 679.049 429.244 678.72C429.033 678.39 428.753 678.11 428.424 677.899C428.831 678.159 429.161 678.524 429.377 678.956C429.594 679.388 429.689 679.87 429.654 680.352L430.7 665.316C430.749 664.606 430.514 663.905 430.047 663.368C429.58 662.831 428.919 662.501 428.209 662.451C427.499 662.402 426.798 662.637 426.261 663.105C425.725 663.572 425.395 664.234 425.346 664.944L424.301 679.98C424.335 679.498 424.498 679.034 424.774 678.637C425.049 678.24 425.425 677.925 425.864 677.723C425.424 677.923 425.047 678.239 424.771 678.636C424.496 679.033 424.333 679.498 424.301 679.98C424.071 683.28 420.376 685.757 416.771 685.507C413.003 685.245 409.893 682.191 410.116 678.994L411.161 663.958C411.21 663.248 410.976 662.549 410.511 662.012C410.045 661.475 409.385 661.144 408.676 661.093C407.966 661.044 407.266 661.279 406.729 661.747C406.192 662.214 405.863 662.876 405.813 663.586L404.768 678.622C404.339 684.789 409.668 690.393 416.405 690.861C423.143 691.329 429.226 686.519 429.654 680.352C429.669 680.171 429.666 679.989 429.643 679.808Z" fill="#E20016"/>
<path d="M447.846 663.812L438.241 663.144C437.889 663.119 437.536 663.164 437.202 663.276C436.868 663.388 436.559 663.565 436.293 663.796C436.027 664.027 435.809 664.309 435.652 664.624C435.495 664.94 435.402 665.283 435.378 665.635L433.759 688.926C433.724 689.283 433.761 689.643 433.868 689.986C433.975 690.328 434.15 690.646 434.381 690.92C434.613 691.194 434.898 691.418 435.218 691.581C435.538 691.743 435.887 691.839 436.245 691.864C436.603 691.889 436.962 691.842 437.302 691.725C437.641 691.609 437.954 691.426 438.222 691.187C438.489 690.947 438.706 690.657 438.859 690.333C439.012 690.008 439.099 689.656 439.114 689.298L439.507 683.65L446.434 684.131C449.105 684.279 451.727 683.37 453.733 681.599C455.739 679.829 456.968 677.341 457.153 674.672C457.339 672.003 456.467 669.368 454.725 667.337C452.983 665.307 450.512 664.043 447.846 663.82L447.846 663.812ZM446.807 678.767L439.88 678.286L440.547 668.684L447.474 669.166C448.748 669.254 449.934 669.845 450.771 670.808C451.609 671.771 452.03 673.027 451.942 674.3C451.853 675.574 451.262 676.76 450.299 677.597C449.336 678.435 448.08 678.856 446.807 678.767Z" fill="#E20016"/>
<path d="M464.471 664.967C463.761 664.918 463.06 665.153 462.523 665.62C461.986 666.087 461.657 666.748 461.608 667.458L459.988 690.761C459.958 691.46 460.203 692.142 460.669 692.664C461.135 693.185 461.787 693.504 462.484 693.552C463.182 693.601 463.871 693.375 464.405 692.923C464.939 692.472 465.276 691.829 465.343 691.133L466.963 667.83C467.012 667.12 466.777 666.42 466.31 665.883C465.842 665.346 465.181 665.017 464.471 664.967Z" fill="#E20016"/>
<path d="M486.736 666.515L476.11 665.777C475.758 665.752 475.405 665.797 475.071 665.909C474.737 666.02 474.428 666.197 474.162 666.428C473.896 666.66 473.678 666.941 473.521 667.257C473.364 667.572 473.271 667.916 473.247 668.267L471.627 691.57C471.602 691.922 471.647 692.275 471.759 692.609C471.871 692.943 472.048 693.252 472.279 693.517C472.511 693.783 472.792 694.001 473.107 694.158C473.423 694.315 473.766 694.409 474.118 694.433L484.736 695.171C492.365 695.612 498.52 689.884 499.084 681.777C499.647 673.67 494.349 667.138 486.736 666.515ZM484.942 689.794L477.169 689.253L478.416 671.317L486.189 671.857C490.921 672.186 494.092 676.197 493.731 681.391C493.367 686.595 489.672 690.123 484.942 689.794Z" fill="#E20016"/>
<path d="M523.625 673.397L523.68 673.328L523.738 673.259L523.774 673.209C523.789 673.188 523.803 673.166 523.817 673.145L523.864 673.079L523.884 673.048L523.912 672.997L523.951 672.933C523.953 672.909 523.974 672.888 523.988 672.865L524.019 672.798L524.05 672.739C524.049 672.733 524.049 672.726 524.051 672.719L524.052 672.707L524.074 672.65C524.076 672.62 524.096 672.591 524.109 672.561C524.121 672.532 524.128 672.514 524.136 672.49L524.152 672.434C524.152 672.434 524.153 672.42 524.153 672.412C524.154 672.404 524.172 672.353 524.18 672.321C524.187 672.299 524.192 672.276 524.197 672.253C524.199 672.223 524.201 672.191 524.218 672.159C524.219 672.133 524.221 672.105 524.223 672.077C524.225 672.048 524.226 672.036 524.228 672.016C524.229 671.996 524.232 671.945 524.235 671.909C524.237 671.873 524.239 671.855 524.241 671.826C524.243 671.796 524.245 671.768 524.247 671.738L524.249 671.701C524.251 671.677 524.253 671.655 524.254 671.631C524.256 671.607 524.26 671.548 524.251 671.507C524.241 671.466 524.254 671.467 524.255 671.444C524.257 671.422 524.259 671.392 524.247 671.363C524.234 671.333 524.238 671.281 524.233 671.242C524.227 671.203 524.236 671.2 524.221 671.176C524.206 671.153 524.211 671.121 524.206 671.094C524.202 671.068 524.191 671.02 524.182 670.985C524.176 670.961 524.169 670.937 524.16 670.913L524.136 670.826L524.108 670.739C524.097 670.71 524.085 670.683 524.073 670.653C524.061 670.624 524.061 670.614 524.053 670.595L524.037 670.564L524.01 670.503C523.994 670.472 523.978 670.442 523.964 670.411C523.95 670.379 523.936 670.356 523.919 670.328C523.91 670.31 523.9 670.293 523.888 670.276C523.87 670.243 523.85 670.211 523.828 670.18C523.812 670.155 523.797 670.129 523.779 670.106L523.746 670.057L523.675 669.967C523.656 669.945 523.64 669.92 523.619 669.898C523.605 669.881 523.591 669.865 523.575 669.851L523.504 669.773C523.487 669.755 523.472 669.736 523.453 669.718L523.434 669.701L523.413 669.681L523.354 669.626L523.273 669.562L523.214 669.513L523.158 669.471L523.104 669.433L523.022 669.378L523.001 669.365L522.945 669.332L522.89 669.3L522.818 669.261L522.753 669.23L522.675 669.19L522.61 669.163L522.519 669.128L522.448 669.101L522.378 669.08L522.287 669.052L522.219 669.035C522.187 669.032 522.153 669.03 522.121 669.016L522.041 668.998L521.979 668.994L521.87 668.986L521.783 668.98L504.006 667.744C503.296 667.695 502.595 667.93 502.058 668.397C501.521 668.864 501.192 669.525 501.143 670.235C501.093 670.945 501.328 671.645 501.795 672.182C502.262 672.719 502.924 673.048 503.634 673.098L516.005 673.958L500.185 691.94C500.168 691.959 500.154 691.98 500.137 691.999L500.063 692.089C500.053 692.106 500.041 692.122 500.028 692.138C500.012 692.159 499.998 692.182 499.982 692.205L499.924 692.293C499.912 692.311 499.901 692.33 499.891 692.349C499.873 692.378 499.859 692.406 499.843 692.435C499.829 692.457 499.816 692.48 499.806 692.503C499.794 692.525 499.784 692.547 499.775 692.57C499.76 692.599 499.746 692.629 499.734 692.66C499.724 692.68 499.715 692.699 499.707 692.719L499.706 692.74C499.705 692.762 499.703 692.782 499.685 692.803C499.668 692.824 499.668 692.85 499.66 692.874C499.652 692.898 499.645 692.922 499.639 692.948C499.633 692.974 499.636 692.996 499.62 693.019L499.604 693.077L499.601 693.107C499.599 693.136 499.597 693.166 499.595 693.194C499.593 693.222 499.592 693.242 499.59 693.267L499.586 693.331C499.584 693.359 499.582 693.388 499.58 693.416C499.578 693.444 499.576 693.48 499.573 693.513C499.571 693.545 499.569 693.575 499.567 693.608L499.566 693.624C499.564 693.64 499.563 693.658 499.562 693.674C499.561 693.69 499.56 693.696 499.56 693.706C499.557 693.749 499.554 693.789 499.561 693.83C499.569 693.871 499.559 693.871 499.557 693.891C499.556 693.911 499.553 693.943 499.564 693.97L499.579 694.097C499.578 694.117 499.586 694.14 499.591 694.163C499.595 694.185 499.601 694.216 499.606 694.241C499.61 694.265 499.621 694.317 499.63 694.352C499.64 694.387 499.645 694.404 499.651 694.43L499.676 694.513C499.686 694.542 499.694 694.571 499.705 694.598L499.741 694.69C499.739 694.708 499.752 694.727 499.761 694.746C499.77 694.765 499.772 694.767 499.775 694.777L499.802 694.836L499.85 694.931L499.893 695.013C499.904 695.03 499.913 695.046 499.922 695.063L499.984 695.161L500.031 695.233C500.042 695.25 500.054 695.265 500.067 695.28C500.089 695.312 500.113 695.342 500.137 695.372L500.191 695.439L500.235 695.488L500.31 695.567C500.325 695.584 500.338 695.601 500.353 695.616L500.376 695.636L500.403 695.66L500.458 695.713L500.527 695.77L500.606 695.834L500.633 695.855L500.735 695.925L500.805 695.972L500.819 695.973L500.924 696.033L501.01 696.081L501.036 696.083L501.105 696.116L501.201 696.162L501.229 696.164L501.297 696.189L501.401 696.228L501.463 696.245L501.543 696.266L501.608 696.285L501.716 696.305L501.787 696.31C501.87 696.316 501.951 696.335 502.034 696.341L519.82 697.578C520.518 697.607 521.201 697.362 521.722 696.896C522.244 696.43 522.563 695.779 522.611 695.081C522.66 694.383 522.434 693.694 521.982 693.16C521.53 692.626 520.888 692.29 520.192 692.222L507.802 691.361L523.622 673.379L523.625 673.397Z" fill="black"/>
<path d="M540.863 669.481C536.867 669.25 532.941 670.603 529.937 673.248C526.932 675.892 525.092 679.614 524.814 683.607C524.536 687.6 525.844 691.541 528.454 694.576C531.064 697.611 534.765 699.494 538.754 699.818C542.75 700.05 546.676 698.696 549.68 696.052C552.685 693.407 554.525 689.685 554.803 685.692C555.08 681.699 553.772 677.758 551.163 674.723C548.553 671.688 544.852 669.805 540.863 669.481ZM539.126 694.462C536.525 694.278 534.102 693.07 532.391 691.102C530.679 689.135 529.817 686.568 529.995 683.966C530.179 681.365 531.387 678.943 533.354 677.231C535.321 675.52 537.887 674.658 540.489 674.835C541.79 674.907 543.065 675.236 544.238 675.805C545.411 676.374 546.46 677.17 547.322 678.147C548.185 679.125 548.845 680.264 549.264 681.499C549.682 682.733 549.851 684.039 549.761 685.339C549.67 686.64 549.322 687.91 548.737 689.075C548.152 690.24 547.34 691.276 546.351 692.125C545.361 692.974 544.213 693.617 542.972 694.018C541.731 694.419 540.424 694.569 539.124 694.46L539.126 694.462Z" fill="black"/>
<path d="M582.693 700.912L582.761 700.834L582.816 700.765L582.881 700.678L582.926 700.613C582.971 700.545 583.015 700.477 583.054 700.405C583.061 700.395 583.068 700.384 583.073 700.373C583.093 700.339 583.111 700.303 583.127 700.266C583.138 700.245 583.148 700.224 583.157 700.203C583.174 700.166 583.191 700.13 583.206 700.093C583.22 700.055 583.223 700.049 583.23 700.028C583.238 700.006 583.26 699.951 583.273 699.911C583.286 699.871 583.275 699.881 583.286 699.867C583.312 699.784 583.332 699.698 583.35 699.612L583.354 699.568C583.356 699.526 583.359 699.483 583.362 699.441C583.365 699.398 583.365 699.398 583.367 699.376C583.368 699.354 583.373 699.294 583.376 699.251C583.378 699.209 583.379 699.207 583.38 699.187C583.381 699.167 583.386 699.1 583.389 699.058L584.991 676.019C585.04 675.309 584.805 674.609 584.338 674.072C583.871 673.535 583.21 673.206 582.5 673.156C581.79 673.107 581.089 673.342 580.552 673.809C580.016 674.276 579.686 674.937 579.637 675.647L578.525 691.643L564.761 672.91C564.433 672.45 563.968 672.106 563.432 671.925C562.896 671.745 562.318 671.738 561.778 671.906C561.238 672.074 560.765 672.407 560.426 672.86C560.088 673.312 559.9 673.859 559.89 674.424L558.282 697.566C558.232 698.276 558.467 698.976 558.934 699.513C559.401 700.05 560.062 700.379 560.772 700.428C561.482 700.478 562.183 700.243 562.72 699.776C563.256 699.309 563.586 698.648 563.635 697.938L564.747 681.941L578.542 700.701L578.518 700.663L578.575 700.742L578.6 700.772L578.615 700.791L578.652 700.836L578.691 700.882L578.706 700.899C578.79 700.994 578.88 701.082 578.976 701.165L578.988 701.166L579.061 701.228L579.074 701.239L579.095 701.254L579.147 701.294L579.275 701.382L579.291 701.383L579.33 701.406L579.348 701.408L579.375 701.424L579.391 701.425L579.411 701.436L579.433 701.438C579.422 701.428 579.41 701.419 579.396 701.413L579.41 701.414C579.477 701.451 579.542 701.482 579.606 701.511L579.681 701.542C579.73 701.564 579.778 701.581 579.825 701.599L579.904 701.627L580.056 701.67L580.119 701.686C580.189 701.703 580.259 701.716 580.319 701.727L580.368 701.73L580.531 701.741L580.604 701.746L580.743 701.756L580.813 701.761C580.866 701.765 580.919 701.754 580.97 701.747L581.017 701.751C581.082 701.741 581.146 701.729 581.222 701.716L581.282 701.702L581.416 701.667L581.486 701.643L581.609 701.601L581.676 701.576L581.826 701.505L581.879 701.478C581.927 701.455 581.973 701.429 582.018 701.401L582.088 701.359L582.184 701.295L582.222 701.269L582.254 701.243L582.342 701.174L582.409 701.12C582.452 701.082 582.497 701.043 582.538 701.001L582.604 700.933L582.693 700.912Z" fill="black"/>
<path d="M608.052 698.352L595.2 697.458L595.638 691.167L606.21 691.902C606.92 691.951 607.62 691.716 608.157 691.249C608.694 690.782 609.023 690.121 609.073 689.411C609.122 688.701 608.887 688.001 608.42 687.464C607.953 686.927 607.292 686.597 606.582 686.548L596.006 685.813L596.443 679.521L609.295 680.415C610.005 680.464 610.705 680.229 611.242 679.762C611.779 679.295 612.108 678.634 612.158 677.924C612.207 677.214 611.972 676.514 611.505 675.977C611.038 675.44 610.377 675.11 609.667 675.061L594.134 673.981C593.783 673.957 593.43 674.001 593.096 674.113C592.761 674.225 592.452 674.402 592.186 674.633C591.921 674.864 591.703 675.146 591.546 675.461C591.389 675.777 591.296 676.12 591.271 676.472L589.652 699.775C589.627 700.126 589.672 700.479 589.784 700.813C589.896 701.147 590.073 701.456 590.304 701.722C590.535 701.988 590.817 702.206 591.132 702.363C591.447 702.52 591.791 702.613 592.142 702.638L607.675 703.717C608.374 703.747 609.056 703.502 609.578 703.036C610.099 702.57 610.418 701.918 610.466 701.221C610.515 700.523 610.289 699.834 609.837 699.3C609.385 698.766 608.743 698.429 608.047 698.362L608.052 698.352Z" fill="black"/>
</g>
<defs>
<linearGradient id="paint0_linear_36_507" x1="79.8547" y1="478.585" x2="837.357" y2="1048.1" gradientUnits="userSpaceOnUse">
<stop stop-color="#24FBFF"/>
<stop offset="1" stop-color="#0071EC"/>
</linearGradient>
<linearGradient id="paint1_linear_36_507" x1="424.373" y1="947" x2="424.373" y2="1140.6" gradientUnits="userSpaceOnUse">
<stop stop-color="white" stop-opacity="0"/>
<stop offset="0.492708" stop-color="#737373" stop-opacity="0.548899"/>
<stop offset="1"/>
</linearGradient>
</defs>
</svg>
