<svg width="380" height="380" viewBox="0 0 380 380" fill="none" xmlns="http://www.w3.org/2000/svg">
<g clip-path="url(#clip0_18_1318)">
<path d="M0 380V0H380V380H0ZM197.44 121.45L212.59 121.82V136H227.53V122.11C222.16 122.11 217.25 122.11 212.36 122.11L212.66 106.25H227.24V30.88H182.84C182.49 35.88 182.17 40.48 181.79 45.99H152.48V61H182.53V76.1H152.53V90.84L167.29 91.65V106.51H152.61V136.63H167.31L166.94 151.79H121.41V167.3L121.68 167.03L106.25 167.33V152.57H31V182.24H45.7V212.89H31V227.32H45.46V212.62H61.23V227.48H75.56C75.88 222.48 76.17 217.86 76.5 212.64H91.3V227.36H136.65V212.64H152.11V257.77H212.66V243H228.13V289H212.68V274.2H198.25V288.68H213V318.47H197.86C197.63 313.41 197.44 309.07 197.25 304.61H182.54V334.5H167.9V289.07L181.77 288.45V274.33H152.5V349H182.27V334.23H198V349.1H212.28C212.63 344.1 212.96 339.52 213.33 334.24H243.25V349H257.68V334.51H243V289.45H258.81V318.72H273.12C273.45 313.72 273.75 309.17 274.05 304.65H289V334.5H274.2V348.93H288.68V334.23H319.3V349H333.73V334.51H319V288.57H273.3V258.22H258.3L258.57 258.49C258.457 253.35 258.353 248.207 258.26 243.06H288.43C288.75 237.54 289 232.98 289.29 227.84H304.14V243.06H319.36V258.78H289.27V273.72H334C334.31 279.25 334.57 283.82 334.83 288.37H349.05V258.78L334.23 257.88V243.06H348.9V212.91H319.05C319.05 207.77 319.05 202.627 319.05 197.48H334.64V182.58H348.9V167.3H334.23V152.59H319.85V167H334.5C334.64 172.273 334.773 177.533 334.9 182.78H319.31V197.72H303.56V152.48H289.22C288.89 157.48 288.6 162.1 288.22 167.34H273.49V152.6H259.06V167.07H273.76V182L288.02 182.83V212.31H243.65C243.31 207.31 243 202.76 242.65 197.97L227.8 197.05V167.05H242.54V152.65H228.1V167.35H213.18C212.85 161.51 212.59 156.97 212.35 152.7H197.73V182.51H182.73C182.41 176.7 182.16 172.15 181.89 167.31H167C166.87 162.05 166.74 156.79 166.64 151.55H182.2V136.65H197.4L197.44 121.45ZM31.05 30.79V136H136.27V30.79H31.05ZM243.87 30.79V136H349.08V30.79H243.87ZM31 243.61V348.84H136.28V243.61H31Z" fill="white"/>
<path d="M182.54 334.5V304.61H197.25C197.44 309.07 197.63 313.41 197.86 318.47H213V288.68L212.73 288.95H228.18V243.06L227.9 243.32H258.57L258.29 243.06C258.39 248.2 258.493 253.343 258.6 258.49H243.8V272.92H258.28V258.22H273.28V288.57H319V334.51L319.27 334.24H288.68L288.95 334.51V304.65H274.07C273.77 309.17 273.47 313.73 273.14 318.72H258.83V289.45H243V334.51L243.27 334.24H213.37C213 339.52 212.67 344.08 212.32 349.1H198V334.23H182.27L182.54 334.5Z" fill="black"/>
<path d="M31.05 30.79H136.27V136H31.05V30.79ZM46.05 120.91H120.87V46.08H46L46.05 120.91Z" fill="black"/>
<path d="M243.87 30.79H349.08V136H243.87V30.79ZM334 46.25H259.14V121.07H334V46.25Z" fill="black"/>
<path d="M31 243.61H136.28V348.84H31V243.61ZM121.14 259.08H46.35V333.87H121.18L121.14 259.08Z" fill="black"/>
<path d="M227.83 167.08V197.08L242.68 198C243 202.79 243.31 207.34 243.68 212.34H288V182.83L273.76 182V167.07L273.49 167.34H288.26C288.6 162.1 288.89 157.52 289.26 152.48H303.6V197.75H319.35L319.08 197.48C319.08 202.62 319.08 207.763 319.08 212.91L319.36 212.65H303.86V228.12L304.12 227.84H289.27C288.98 232.98 288.73 237.54 288.41 243.06H258.24L258.52 243.32V228.61H227.85V243.32L228.13 243.06H212.66L212.92 243.34V212.93H197.46C197.54 207.77 197.627 202.61 197.72 197.45L197.45 197.72H212.14V182.25H197.45L197.73 182.51V152.7H212.35C212.59 156.97 212.85 161.51 213.18 167.35H228.1L227.83 167.08Z" fill="black"/>
<path d="M182.53 76.0999V60.9999H152.48V45.9999H181.79C182.17 40.4899 182.49 35.9299 182.84 30.8899H227.24V106.24H212.66L212.92 106.52V75.8399H182.25L182.53 76.0999ZM198 60.3199H212.28V46.1999H198V60.3199Z" fill="black"/>
<path d="M121.41 167.3V151.79H167L166.7 151.52L167.09 167.3L167.36 167.04H151.85V212.91L152.11 212.63H136.65L136.91 212.91V197.45H91L91.27 197.72V182.72L106.47 181.88V167.05L106.21 167.33L121.64 167.03V181.77H136.07V167.3H121.41Z" fill="black"/>
<path d="M212.66 243V257.73H152.11V212.64L151.85 212.92H167.31L167.05 212.65V227.86H182.53V243.32H212.92L212.66 243Z" fill="black"/>
<path d="M182.27 334.23V349H152.5V274.33H181.77V288.45L167.9 289.07V334.5H182.54L182.27 334.23Z" fill="black"/>
<path d="M45.7 182.24H31V152.57H106.25V167.33L106.51 167.05H45.44V182.52L45.7 182.24Z" fill="black"/>
<path d="M334.25 243.06V257.88L349.07 258.78V288.37H334.85C334.59 283.82 334.33 279.25 334.02 273.72H289.27V258.78H319.34V243.06L319.06 243.32H334.53L334.25 243.06Z" fill="black"/>
<path d="M45.73 212.89V182.24L45.47 182.52H75.6C75.91 188.04 76.17 192.59 76.46 197.72H91.31L91.04 197.45V212.92L91.3 212.64H76.5C76.17 217.86 75.88 222.44 75.56 227.48H61.23V212.62H45.46L45.73 212.89Z" fill="black"/>
<path d="M167 167.31H181.88C182.15 172.15 182.4 176.7 182.72 182.51H197.72L197.44 182.25V197.72L197.71 197.45H182.53V212.91L167.05 212.65L167.31 212.92V167.05L167 167.31Z" fill="black"/>
<path d="M167.33 106.51V91.6501L152.57 90.8401V76.1001H182.57L182.29 75.8401V106.25H167.09L167.33 106.51Z" fill="black"/>
<path d="M319.05 212.91H348.92V243.06H334.25L334.53 243.32V227.85H319.06L319.33 228.12V212.65L319.05 212.91Z" fill="black"/>
<path d="M136.65 212.64V227.36H91.3V212.64L91.04 212.92H136.91L136.65 212.64Z" fill="black"/>
<path d="M167.31 136.63H152.61V106.51H167.33L167.05 106.25V136.91L167.31 136.63Z" fill="black"/>
<path d="M45.46 212.62V227.32H31V212.89H45.73L45.46 212.62Z" fill="black"/>
<path d="M334.5 167H319.85V152.59H334.23V167.3L334.5 167Z" fill="black"/>
<path d="M334.23 167.3H348.9V182.58H334.62L334.92 182.84L334.5 167L334.23 167.3Z" fill="black"/>
<path d="M319.31 197.75V182.81H334.91L334.62 182.56C334.62 187.21 334.62 191.85 334.62 197.47H319L319.31 197.75Z" fill="black"/>
<path d="M319.34 243.06H304.12V227.84L303.86 228.12H319.33L319.06 227.85V243.32L319.34 243.06Z" fill="black"/>
<path d="M273.76 167.07H259.06V152.6H273.49V167.34L273.76 167.07Z" fill="black"/>
<path d="M228.1 167.35V152.65H242.57V167.08H227.83L228.1 167.35Z" fill="black"/>
<path d="M182.24 136.65V151.55H166.66L166.95 151.81L167.31 136.64L167.05 136.92H182.52L182.24 136.65Z" fill="black"/>
<path d="M212.34 122.11H227.53V136H212.59C212.59 131.5 212.59 126.64 212.59 121.77L212.34 122.11Z" fill="black"/>
<path d="M197.44 121.45V136.65H182.24L182.52 136.91V121.71H197.72L197.44 121.45Z" fill="black"/>
<path d="M213 288.68H198.3V274.2H212.73V289L213 288.68Z" fill="black"/>
<path d="M243 334.51H257.7V349H243.29V334.24L243 334.51Z" fill="black"/>
<path d="M288.68 334.23V348.93H274.2V334.5H289L288.68 334.23Z" fill="black"/>
<path d="M212.66 106.23C212.56 111.52 212.46 116.8 212.35 122.1L212.6 121.81C207.54 121.7 202.49 121.57 197.44 121.45L197.72 121.71V106.51H212.92L212.66 106.23Z" fill="black"/>
<path d="M319 334.51H333.7V349H319.3V334.24L319 334.51Z" fill="black"/>
<path d="M227.85 243.32V228.61H258.52V243.32H227.85Z" fill="white"/>
<path d="M258.28 258.22V272.92H243.8V258.49H258.55L258.28 258.22Z" fill="white"/>
<path d="M46 120.91V46.0801H120.82V120.91H46ZM61.29 61.2001V105.78H105.7V61.2001H61.29Z" fill="white"/>
<path d="M334 46.25V121.07H259.14V46.25H334ZM274.17 61.25V105.75H318.5V61.24L274.17 61.25Z" fill="white"/>
<path d="M121.18 259.08V333.87H46.3501V259.08H121.18ZM61.1801 318.66H105.73V274.28H61.2201L61.1801 318.66Z" fill="white"/>
<path d="M212.92 243.32H182.53V227.86L182.25 228.12H197.72V212.65L197.46 212.93H212.92V243.32Z" fill="white"/>
<path d="M182.53 212.91V197.45H197.72C197.627 202.61 197.54 207.77 197.46 212.93L197.72 212.65H182.25L182.53 212.91Z" fill="white"/>
<path d="M319.33 228.12H303.86V212.65H319.33V228.12Z" fill="white"/>
<path d="M197.45 197.72V182.25H212.14V197.72H197.45Z" fill="white"/>
<path d="M212.92 106.51H197.72V121.71H182.52V136.91H167.05V106.25H182.25V75.8401H212.92V106.51Z" fill="white"/>
<path d="M198 60.32V46.2H212.28V60.32H198Z" fill="white"/>
<path d="M91.3099 197.72H76.4599C76.1699 192.59 75.9099 188.04 75.5999 182.52H45.4399V167.05H106.51V181.91L91.3099 182.75V197.72Z" fill="white"/>
<path d="M167.31 167.05V212.92H151.85V167.05H167.31Z" fill="white"/>
<path d="M136.91 212.92H91V197.45H136.87L136.91 212.92Z" fill="white"/>
<path d="M121.41 167.3H136.11V181.77H121.68V167L121.41 167.3Z" fill="white"/>
<path d="M167.05 212.65L182.53 212.91L182.25 212.65V228.12L182.53 227.86H167.05V212.65Z" fill="white"/>
<path d="M319.06 243.32V227.85H334.53V243.32H319.06Z" fill="white"/>
<path d="M61.29 61.2H105.7V105.78H61.29V61.2Z" fill="black"/>
<path d="M274.14 61.24H318.47V105.74H274.14V61.24Z" fill="black"/>
<path d="M61.22 318.66V274.28H105.77V318.66H61.22Z" fill="black"/>
<path d="M182.25 228.12V212.65H197.72V228.12H182.25Z" fill="black"/>
</g>
<defs>
<clipPath id="clip0_18_1318">
<rect width="379.97" height="379.97" fill="white"/>
</clipPath>
</defs>
</svg>
