<svg width="123" height="1405" viewBox="0 0 123 1405" fill="none" xmlns="http://www.w3.org/2000/svg">
<g filter="url(#filter0_dd_21_1555)">
<path d="M108.464 414.594C108.456 403.448 104.486 392.667 97.264 384.177C90.0416 375.687 80.0367 370.041 69.0357 368.246C67.819 368.018 66.5643 367.866 65.2336 367.752C66.4883 367.752 67.743 368.018 69.0357 368.208V256.121C73.346 254.552 77.0691 251.694 79.6999 247.936C82.3307 244.178 83.7418 239.702 83.7418 235.115C83.7418 230.527 82.3307 226.051 79.6999 222.293C77.0691 218.535 73.346 215.678 69.0357 214.108V107.876C80.6937 105.966 91.206 99.7389 98.4825 90.4326C105.759 81.1262 109.267 69.4224 108.309 57.6479C107.351 45.8734 101.997 34.8907 93.3112 26.8832C84.6257 18.8758 73.2449 14.4302 61.4315 14.4302C49.618 14.4302 38.2372 18.8758 29.5517 26.8832C20.8662 34.8907 15.5121 45.8734 14.554 57.6479C13.5958 69.4224 17.1037 81.1262 24.3803 90.4326C31.6569 99.7389 42.1692 105.966 53.8272 107.876V214.108C49.5638 215.698 45.8882 218.553 43.2931 222.29C40.6979 226.028 39.3071 230.469 39.3071 235.02C39.3071 239.57 40.6979 244.011 43.2931 247.749C45.8882 251.486 49.5638 254.341 53.8272 255.931V368.208C55.1199 368.208 56.4126 367.828 57.6293 367.714C56.3366 367.714 55.0439 368.018 53.8272 368.246C42.824 370.035 32.8159 375.68 25.5934 384.171C18.3708 392.663 14.4048 403.447 14.4048 414.594C14.4048 425.742 18.3708 436.526 25.5934 445.017C32.8159 453.509 42.824 459.154 53.8272 460.942V602.42H54.3214H53.8272C42.824 604.208 32.8159 609.853 25.5934 618.345C18.3708 626.836 14.4048 637.62 14.4048 648.768C14.4048 659.915 18.3708 670.699 25.5934 679.191C32.8159 687.682 42.824 693.327 53.8272 695.116V787.013C49.5638 788.603 45.8882 791.458 43.2931 795.196C40.6979 798.933 39.3071 803.375 39.3071 807.925C39.3071 812.475 40.6979 816.917 43.2931 820.654C45.8882 824.392 49.5638 827.247 53.8272 828.837V917.731L57.097 917.313C55.9944 917.313 54.8918 917.579 53.8272 917.769C42.824 919.557 32.8159 925.202 25.5934 933.694C18.3708 942.185 14.4048 952.969 14.4048 964.117C14.4048 975.264 18.3708 986.048 25.5934 994.54C32.8159 1003.03 42.824 1008.68 53.8272 1010.46V1067.04C49.5 1068.59 45.7579 1071.44 43.1125 1075.2C40.4671 1078.96 39.0473 1083.45 39.0473 1088.05C39.0473 1092.64 40.4671 1097.13 43.1125 1100.89C45.7579 1104.65 49.5 1107.5 53.8272 1109.05V1188.52C49.5638 1190.11 45.8882 1192.96 43.2931 1196.7C40.6979 1200.44 39.3071 1204.88 39.3071 1209.43C39.3071 1213.98 40.6979 1218.42 43.2931 1222.16C45.8882 1225.9 49.5638 1228.75 53.8272 1230.34V1297.07C42.1692 1298.98 31.6569 1305.21 24.3803 1314.51C17.1037 1323.82 13.5958 1335.52 14.554 1347.3C15.5121 1359.07 20.8662 1370.06 29.5517 1378.06C38.2372 1386.07 49.618 1390.52 61.4315 1390.52C73.2449 1390.52 84.6257 1386.07 93.3112 1378.06C101.997 1370.06 107.351 1359.07 108.309 1347.3C109.267 1335.52 105.759 1323.82 98.4825 1314.51C91.206 1305.21 80.6937 1298.98 69.0357 1297.07V1230.53C73.2991 1228.94 76.9746 1226.09 79.5698 1222.35C82.165 1218.61 83.5558 1214.17 83.5558 1209.62C83.5558 1205.07 82.165 1200.63 79.5698 1196.89C76.9746 1193.15 73.2991 1190.3 69.0357 1188.71V1109.24C73.3629 1107.69 77.105 1104.84 79.7504 1101.08C82.3959 1097.32 83.8156 1092.83 83.8156 1088.24C83.8156 1083.64 82.3959 1079.15 79.7504 1075.39C77.105 1071.63 73.3629 1068.78 69.0357 1067.23V1010.62C80.0389 1008.83 90.0469 1003.18 97.2695 994.692C104.492 986.201 108.458 975.417 108.458 964.269C108.458 953.121 104.492 942.337 97.2695 933.846C90.0469 925.354 80.0389 919.709 69.0357 917.921L66.1841 917.541C67.1347 917.541 68.0852 917.541 69.0357 917.921V828.989C73.2991 827.399 76.9746 824.544 79.5698 820.806C82.165 817.069 83.5558 812.627 83.5558 808.077C83.5558 803.527 82.165 799.086 79.5698 795.348C76.9746 791.61 73.2991 788.755 69.0357 787.165V695.116C80.0389 693.327 90.0469 687.682 97.2695 679.191C104.492 670.699 108.458 659.915 108.458 648.768C108.458 637.62 104.492 626.836 97.2695 618.345C90.0469 609.853 80.0389 604.208 69.0357 602.42V460.942C80.0334 459.141 90.034 453.492 97.255 445.004C104.476 436.515 108.448 425.739 108.464 414.594ZM32.7253 61.5282C32.718 56.1763 34.207 50.929 37.0241 46.3786C39.8413 41.8282 43.8744 38.1559 48.6682 35.7764C53.462 33.3969 58.8255 32.4048 64.1533 32.9123C69.481 33.4197 74.5608 35.4065 78.8192 38.6482C83.0776 41.8899 86.3449 46.2575 88.2524 51.2579C90.1598 56.2583 90.6314 61.6924 89.6139 66.9466C88.5964 72.2009 86.1304 77.0661 82.4942 80.9929C78.858 84.9198 74.1964 87.7519 69.0357 89.1697C64.0657 90.5897 58.7973 90.5897 53.8272 89.1697C47.7733 87.5 42.4326 83.8937 38.622 78.902C34.8113 73.9104 32.7402 67.8081 32.7253 61.5282ZM90.1375 1343.61C90.1448 1348.96 88.6559 1354.21 85.8387 1358.76C83.0216 1363.31 78.9885 1366.98 74.1947 1369.36C69.4009 1371.74 64.0374 1372.73 58.7096 1372.22C53.3819 1371.72 48.302 1369.73 44.0437 1366.49C39.7853 1363.25 36.518 1358.88 34.6105 1353.88C32.703 1348.88 32.2314 1343.44 33.2489 1338.19C34.2664 1332.94 36.7325 1328.07 40.3687 1324.14C44.0049 1320.22 48.6665 1317.38 53.8272 1315.97C58.7973 1314.55 64.0657 1314.55 69.0357 1315.97C75.0897 1317.64 80.4302 1321.24 84.2409 1326.23C88.0516 1331.23 90.1227 1337.33 90.1375 1343.61ZM61.4315 1296.58C63.4428 1296.6 65.4499 1296.77 67.4388 1297.07C65.449 1296.78 63.442 1296.63 61.4315 1296.61C59.4084 1296.63 57.3887 1296.78 55.386 1297.07C57.3878 1296.77 59.4075 1296.6 61.4315 1296.58ZM55.9564 1010.88C57.7735 1011.11 59.601 1011.23 61.4315 1011.26C63.2493 1011.23 65.0642 1011.11 66.8685 1010.88C65.0661 1011.13 63.2501 1011.25 61.4315 1011.26C59.6002 1011.25 57.7715 1011.13 55.9564 1010.88ZM69.0357 936.627C75.0892 938.292 80.4287 941.899 84.2342 946.892C88.0397 951.886 90.1007 957.991 90.1007 964.269C90.1007 970.547 88.0397 976.652 84.2342 981.646C80.4287 986.639 75.0892 990.245 69.0357 991.91C64.0657 993.33 58.7973 993.33 53.8272 991.91C47.7737 990.245 42.4341 986.639 38.6286 981.646C34.8231 976.652 32.7621 970.547 32.7621 964.269C32.7621 957.991 34.8231 951.886 38.6286 946.892C42.4341 941.899 47.7737 938.292 53.8272 936.627C58.7973 935.207 64.0657 935.207 69.0357 936.627ZM90.1375 648.768C90.1227 655.048 88.0516 661.15 84.2409 666.142C80.4302 671.133 75.0897 674.74 69.0357 676.409C64.0657 677.829 58.7973 677.829 53.8272 676.409C47.7737 674.744 42.4341 671.138 38.6286 666.144C34.8231 661.151 32.7621 655.046 32.7621 648.768C32.7621 642.489 34.8231 636.385 38.6286 631.391C42.4341 626.398 47.7737 622.791 53.8272 621.126C58.7973 619.706 64.0657 619.706 69.0357 621.126C75.0897 622.796 80.4302 626.402 84.2409 631.394C88.0516 636.386 90.1227 642.488 90.1375 648.768ZM56.2985 461.208C58.052 461.431 59.8163 461.558 61.5835 461.589C63.3516 461.577 65.117 461.45 66.8685 461.208C65.117 461.45 63.3516 461.577 61.5835 461.589C59.8154 461.578 58.0499 461.451 56.2985 461.208ZM61.5835 443.3C59.0133 443.277 56.4571 442.919 53.9792 442.236C47.9257 440.571 42.5862 436.965 38.7807 431.971C34.9752 426.977 32.9142 420.873 32.9142 414.594C32.9142 408.316 34.9752 402.211 38.7807 397.218C42.5862 392.224 47.9257 388.618 53.9792 386.953C58.9493 385.533 64.2177 385.533 69.1878 386.953C75.2413 388.618 80.5808 392.224 84.3863 397.218C88.1918 402.211 90.2529 408.316 90.2529 414.594C90.2529 420.873 88.1918 426.977 84.3863 431.971C80.5808 436.965 75.2413 440.571 69.1878 442.236C66.6608 442.932 64.0526 443.29 61.4315 443.3H61.5835Z" fill="white"/>
</g>
<defs>
<filter id="filter0_dd_21_1555" x="0.398926" y="0.430176" width="122.065" height="1404.09" filterUnits="userSpaceOnUse" color-interpolation-filters="sRGB">
<feFlood flood-opacity="0" result="BackgroundImageFix"/>
<feColorMatrix in="SourceAlpha" type="matrix" values="0 0 0 0 0 0 0 0 0 0 0 0 0 0 0 0 0 0 127 0" result="hardAlpha"/>
<feOffset dx="4" dy="4"/>
<feGaussianBlur stdDeviation="5"/>
<feComposite in2="hardAlpha" operator="out"/>
<feColorMatrix type="matrix" values="0 0 0 0 0 0 0 0 0 0 0 0 0 0 0 0 0 0 0.1 0"/>
<feBlend mode="normal" in2="BackgroundImageFix" result="effect1_dropShadow_21_1555"/>
<feColorMatrix in="SourceAlpha" type="matrix" values="0 0 0 0 0 0 0 0 0 0 0 0 0 0 0 0 0 0 127 0" result="hardAlpha"/>
<feOffset dx="-4" dy="-4"/>
<feGaussianBlur stdDeviation="5"/>
<feComposite in2="hardAlpha" operator="out"/>
<feColorMatrix type="matrix" values="0 0 0 0 0 0 0 0 0 0 0 0 0 0 0 0 0 0 0.1 0"/>
<feBlend mode="normal" in2="effect1_dropShadow_21_1555" result="effect2_dropShadow_21_1555"/>
<feBlend mode="normal" in="SourceGraphic" in2="effect2_dropShadow_21_1555" result="shape"/>
</filter>
</defs>
</svg>
