<svg width="92" height="99" viewBox="0 0 92 99" fill="none" xmlns="http://www.w3.org/2000/svg">
<path d="M72.1675 59.1312C65.7516 63.4839 51.6541 69.6514 45.308 85.6204C39.8711 99.3016 6.36456 85.6204 12.314 58.8989C16.7229 39.0971 -6.15844 33.3065 12.314 15.6676C30.7865 -1.9713 55.8574 21.8566 67.952 14.1203C80.0466 6.38422 101.692 39.1017 72.1675 59.1312Z" fill="#FF0E0E" fill-opacity="0.25"/>
<path d="M22.8642 98.3783C22.2827 98.1327 21.7185 97.848 21.1755 97.5262C20.5191 97.1177 19.9755 96.5515 19.594 95.8791C19.2125 95.2067 19.0054 94.4495 18.9915 93.6766C18.9581 92.5602 18.9915 91.4412 18.9915 90.158H17.8109C13.6807 90.158 9.54963 90.158 5.4177 90.158C1.98127 90.1555 0 88.1691 0 84.7275C0 77.4269 0 70.1263 0 62.8257C0 59.3995 1.99154 57.4106 5.42797 57.4054C9.17494 57.4054 12.9219 57.4054 16.6689 57.4054C18.1292 57.4054 18.9786 56.5714 18.9786 55.1573C18.9872 38.5765 18.9915 21.9881 18.9915 5.39191C18.9915 2.54576 20.462 0.59528 23.0002 0.0948294C23.442 0.0215928 23.8897 -0.00934425 24.3373 0.00243849C38.7092 0.00243849 53.0897 0.00243849 67.4788 0.00243849C70.8536 0.00243849 72.8554 1.99141 72.8682 5.36111C72.8682 7.88647 72.8682 10.4118 72.8682 13.0424C73.2635 13.0629 73.5997 13.0989 73.9359 13.0989H86.3316C89.8168 13.0989 91.8443 15.1084 91.8443 18.5602C91.8443 25.8625 91.8443 33.1631 91.8443 40.462C91.8443 43.8779 89.822 45.9079 86.4215 45.9105C82.6437 45.9105 78.8651 45.9105 75.0856 45.9105C73.7151 45.9105 72.8682 46.7702 72.8682 48.1407C72.8682 62.7693 72.8169 77.3978 72.9093 92.0264C72.9273 95.1189 72.0033 97.3055 68.9852 98.3577L22.8642 98.3783ZM22.2585 53.7971C22.7718 53.4172 23.1157 53.1811 23.4442 52.9347C25.6205 51.3025 27.796 49.6686 29.9706 48.0329C30.584 47.5684 31.3154 47.3015 31.9057 47.7968C32.3881 48.2245 32.699 48.8126 32.7808 49.4521C32.9014 50.9458 32.8219 52.4574 32.8219 53.9639V57.3567C33.1691 57.3895 33.5177 57.4041 33.8664 57.4003C37.2592 57.1437 39.4458 59.7819 39.4047 62.9438C39.3098 70.1811 39.3765 77.4183 39.3739 84.6531C39.3739 88.205 37.4081 90.158 33.8356 90.1632C30.3453 90.1632 26.855 90.1632 23.3646 90.1632H22.2585C22.2585 91.1897 22.2585 92.0751 22.2585 92.9683C22.2585 94.5594 22.8052 95.1035 24.3886 95.1035H67.43C69.0366 95.1035 69.5858 94.5671 69.5858 92.9939C69.5858 78.8102 69.5858 64.6256 69.5858 50.4402C69.5858 50.1836 69.5447 49.9269 69.5191 49.6189C69.4532 49.6442 69.3889 49.6733 69.3266 49.7062C66.8628 51.5438 64.3965 53.3736 61.9379 55.2189C61.3348 55.6731 60.7188 55.9221 59.9848 55.5679C59.2508 55.2137 59.0122 54.5413 59.0224 53.738C59.0378 52.7448 59.0224 51.7516 59.0224 50.761V45.9182H58.0549C54.4234 45.8976 52.4678 43.9472 52.4678 40.3414C52.4678 33.0733 52.4678 25.8018 52.4678 18.5268C52.4678 15.1315 54.5209 13.0989 57.9189 13.0937C61.44 13.0937 64.962 13.0937 68.4848 13.0937H69.5832V5.69475C69.5832 3.71604 69.1418 3.27718 67.1605 3.27718H24.6992C22.7025 3.27718 22.2585 3.71091 22.2585 5.67678V53.7971ZM62.3074 50.7969C62.659 50.5583 62.8207 50.4582 62.9721 50.3427C66.1211 47.9816 69.2522 45.5999 72.4319 43.2825C72.9707 42.9038 73.6087 42.6914 74.2669 42.6717C78.3321 42.6178 82.3973 42.646 86.4625 42.6409C87.9742 42.6409 88.567 42.0532 88.5696 40.5544C88.5696 33.1973 88.5696 25.8403 88.5696 18.4832C88.5696 16.9921 87.9716 16.3993 86.4548 16.3993C76.918 16.3993 67.3795 16.3993 57.8393 16.3993C56.3405 16.3993 55.7554 17.0024 55.7502 18.5114C55.7502 21.1035 55.7502 23.6956 55.7502 26.2877C55.7502 31.0561 55.7502 35.8245 55.7502 40.5929C55.7502 42.0429 56.3533 42.646 57.788 42.646C58.5579 42.646 59.3278 42.646 60.0977 42.646C61.8224 42.646 62.3049 43.131 62.3074 44.8762C62.31 46.7831 62.3074 48.6925 62.3074 50.7969ZM29.542 52.4856C29.0698 52.827 28.7926 53.0246 28.5154 53.2299C25.6205 55.3985 22.7102 57.5466 19.8461 59.7511C19.0502 60.3977 18.0479 60.7358 17.023 60.7033C13.1734 60.6545 9.33919 60.6828 5.49726 60.6853C3.78033 60.6853 3.26961 61.1986 3.26961 62.9181C3.26961 70.152 3.26961 77.3867 3.26961 84.6223C3.26961 86.388 3.7829 86.8833 5.57939 86.8833C14.9896 86.8833 24.3998 86.8833 33.81 86.8833C35.5885 86.8833 36.0915 86.37 36.0941 84.6017V63.4725C36.0941 63.1208 36.1095 62.7693 36.0941 62.4177C36.0299 61.3167 35.4294 60.7213 34.3258 60.6905C33.4301 60.6674 32.5293 60.6905 31.6388 60.6905C30.0989 60.6751 29.5523 60.1284 29.5471 58.604C29.5343 56.6484 29.542 54.7004 29.542 52.4856Z" fill="black"/>
<path d="M45.8622 92.4986C43.7834 92.4986 41.7071 92.5319 39.6309 92.4986C38.1732 92.4652 37.3211 91.0485 38.1655 90.0066C38.5619 89.5674 39.1148 89.3011 39.7053 89.2649C43.8578 89.2059 48.0128 89.2187 52.1678 89.2418C53.2868 89.2418 54.0054 89.9629 53.9823 90.9177C53.9592 91.8724 53.2868 92.4883 52.1858 92.5011C50.0788 92.5217 47.9692 92.5011 45.8622 92.4986Z" fill="black"/>
<path d="M45.9212 10.594C44.1247 10.594 42.3282 10.594 40.5497 10.594C39.3101 10.594 38.6121 9.99085 38.6121 8.96942C38.6121 7.94799 39.3435 7.32948 40.5548 7.32435C44.1341 7.31408 47.7151 7.31408 51.2979 7.32435C52.5066 7.32435 53.2381 7.97109 53.2355 8.97199C53.2329 9.97289 52.5349 10.5863 51.2927 10.5914C49.5014 10.6017 47.71 10.594 45.9212 10.594Z" fill="black"/>
<path d="M83.6653 26.8342C83.4087 31.8387 80.8423 35.3239 76.677 37.5361C72.0575 39.9768 72.3885 39.9511 67.9101 37.6876C64.1298 35.7756 61.5711 32.7677 60.796 28.4741C60.0646 24.4141 62.1126 20.9237 65.7877 19.9228C67.7125 19.3967 69.5398 19.7637 71.2439 20.6928C71.9009 21.0521 72.3629 21.0777 73.0404 20.6928C77.4444 18.2957 82.4001 20.4028 83.4652 25.089C83.567 25.6662 83.6338 26.249 83.6653 26.8342ZM80.329 27.9762C80.4265 23.9033 77.8422 22.1453 75.0191 23.3824C74.4478 23.6652 73.9127 24.0159 73.4254 24.4269C72.4989 25.1455 71.8444 25.1558 70.9257 24.4269C70.4899 24.053 70.0159 23.7261 69.5116 23.4517C66.6013 22.0504 63.8655 23.8135 63.9835 27.0446C64.1016 30.2758 65.8108 32.5701 68.4106 34.151C72.3269 36.5327 72.0908 36.5096 76.0636 34.0586C78.6223 32.488 80.2264 30.1372 80.329 27.9762Z" fill="black"/>
<path d="M8.22557 71.3487C8.12035 65.4665 13.7459 62.184 18.8762 65.0148C19.1138 65.179 19.3958 65.267 19.6846 65.267C19.9735 65.267 20.2554 65.179 20.493 65.0148C25.0844 62.474 30.5021 64.9275 31.0898 69.855C31.5158 73.3351 30.3198 76.3429 27.9793 78.9016C25.8748 81.2114 23.2032 82.6101 20.2518 83.5212C19.9187 83.6251 19.5631 83.6339 19.2252 83.5469C15.119 82.2637 11.6389 80.1618 9.52418 76.2582C8.67317 74.7619 8.22567 73.0701 8.22557 71.3487ZM27.8843 71.1793C27.9254 68.2895 25.5283 66.5444 22.8259 67.5401C22.2316 67.7739 21.6768 68.0976 21.1808 68.5C19.9438 69.4726 19.4511 69.4624 18.1627 68.4794C17.6118 68.0457 16.9925 67.7065 16.3303 67.476C13.7305 66.6368 11.4747 68.3768 11.4875 71.1151C11.494 72.7259 12.0017 74.2946 12.9401 75.6038C14.5261 77.8751 16.7897 79.225 19.3382 80.113C19.6383 80.2069 19.9627 80.184 20.2467 80.0488C21.8019 79.184 23.4573 78.432 24.8405 77.3387C25.7856 76.6136 26.5516 75.6812 27.0793 74.6133C27.607 73.5453 27.8824 72.3705 27.8843 71.1793Z" fill="black"/>
</svg>
