<svg width="100" height="82" viewBox="0 0 100 82" fill="none" xmlns="http://www.w3.org/2000/svg">
<path d="M30.0315 60.2519C28.3137 52.9009 7.63728 40.9552 19.8267 28.4371C32.339 15.5872 41.8722 15.1704 46.2251 5.19922C51.275 -6.36825 74.3188 2.78919 71.8886 18.6975C69.4584 34.6057 84.1156 38.5402 81.424 48.2772C77.4686 62.5859 61.4104 44.8414 63.3481 68.2296C64.142 77.8113 51.275 86.2876 37.5595 79.6186C23.7536 72.9052 31.2819 65.6017 30.0315 60.2519Z" fill="#FF0E0E" fill-opacity="0.25"/>
<path d="M73.3332 32.4002H59.9995C59.1155 32.4002 58.2676 32.0495 57.6424 31.4253C57.0173 30.8011 56.6661 29.9545 56.6661 29.0717C56.6661 28.1889 57.0173 27.3423 57.6424 26.7181C58.2676 26.0939 59.1155 25.7432 59.9995 25.7432H73.3332C74.2173 25.7432 75.0651 26.0939 75.6903 26.7181C76.3154 27.3423 76.6666 28.1889 76.6666 29.0717C76.6666 29.9545 76.3154 30.8011 75.6903 31.4253C75.0651 32.0495 74.2173 32.4002 73.3332 32.4002ZM39.999 25.7432H36.6656V22.4148C36.6656 21.532 36.3144 20.6854 35.6893 20.0612C35.0641 19.437 34.2163 19.0863 33.3322 19.0863C32.4481 19.0863 31.6003 19.437 30.9751 20.0612C30.35 20.6854 29.9988 21.532 29.9988 22.4148V25.7432H26.6654C25.7813 25.7432 24.9334 26.0939 24.3083 26.7181C23.6831 27.3423 23.3319 28.1889 23.3319 29.0717C23.3319 29.9545 23.6831 30.8011 24.3083 31.4253C24.9334 32.0495 25.7813 32.4002 26.6654 32.4002H29.9988V35.7286C29.9988 36.6114 30.35 37.458 30.9751 38.0822C31.6003 38.7064 32.4481 39.0571 33.3322 39.0571C34.2163 39.0571 35.0641 38.7064 35.6893 38.0822C36.3144 37.458 36.6656 36.6114 36.6656 35.7286V32.4002H39.999C40.8831 32.4002 41.731 32.0495 42.3561 31.4253C42.9812 30.8011 43.3324 29.9545 43.3324 29.0717C43.3324 28.1889 42.9812 27.3423 42.3561 26.7181C41.731 26.0939 40.8831 25.7432 39.999 25.7432ZM87.6069 77.1057C85.2324 77.5228 82.7923 77.3627 80.4928 76.639C78.1934 75.9153 76.1024 74.6493 74.3966 72.948C74.3341 72.8859 74.2746 72.8218 74.2182 72.7558L57.2711 53.9711L42.7499 54.0294L25.7795 72.762C25.7242 72.8258 25.6664 72.8878 25.6062 72.948C23.3501 75.2 20.4337 76.6752 17.2807 77.1593C14.1277 77.6434 10.9022 77.1113 8.07278 75.6402C5.24332 74.169 2.95721 71.8355 1.5465 68.9786C0.135787 66.1216 -0.326063 62.89 0.228029 59.7531L0.238446 59.6957L7.02778 24.8308C7.03195 24.8004 7.03737 24.7701 7.04237 24.7401C8.05223 18.9542 11.0771 13.7108 15.5828 9.93561C20.0886 6.16047 25.7853 4.0965 31.6672 4.10817L68.3306 4H68.3406C74.1924 4.00819 79.8564 6.06288 84.3489 9.80716C88.8414 13.5514 91.8784 18.7488 92.9324 24.4963C92.9379 24.5221 92.9462 24.5471 92.9516 24.5733L99.7643 59.6982L99.7747 59.7531C100.461 63.6647 99.5652 67.6884 97.2841 70.9415C95.003 74.1945 91.5228 76.4112 87.6069 77.1053V77.1057ZM68.3272 47.2701C70.7349 47.2712 73.1191 46.7988 75.3439 45.8798C77.5687 44.9608 79.5904 43.6133 81.2936 41.9141C82.9969 40.215 84.3482 38.1975 85.2706 35.9768C86.193 33.7562 86.6683 31.3759 86.6694 28.9718C86.6705 26.5678 86.1973 24.1871 85.277 21.9656C84.3566 19.7441 83.0071 17.7254 81.3054 16.0247C79.6037 14.324 77.5833 12.9746 75.3593 12.0536C73.1354 11.1326 70.7515 10.658 68.3439 10.6569L31.6767 10.7651C27.3873 10.7541 23.2303 12.2485 19.9324 14.9873C16.6344 17.726 14.4052 21.5349 13.6342 25.7482C13.625 25.8151 13.6139 25.8825 13.6009 25.9504L6.78819 60.936C6.48805 62.6698 6.74599 64.454 7.52496 66.0323C8.30394 67.6106 9.56386 68.9017 11.1237 69.7202C12.6836 70.5387 14.4632 70.8425 16.2068 70.5879C17.9504 70.3333 19.5683 69.5334 20.8281 68.3031L38.7928 48.4738C39.1037 48.1305 39.483 47.8558 39.9063 47.6672C40.3296 47.4786 40.7876 47.3802 41.2511 47.3783L68.3272 47.2701ZM93.2133 60.9347L89.5665 42.1322C87.3243 45.7376 84.1986 48.7128 80.4847 50.7766C76.7708 52.8405 72.5913 53.9249 68.341 53.9275L66.2118 53.9358L79.1754 68.3048C80.4354 69.5348 82.0535 70.3344 83.7972 70.5887C85.5408 70.843 87.3203 70.5388 88.88 69.72C90.4397 68.9011 91.6993 67.6097 92.4779 66.0312C93.2565 64.4527 93.5139 62.6685 93.2133 60.9347Z" fill="black"/>
</svg>
