<svg width="100" height="93" viewBox="0 0 100 93" fill="none" xmlns="http://www.w3.org/2000/svg">
<path d="M24.1057 9H27.5693C30.1185 9.41217 32.4703 10.2763 34.4965 11.9441C35.9426 13.1425 37.2934 14.443 38.6113 15.7783C41.2644 18.4799 44.1201 20.9494 47.3118 23.0172C53.9221 27.3207 61.2372 29.934 68.7862 31.981C73.107 33.1517 77.5075 33.9431 81.8803 34.8783C86.383 35.8429 89.1054 38.8112 89.7911 43.3087C90.3471 46.9576 89.734 50.4991 88.6516 53.9731C86.5059 60.8708 82.9367 67.0066 78.486 72.6454C74.9895 77.0597 71.0756 81.0757 66.1885 83.9627C58.2984 88.6385 53.5979 55.6495 44.622 53.9731C32.0197 51.6196 18.9259 79.1032 13.2699 67.5695C10.1526 61.212 8.94903 54.3298 8.32038 47.3368C8.17318 45.7038 8.10391 44.062 8 42.4237V39.1333C8.10218 37.6994 8.18703 36.2654 8.30653 34.8332C8.70138 30.1279 9.5413 25.5283 11.2454 21.1105C12.0769 18.8952 13.2035 16.8022 14.5947 14.8881C16.9828 11.66 20.1226 9.6373 24.1057 9Z" fill="#FF0E0E" fill-opacity="0.25"/>
<path d="M99.0794 6.57427V78.5603C99.0061 78.7334 98.9422 78.9103 98.8881 79.0903C98.5043 80.8054 97.5478 82.3386 96.1761 83.4373C94.8043 84.536 93.0992 85.1346 91.3417 85.1346C89.0848 85.1604 86.8253 85.1346 84.5684 85.1346C84.2582 85.1346 83.9505 85.163 83.5989 85.1785C83.5989 87.0114 83.5989 88.7487 83.5989 90.4886C83.5989 92.2285 82.9087 92.8696 81.174 92.8722H68.5916C66.5984 92.8722 65.9909 92.2646 65.9883 90.2869V85.2173H33.0885C33.0885 87.1304 33.1066 88.9685 33.0885 90.804C33.0704 92.0966 32.3129 92.8722 31.0358 92.8722C26.5547 92.8911 22.0737 92.8911 17.5926 92.8722C16.2586 92.8722 15.5244 92.0966 15.4959 90.7471C15.4778 89.6199 15.4959 88.4902 15.4959 87.3605V85.1371H8.38135C3.21087 85.1371 0 81.9133 0 76.748V8.43822C0 3.19794 3.19277 0 8.42272 0H63.5737C72.7668 0 81.9582 0 91.1478 0C95.0257 0 98.0117 2.38876 98.9036 6.14253C98.9513 6.29063 99.0101 6.43494 99.0794 6.57427ZM87.4018 73.4906V11.6749H11.6543V23.2155C12.8512 23.2155 14.0043 23.2155 15.1573 23.2155C16.6774 23.2155 17.4013 23.9497 17.409 25.4801C17.4194 27.8017 17.4194 30.1232 17.409 32.4448C17.409 34.1433 16.7136 34.818 14.9789 34.8232C13.8646 34.8232 12.753 34.8232 11.6569 34.8232V50.3088C12.859 50.3088 14.012 50.3088 15.165 50.3088C16.6826 50.3088 17.4013 51.0456 17.409 52.5812C17.409 54.8691 17.409 57.1597 17.409 59.4476C17.409 61.2418 16.7446 61.9088 14.9711 61.9165C13.8569 61.9165 12.7452 61.9165 11.6594 61.9165V73.4881L87.4018 73.4906ZM3.87011 61.9398V62.9739C3.87011 67.617 3.87011 72.2609 3.87011 76.9057C3.87011 79.7314 5.42125 81.2774 8.22624 81.2774H90.8531C93.6659 81.2774 95.2093 79.7262 95.2093 76.9032V8.20038C95.2015 5.42901 93.6504 3.87786 90.9152 3.87786H8.18746C5.42901 3.87786 3.87011 5.42901 3.86752 8.18487C3.86752 12.8624 3.86752 17.5391 3.86752 22.215C3.86752 22.5278 3.89337 22.8406 3.90888 23.1612H7.73504C7.73504 18.7663 7.73504 14.4593 7.73504 10.1419C7.73504 8.42271 8.41496 7.74797 10.1471 7.74797H88.9142C90.6463 7.74797 91.3366 8.4253 91.3366 10.1341C91.3366 31.7761 91.3366 53.4171 91.3366 75.0573C91.3366 76.7067 90.6308 77.4099 88.9788 77.4099H10.129C8.4253 77.4099 7.74797 76.7144 7.74538 74.9823C7.74538 70.9821 7.74538 66.9827 7.74538 62.9842V61.9501L3.87011 61.9398ZM3.94249 34.8697V50.2286H7.69109V34.8697H3.94249ZM29.1822 85.2069H19.4281V88.9607H29.177L29.1822 85.2069ZM79.69 85.2069H69.9359V88.9607H79.69V85.2069ZM3.91405 30.8885H13.4794V27.145H3.91405V30.8885ZM3.91405 57.9818H13.4794V54.228H3.91405V57.9818Z" fill="black"/>
<path d="M49.4995 65.7892C44.9055 65.7805 40.4173 64.4094 36.6027 61.8495C32.788 59.2895 29.8184 55.6557 28.0693 51.4077C26.3203 47.1597 25.8704 42.4883 26.7767 37.9846C27.683 33.4809 29.9047 29.3472 33.1607 26.1063C36.4167 22.8655 40.5608 20.6632 45.0687 19.778C49.5766 18.8928 54.2458 19.3645 58.4856 21.1334C62.7254 22.9023 66.3452 25.8889 68.8873 29.7155C71.4294 33.5421 72.7794 38.0366 72.7667 42.6306C72.738 48.7826 70.2739 54.6728 65.9136 59.0128C61.5533 63.3528 55.6516 65.7892 49.4995 65.7892ZM47.6045 23.3912C37.7806 24.0763 30.6066 32.9799 30.4359 40.6219C34.169 40.6219 37.8995 40.6219 41.63 40.6012C41.8213 40.6012 42.1031 40.3142 42.1833 40.1022C42.5751 38.9713 43.2173 37.9435 44.062 37.0957C44.9068 36.2478 45.9322 35.6018 47.0616 35.2058C47.1908 35.1479 47.3048 35.0608 47.3945 34.9514C47.4843 34.8419 47.5473 34.713 47.5787 34.575C47.6123 30.8833 47.6045 27.1838 47.6045 23.399V23.3912ZM51.5573 23.4197C51.523 23.5026 51.4987 23.5894 51.485 23.6782C51.485 27.2975 51.4643 30.8936 51.5031 34.5C51.5031 34.7585 51.865 35.1256 52.1416 35.2368C54.3934 36.1313 55.9859 37.6721 56.8106 39.9523C56.9993 40.4693 57.232 40.6374 57.7697 40.627C59.6052 40.5934 61.4407 40.6141 63.2788 40.6141H68.6716C68.258 31.9044 60.2515 23.8721 51.5573 23.4274V23.4197ZM51.4746 61.7278C61.3683 61.0323 68.4674 52.0745 68.6432 44.4971C64.9101 44.4971 61.1796 44.4971 57.4491 44.5178C57.2578 44.5178 56.9734 44.8022 56.8933 45.0142C56.5037 46.1451 55.8638 47.1735 55.0213 48.0226C54.1789 48.8718 53.1556 49.5198 52.0279 49.9184C51.8987 49.977 51.7848 50.0646 51.6951 50.1745C51.6055 50.2844 51.5424 50.4135 51.5108 50.5518C51.4669 54.2512 51.4746 57.9507 51.4746 61.7355V61.7278ZM30.3997 44.4946C30.847 53.3542 38.9646 61.2753 47.5114 61.6942C47.5462 61.6405 47.5708 61.5809 47.5838 61.5184C47.5838 57.8809 47.6123 54.2409 47.5838 50.6035C47.5838 50.3449 47.2167 49.9804 46.9401 49.8693C44.691 48.9696 43.0933 47.4314 42.2712 45.1512C42.0824 44.6342 41.842 44.4739 41.3095 44.4816C39.28 44.5126 37.2506 44.4816 35.2212 44.4816L30.3997 44.4946ZM53.4084 42.5194C53.4027 41.7515 53.1691 41.0026 52.7373 40.3676C52.3054 39.7325 51.6948 39.24 50.9827 38.9525C50.2706 38.6649 49.4892 38.5953 48.7375 38.7523C47.9858 38.9094 47.2977 39.2861 46.7603 39.8347C46.2229 40.3833 45.8606 41.0791 45.7191 41.8339C45.5777 42.5887 45.6635 43.3685 45.9658 44.0745C46.268 44.7805 46.7731 45.3808 47.4169 45.7994C48.0607 46.2179 48.8144 46.4359 49.5822 46.4257C50.6049 46.4114 51.5804 45.9937 52.2965 45.2636C53.0127 44.5334 53.4114 43.5499 53.4058 42.5272L53.4084 42.5194Z" fill="black"/>
</svg>
