<svg width="214" height="214" viewBox="0 0 214 214" fill="none" xmlns="http://www.w3.org/2000/svg">
<g filter="url(#filter0_dd_0_1)">
<circle cx="107" cy="107" r="100" fill="white"/>
</g>
<path d="M150.661 116.419H147.694V119.406H150.661V116.419ZM144.339 107.044H141.425C141.211 116.531 137.928 124.664 131.261 131.319C124.6 137.969 116.456 141.225 107.069 141.431V144.397C128.431 144.706 145.089 125.964 144.339 107.044ZM107.228 153.858C104.381 153.847 101.492 153.625 98.7 153.094C83.9694 150.286 72.9667 142.211 65.6972 129.136C61.8639 122.244 60.1083 114.761 60.1056 106.872C60.1056 104.867 60.1056 102.858 60.1056 100.75H57V109.733C57.2167 111.467 57.3722 113.211 57.6583 114.933C59.2556 124.567 63.2611 133.081 69.8139 140.325C77.8889 149.253 87.9028 154.658 99.8361 156.436C101.308 156.656 102.789 156.814 104.267 157H157V153.875C156.806 153.881 156.611 153.892 156.414 153.892C140.019 153.892 123.625 153.928 107.228 153.858ZM126.017 67.6556C109.439 59.4222 89.0944 62.9639 76.0222 76.175C62.8333 89.5056 59.5139 109.711 67.7278 126.225C76.3778 143.611 93.6389 151.022 106.933 150.628V147.894C103.908 147.469 100.975 147.258 98.1333 146.628C76.5056 141.844 62.6389 120.333 67.1889 98.7333C71.8667 76.525 93.8861 62.2 115.883 67.3944C131.136 70.9972 141.119 80.6194 145.972 95.5111C147.556 100.367 147.767 105.406 147.644 110.469C147.622 111.367 147.642 112.267 147.642 113.178H150.644C152.278 93.0639 143.303 76.2389 126.017 67.6556ZM150.694 122.706H147.697V125.653H150.694V122.706ZM60.05 94.5H57V97.625H60.05V94.5ZM60.05 88.25H57V91.375H60.05V88.25ZM125.686 150.678V147.714H122.706V150.678H125.686ZM95.9694 100.836H93.0139V103.822H95.9694V100.836ZM153.95 113.25H157V110.125H153.95V113.25ZM99.1611 75.8472V88.3H89.8917V91.4028H99.1278V119.55H93.0361V122.653H99.2417V125.667H102.314V122.661H105.472V131.928H108.581V122.606C110.289 122.606 111.881 122.669 113.469 122.594C118.006 122.378 121.358 120.225 123.203 116.083C125.033 111.969 124.386 108.056 121.503 104.603C120.65 103.581 119.511 102.797 118.486 101.892C118.494 101.881 118.542 101.794 118.608 101.725C121.075 99.1722 121.792 96.2 120.361 92.9472C118.933 89.6944 116.247 88.2222 112.714 88.2667C111.358 88.2833 110 88.2694 108.531 88.2694V85.2H105.425V88.225H102.269V75.8472H99.1611ZM121.056 112.467C120.692 116.375 117.319 119.469 113.356 119.514C111.797 119.531 110.239 119.517 108.611 119.517V104.042C110.753 104.042 112.872 103.769 114.889 104.1C118.819 104.744 121.428 108.483 121.056 112.467ZM108.578 91.5306C110.572 91.5306 112.572 91.2861 114.481 91.5944C116.789 91.9639 118.208 94.325 117.931 96.65C117.656 98.9306 115.667 100.725 113.333 100.764C111.781 100.789 110.225 100.769 108.578 100.769V91.5306ZM105.403 119.469H102.375V103.908H105.403V119.469ZM102.356 91.4194H105.394V100.728H102.356V91.4194ZM86.7639 100.836V103.806H89.75V100.836H86.7639ZM156.628 101.286C155.319 90.2028 150.819 80.5917 143.122 72.5361C135.178 64.2222 125.469 59.2194 114.069 57.55C112.628 57.3389 111.181 57.1833 109.733 57H57V60.125C57.1306 60.1194 57.2611 60.1083 57.3889 60.1083C73.9778 60.1083 90.5694 60.1 107.158 60.1111C112.269 60.1139 117.286 60.8472 122.081 62.6306C139.467 69.1083 149.906 81.4917 153.294 99.7444C153.731 102.092 153.797 104.506 154.036 106.922C154.022 106.911 154.047 106.947 154.072 106.947C155.05 106.967 156.025 106.983 157 107V104.267C156.875 103.272 156.744 102.281 156.628 101.286ZM113.161 150.686V147.706H110.197V150.686H113.161ZM119.414 150.656V147.7H116.428V150.656H119.414ZM86.6111 88.3028H83.6556V91.2889H86.6111V88.3028ZM75.8139 107.089C75.6861 123.669 89.5694 138.872 108.364 138.211C126.322 137.581 140.247 121.217 137.997 103.269C135.706 85.0056 119.531 75.2806 107.047 75.9028V78.7806C122.253 78.8194 134.803 91.1 135.119 106.233C135.422 120.719 125.361 132.636 110.975 134.847C104.192 135.889 97.7917 134.514 92.025 130.786C83.4444 125.239 79.1861 117.181 78.7833 107.089H75.8139Z" fill="#FF0E0E"/>
<defs>
<filter id="filter0_dd_0_1" x="0" y="0" width="214" height="214" filterUnits="userSpaceOnUse" color-interpolation-filters="sRGB">
<feFlood flood-opacity="0" result="BackgroundImageFix"/>
<feColorMatrix in="SourceAlpha" type="matrix" values="0 0 0 0 0 0 0 0 0 0 0 0 0 0 0 0 0 0 127 0" result="hardAlpha"/>
<feOffset dx="2" dy="2"/>
<feGaussianBlur stdDeviation="2.5"/>
<feComposite in2="hardAlpha" operator="out"/>
<feColorMatrix type="matrix" values="0 0 0 0 0 0 0 0 0 0 0 0 0 0 0 0 0 0 0.05 0"/>
<feBlend mode="normal" in2="BackgroundImageFix" result="effect1_dropShadow_0_1"/>
<feColorMatrix in="SourceAlpha" type="matrix" values="0 0 0 0 0 0 0 0 0 0 0 0 0 0 0 0 0 0 127 0" result="hardAlpha"/>
<feOffset dx="-2" dy="-2"/>
<feGaussianBlur stdDeviation="2.5"/>
<feComposite in2="hardAlpha" operator="out"/>
<feColorMatrix type="matrix" values="0 0 0 0 0 0 0 0 0 0 0 0 0 0 0 0 0 0 0.05 0"/>
<feBlend mode="normal" in2="effect1_dropShadow_0_1" result="effect2_dropShadow_0_1"/>
<feBlend mode="normal" in="SourceGraphic" in2="effect2_dropShadow_0_1" result="shape"/>
</filter>
</defs>
</svg>
