<svg width="214" height="214" viewBox="0 0 214 214" fill="none" xmlns="http://www.w3.org/2000/svg">
<g filter="url(#filter0_dd_21_3658)">
<circle cx="107" cy="107" r="100" fill="white"/>
</g>
<path d="M148.462 156.992C146.156 156.512 144.492 155.077 142.88 153.452C135.429 145.938 127.951 138.449 120.447 130.985C120.194 130.733 119.963 130.461 119.687 130.163C108.449 137.317 96.5135 139.101 83.9086 134.809C74.7574 131.694 67.709 125.824 62.6889 117.556C52.7624 101.224 56.1006 79.7944 70.5616 66.9663C84.8014 54.3359 106.403 53.682 121.441 65.167C136.977 77.0299 142.927 100.744 130.136 119.751C130.483 119.955 130.81 120.189 131.115 120.45C138.585 127.904 146.053 135.359 153.519 142.813C155.141 144.423 156.589 146.083 157.055 148.397V150.746C156.456 151.951 155.99 153.249 155.229 154.337C154.136 155.904 152.407 156.558 150.606 157L148.462 156.992ZM132.124 97.11C132.21 77.8561 116.564 62.1303 97.232 62.0344C77.982 61.9424 62.2347 77.5703 62.1094 96.8849C61.9841 116.158 77.5963 131.878 97.0284 132.045C116.273 132.219 132.039 116.519 132.124 97.11ZM123.658 127.099C123.793 127.244 123.92 127.389 124.049 127.526L147.538 151.007C147.721 151.195 147.918 151.371 148.125 151.532C148.453 151.789 148.84 151.96 149.25 152.027C149.661 152.095 150.082 152.058 150.475 151.919C150.867 151.78 151.218 151.544 151.495 151.233C151.771 150.922 151.965 150.546 152.057 150.14C152.345 149.02 151.822 148.199 151.078 147.449L127.654 124.049C127.478 123.872 127.276 123.724 127.147 123.614L123.658 127.099Z" fill="#FF0E0E"/>
<path d="M88.9856 96.5619C82.5246 90.6882 84.0145 82.0734 88.5568 77.8542C90.8976 75.689 93.9714 74.4906 97.16 74.5001C100.349 74.5095 103.415 75.7261 105.743 77.9051C110.544 82.4082 111.421 90.9858 105.383 96.4757C106.802 97.625 108.347 98.6685 109.643 99.9627C112.815 103.129 114.405 107.044 114.62 111.514C114.716 113.523 113.71 114.574 111.721 114.574C101.989 114.574 92.2566 114.574 82.5246 114.574C80.5667 114.574 79.574 113.578 79.6641 111.598C79.9538 105.229 82.8887 100.411 88.2788 97.0592C88.4746 96.9397 88.6704 96.8399 88.8662 96.7204C88.9249 96.6891 88.9484 96.6147 88.9856 96.5619ZM109.307 109.507C108.304 103.524 102.149 98.9544 96.0575 99.5927C90.4599 100.18 84.8975 105.167 85.0542 109.507H109.307ZM97.1285 94.5452C98.6068 94.5437 100.052 94.1043 101.28 93.2824C102.509 92.4606 103.467 91.2932 104.033 89.9276C104.599 88.5619 104.748 87.0592 104.461 85.609C104.174 84.1588 103.464 82.8261 102.42 81.7791C101.376 80.7321 100.046 80.0178 98.5968 79.7261C97.1475 79.4345 95.6443 79.5787 94.2768 80.1405C92.9094 80.7023 91.739 81.6566 90.9134 82.8828C90.0877 84.1091 89.6438 85.5525 89.6376 87.0308C89.6376 89.0197 90.426 90.9275 91.8302 92.336C93.2343 93.7446 95.1396 94.539 97.1285 94.5452Z" fill="#FF0E0E"/>
<defs>
<filter id="filter0_dd_21_3658" x="0" y="0" width="214" height="214" filterUnits="userSpaceOnUse" color-interpolation-filters="sRGB">
<feFlood flood-opacity="0" result="BackgroundImageFix"/>
<feColorMatrix in="SourceAlpha" type="matrix" values="0 0 0 0 0 0 0 0 0 0 0 0 0 0 0 0 0 0 127 0" result="hardAlpha"/>
<feOffset dx="2" dy="2"/>
<feGaussianBlur stdDeviation="2.5"/>
<feComposite in2="hardAlpha" operator="out"/>
<feColorMatrix type="matrix" values="0 0 0 0 0 0 0 0 0 0 0 0 0 0 0 0 0 0 0.05 0"/>
<feBlend mode="normal" in2="BackgroundImageFix" result="effect1_dropShadow_21_3658"/>
<feColorMatrix in="SourceAlpha" type="matrix" values="0 0 0 0 0 0 0 0 0 0 0 0 0 0 0 0 0 0 127 0" result="hardAlpha"/>
<feOffset dx="-2" dy="-2"/>
<feGaussianBlur stdDeviation="2.5"/>
<feComposite in2="hardAlpha" operator="out"/>
<feColorMatrix type="matrix" values="0 0 0 0 0 0 0 0 0 0 0 0 0 0 0 0 0 0 0.05 0"/>
<feBlend mode="normal" in2="effect1_dropShadow_21_3658" result="effect2_dropShadow_21_3658"/>
<feBlend mode="normal" in="SourceGraphic" in2="effect2_dropShadow_21_3658" result="shape"/>
</filter>
</defs>
</svg>
