<svg width="214" height="214" viewBox="0 0 214 214" fill="none" xmlns="http://www.w3.org/2000/svg">
<g filter="url(#filter0_dd_21_3678)">
<circle cx="107" cy="107" r="100" fill="white"/>
</g>
<path d="M87.0095 88.3982C87.0095 86.3309 87.0165 84.2627 87.0026 82.1954C87.0026 81.8172 87.1217 81.581 87.4551 81.3885C91.0571 79.3129 94.6531 77.2285 98.2431 75.135C98.3697 75.0479 98.5195 75.0009 98.6731 75C98.8267 74.9991 98.9771 75.0444 99.1046 75.1301C102.709 77.2268 106.316 79.3156 109.928 81.3964C110.065 81.4653 110.178 81.5734 110.253 81.7068C110.328 81.8403 110.362 81.9932 110.349 82.1458C110.341 86.318 110.341 90.4903 110.349 94.6626C110.349 95.0328 110.212 95.2521 109.898 95.4338C106.298 97.51 102.703 99.5942 99.1105 101.686C98.9832 101.772 98.833 101.818 98.6793 101.818C98.5256 101.818 98.3754 101.772 98.2481 101.686C94.6455 99.5902 91.0396 97.5011 87.4303 95.4189C87.2917 95.3517 87.1767 95.2442 87.1004 95.1105C87.0241 94.9767 86.99 94.823 87.0026 94.6696C87.0155 92.5775 87.0095 90.4824 87.0095 88.3982ZM109.324 88.3982C109.324 86.454 109.324 84.5098 109.329 82.5656C109.339 82.4644 109.318 82.3626 109.269 82.2739C109.219 82.1851 109.143 82.1137 109.052 82.0693C105.687 80.1248 102.325 78.1753 98.9676 76.2208C98.8843 76.161 98.7844 76.1288 98.6818 76.1288C98.5793 76.1288 98.4793 76.161 98.396 76.2208C95.0507 78.168 91.7002 80.1099 88.3444 82.0465C88.1121 82.1805 88.0218 82.3204 88.0218 82.5943C88.0317 86.4696 88.0317 90.3454 88.0218 94.222C88.0218 94.4899 88.0972 94.6378 88.3344 94.7748C91.6903 96.7081 95.0405 98.65 98.3851 100.601C98.6352 100.746 98.8019 100.7 99.0212 100.567C102.347 98.6321 105.677 96.7038 109.009 94.7817C109.244 94.6468 109.332 94.5038 109.33 94.2319C109.319 92.2837 109.324 90.3395 109.324 88.3982Z" fill="#FF0E0E"/>
<path d="M88.5281 88.4067C88.5281 86.6361 88.5361 84.8656 88.5222 83.095C88.5222 82.705 88.6482 82.4598 88.9966 82.2594C92.0752 80.4921 95.1488 78.7136 98.2175 76.9239C98.3543 76.8303 98.5162 76.7803 98.682 76.7803C98.8477 76.7803 99.0096 76.8303 99.1464 76.9239C102.214 78.7103 105.287 80.4888 108.363 82.2594C108.693 82.4489 108.836 82.6792 108.835 83.0603C108.826 86.6265 108.826 90.1924 108.835 93.758C108.835 94.1401 108.689 94.3683 108.361 94.5569C105.295 96.3208 102.233 98.0937 99.1772 99.8755C98.8229 100.082 98.5371 100.074 98.1847 99.8755C95.1472 98.103 92.1046 96.3427 89.0571 94.5946C88.6601 94.3664 88.5142 94.0934 88.5202 93.6439C88.54 91.8981 88.5281 90.1524 88.5281 88.4067ZM89.5414 88.4205C89.5414 90.067 89.5464 91.7135 89.5355 93.36C89.524 93.4614 89.5447 93.5638 89.5945 93.6529C89.6444 93.7419 89.7209 93.813 89.8134 93.8562C92.6855 95.5103 95.5531 97.1707 98.416 98.8374C98.4889 98.8907 98.5765 98.9201 98.6668 98.9215C98.7571 98.9229 98.8456 98.8963 98.9202 98.8453C101.796 97.1727 104.674 95.506 107.555 93.8453C107.636 93.8078 107.705 93.7459 107.751 93.6681C107.796 93.5904 107.817 93.5005 107.81 93.4106C107.802 90.0799 107.802 86.7496 107.81 83.4196C107.818 83.325 107.798 83.23 107.751 83.1475C107.704 83.065 107.632 82.9989 107.547 82.9581C104.685 81.3099 101.827 79.6558 98.9718 77.9958C98.8886 77.9361 98.7891 77.9036 98.6867 77.9027C98.5844 77.9018 98.4843 77.9326 98.4001 77.9908C95.5471 79.6522 92.6892 81.3063 89.8263 82.9531C89.6 83.0831 89.5375 83.232 89.5385 83.4811C89.5464 85.1276 89.5414 86.7741 89.5414 88.4205Z" fill="#FF0E0E"/>
<path d="M91.568 88.2212C91.568 89.5167 91.568 90.8115 91.568 92.1057C91.5725 92.2541 91.5665 92.4027 91.5501 92.5503C91.5395 92.669 91.4827 92.7788 91.3919 92.856C91.3012 92.9332 91.1837 92.9717 91.0648 92.9632C90.9456 92.9687 90.8287 92.9288 90.7379 92.8514C90.647 92.774 90.589 92.6649 90.5755 92.5464C90.5658 92.4727 90.5624 92.3983 90.5656 92.324V85.0066C90.5656 84.9451 90.5438 84.8627 90.5746 84.824C90.7016 84.6633 90.8286 84.4151 90.9864 84.3883C91.1442 84.3616 91.4211 84.5134 91.5124 84.6662C91.6742 84.9352 91.7377 85.2617 91.8389 85.5694C92.3683 87.1527 92.8952 88.7356 93.4199 90.3183C93.4542 90.4364 93.5197 90.543 93.6095 90.6269V90.2617C93.6095 87.7111 93.6095 85.1605 93.6095 82.6099C93.6095 82.4739 93.5678 82.2982 93.6353 82.2129C93.7584 82.0541 93.9499 81.8477 94.1107 81.8477C94.2715 81.8477 94.4521 82.0571 94.5861 82.2079C94.6436 82.2724 94.6119 82.4223 94.6119 82.5334C94.6119 86.2724 94.6119 90.0106 94.6119 93.7482C94.6119 93.8107 94.6119 93.8723 94.6119 93.9348C94.6119 94.2147 94.4918 94.4191 94.2 94.4677C93.9082 94.5164 93.7038 94.3685 93.6125 94.0827C93.3197 93.2034 93.0239 92.324 92.7312 91.4447C92.4003 90.4602 92.0722 89.475 91.7466 88.4892C91.7139 88.3899 91.6692 88.2986 91.6295 88.2034L91.568 88.2212Z" fill="#FF0E0E"/>
<path d="M96.1739 87.9092C97.1574 87.9092 98.1092 87.8993 99.061 87.9192C99.2518 87.9204 99.4348 87.995 99.5721 88.1276C99.6182 88.201 99.6458 88.2845 99.6526 88.3709C99.6593 88.4574 99.645 88.5441 99.6108 88.6238C99.555 88.6993 99.4837 88.7621 99.4017 88.808C99.3198 88.8538 99.229 88.8817 99.1354 88.8898C98.2938 88.9166 97.4482 88.9027 96.6096 88.9027H96.165C96.1571 89.0555 96.1451 89.1855 96.1451 89.3155C96.1451 91.2839 96.1451 93.2526 96.1451 95.2217C96.1518 95.3329 96.1485 95.4445 96.1352 95.5551C96.0846 95.831 95.9179 96.0067 95.6301 96.0057C95.3422 96.0047 95.1805 95.8241 95.1338 95.5492C95.1223 95.4504 95.1193 95.3508 95.1249 95.2514C95.1216 90.6828 95.1179 86.1159 95.114 81.5506C95.1014 81.3855 95.1386 81.2204 95.2209 81.0767C95.3032 80.933 95.4267 80.8174 95.5755 80.7447C96.4856 80.2177 97.3827 79.6679 98.275 79.1121C98.3902 79.0292 98.5281 78.9837 98.6701 78.9815C98.812 78.9794 98.9512 79.0208 99.0689 79.1002C99.9949 79.649 100.928 80.1849 101.855 80.7318C102.21 80.9412 102.311 81.2181 102.152 81.493C101.994 81.7679 101.702 81.8146 101.346 81.6091C100.564 81.1536 99.7795 80.708 99.0114 80.2375C98.7821 80.0976 98.6144 80.0797 98.3811 80.2316C97.7212 80.6573 97.0443 81.0365 96.3873 81.4513C96.3253 81.4914 96.2725 81.5441 96.2323 81.606C96.1921 81.6679 96.1655 81.7377 96.1541 81.8106C96.1402 83.7786 96.1451 85.7477 96.1461 87.7167C96.1511 87.7814 96.1604 87.8458 96.1739 87.9092Z" fill="#FF0E0E"/>
<path d="M105.278 83.946V93.5312C105.278 93.6304 105.278 93.7297 105.278 93.8289C105.27 94.2646 105.079 94.4949 104.747 94.4839C104.426 94.475 104.255 94.2547 104.251 93.8319C104.251 90.4675 104.244 87.103 104.259 83.7376C104.259 83.3813 104.173 83.1699 103.843 83.023C103.532 82.8717 103.23 82.701 102.94 82.5119C102.643 82.3323 102.553 82.0425 102.719 81.7924C102.898 81.5214 103.151 81.4728 103.429 81.6306C104.45 82.2102 105.471 82.7898 106.486 83.3803C106.792 83.558 106.867 83.8448 106.709 84.1018C106.551 84.3589 106.288 84.4105 105.965 84.2448C105.76 84.1376 105.562 84.0314 105.35 83.9202C105.342 83.9162 105.327 83.9321 105.278 83.946Z" fill="#FF0E0E"/>
<path d="M83.8642 156.378C83.2827 156.133 82.7185 155.848 82.1755 155.526C81.5191 155.118 80.9755 154.552 80.594 153.879C80.2125 153.207 80.0054 152.45 79.9915 151.677C79.9581 150.56 79.9915 149.441 79.9915 148.158H78.8109C74.6807 148.158 70.5496 148.158 66.4177 148.158C62.9813 148.155 61 146.169 61 142.728C61 135.427 61 128.126 61 120.826C61 117.4 62.9915 115.411 66.428 115.405C70.1749 115.405 73.9219 115.405 77.6689 115.405C79.1292 115.405 79.9786 114.571 79.9786 113.157C79.9872 96.5765 79.9915 79.9881 79.9915 63.3919C79.9915 60.5458 81.462 58.5953 84.0002 58.0948C84.442 58.0216 84.8897 57.9907 85.3373 58.0024C99.7092 58.0024 114.09 58.0024 128.479 58.0024C131.854 58.0024 133.855 59.9914 133.868 63.3611C133.868 65.8865 133.868 68.4118 133.868 71.0424C134.263 71.0629 134.6 71.0989 134.936 71.0989H147.332C150.817 71.0989 152.844 73.1084 152.844 76.5602C152.844 83.8625 152.844 91.1631 152.844 98.462C152.844 101.878 150.822 103.908 147.421 103.91C143.644 103.91 139.865 103.91 136.086 103.91C134.715 103.91 133.868 104.77 133.868 106.141C133.868 120.769 133.817 135.398 133.909 150.026C133.927 153.119 133.003 155.305 129.985 156.358L83.8642 156.378ZM83.2585 111.797C83.7718 111.417 84.1157 111.181 84.4442 110.935C86.6205 109.303 88.796 107.669 90.9706 106.033C91.584 105.568 92.3154 105.301 92.9057 105.797C93.3881 106.224 93.699 106.813 93.7808 107.452C93.9014 108.946 93.8219 110.457 93.8219 111.964V115.357C94.1691 115.39 94.5177 115.404 94.8664 115.4C98.2592 115.144 100.446 117.782 100.405 120.944C100.31 128.181 100.377 135.418 100.374 142.653C100.374 146.205 98.4081 148.158 94.8356 148.163C91.3453 148.163 87.855 148.163 84.3646 148.163H83.2585C83.2585 149.19 83.2585 150.075 83.2585 150.968C83.2585 152.559 83.8052 153.104 85.3886 153.104H128.43C130.037 153.104 130.586 152.567 130.586 150.994C130.586 136.81 130.586 122.626 130.586 108.44C130.586 108.184 130.545 107.927 130.519 107.619C130.453 107.644 130.389 107.673 130.327 107.706C127.863 109.544 125.396 111.374 122.938 113.219C122.335 113.673 121.719 113.922 120.985 113.568C120.251 113.214 120.012 112.541 120.022 111.738C120.038 110.745 120.022 109.752 120.022 108.761V103.918H119.055C115.423 103.898 113.468 101.947 113.468 98.3414C113.468 91.0733 113.468 83.8018 113.468 76.5268C113.468 73.1315 115.521 71.0989 118.919 71.0937C122.44 71.0937 125.962 71.0937 129.485 71.0937H130.583V63.6947C130.583 61.716 130.142 61.2772 128.161 61.2772H85.6992C83.7025 61.2772 83.2585 61.7109 83.2585 63.6768V111.797ZM123.307 108.797C123.659 108.558 123.821 108.458 123.972 108.343C127.121 105.982 130.252 103.6 133.432 101.282C133.971 100.904 134.609 100.691 135.267 100.672C139.332 100.618 143.397 100.646 147.463 100.641C148.974 100.641 149.567 100.053 149.57 98.5544C149.57 91.1973 149.57 83.8403 149.57 76.4832C149.57 74.9921 148.972 74.3993 147.455 74.3993C137.918 74.3993 128.38 74.3993 118.839 74.3993C117.341 74.3993 116.755 75.0024 116.75 76.5114C116.75 79.1035 116.75 81.6956 116.75 84.2877C116.75 89.0561 116.75 93.8245 116.75 98.5929C116.75 100.043 117.353 100.646 118.788 100.646C119.558 100.646 120.328 100.646 121.098 100.646C122.822 100.646 123.305 101.131 123.307 102.876C123.31 104.783 123.307 106.692 123.307 108.797ZM90.542 110.486C90.0698 110.827 89.7926 111.025 89.5154 111.23C86.6205 113.399 83.7102 115.547 80.8461 117.751C80.0502 118.398 79.0479 118.736 78.023 118.703C74.1734 118.655 70.3392 118.683 66.4973 118.685C64.7803 118.685 64.2696 119.199 64.2696 120.918C64.2696 128.152 64.2696 135.387 64.2696 142.622C64.2696 144.388 64.7829 144.883 66.5794 144.883C75.9896 144.883 85.3998 144.883 94.81 144.883C96.5885 144.883 97.0915 144.37 97.0941 142.602V121.472C97.0941 121.121 97.1095 120.769 97.0941 120.418C97.0299 119.317 96.4294 118.721 95.3258 118.69C94.4301 118.667 93.5293 118.69 92.6388 118.69C91.0989 118.675 90.5523 118.128 90.5471 116.604C90.5343 114.648 90.542 112.7 90.542 110.486Z" fill="#FF0E0E"/>
<path d="M106.862 150.499C104.783 150.499 102.707 150.532 100.631 150.499C99.1732 150.465 98.3211 149.049 99.1655 148.007C99.5619 147.568 100.115 147.301 100.705 147.265C104.858 147.206 109.013 147.219 113.168 147.242C114.287 147.242 115.005 147.963 114.982 148.918C114.959 149.873 114.287 150.489 113.186 150.501C111.079 150.522 108.969 150.501 106.862 150.499Z" fill="#FF0E0E"/>
<path d="M106.921 68.5937C105.125 68.5937 103.328 68.5937 101.55 68.5937C100.31 68.5937 99.6121 67.9906 99.6121 66.9692C99.6121 65.9477 100.343 65.3292 101.555 65.3241C105.134 65.3138 108.715 65.3138 112.298 65.3241C113.507 65.3241 114.238 65.9708 114.235 66.9717C114.233 67.9726 113.535 68.586 112.293 68.5912C110.501 68.6014 108.71 68.5937 106.921 68.5937Z" fill="#FF0E0E"/>
<path d="M144.665 84.8347C144.409 89.8392 141.842 93.3244 137.677 95.5366C133.057 97.9773 133.389 97.9516 128.91 95.688C125.13 93.7761 122.571 90.7682 121.796 86.4746C121.065 82.4145 123.113 78.9242 126.788 77.9233C128.713 77.3972 130.54 77.7642 132.244 78.6932C132.901 79.0525 133.363 79.0782 134.04 78.6932C138.444 76.2962 143.4 78.4032 144.465 83.0895C144.567 83.6667 144.634 84.2495 144.665 84.8347ZM141.329 85.9767C141.427 81.9038 138.842 80.1458 136.019 81.3828C135.448 81.6657 134.913 82.0164 134.425 82.4274C133.499 83.146 132.844 83.1562 131.926 82.4274C131.49 82.0535 131.016 81.7266 130.512 81.4521C127.601 80.0509 124.865 81.814 124.984 85.0451C125.102 88.2762 126.811 90.5706 129.411 92.1515C133.327 94.5332 133.091 94.5101 137.064 92.0591C139.622 90.4885 141.226 88.1377 141.329 85.9767Z" fill="#FF0E0E"/>
<path d="M69.2256 129.349C69.1204 123.467 74.7459 120.184 79.8762 123.015C80.1138 123.179 80.3958 123.267 80.6846 123.267C80.9735 123.267 81.2554 123.179 81.493 123.015C86.0844 120.474 91.5021 122.928 92.0898 127.855C92.5158 131.335 91.3198 134.343 88.9793 136.902C86.8748 139.212 84.2032 140.61 81.2518 141.522C80.9187 141.625 80.5631 141.634 80.2252 141.547C76.119 140.264 72.6389 138.162 70.5242 134.259C69.6732 132.762 69.2257 131.07 69.2256 129.349ZM88.8843 129.18C88.9254 126.29 86.5283 124.545 83.8259 125.54C83.2316 125.774 82.6768 126.098 82.1808 126.5C80.9438 127.473 80.4511 127.463 79.1627 126.48C78.6118 126.046 77.9925 125.707 77.3303 125.476C74.7305 124.637 72.4747 126.377 72.4875 129.116C72.494 130.726 73.0017 132.295 73.9401 133.604C75.5261 135.875 77.7897 137.225 80.3382 138.113C80.6383 138.207 80.9627 138.184 81.2467 138.049C82.8019 137.184 84.4573 136.432 85.8405 135.339C86.7856 134.614 87.5516 133.682 88.0793 132.614C88.607 131.546 88.8824 130.371 88.8843 129.18Z" fill="#FF0E0E"/>
<defs>
<filter id="filter0_dd_21_3678" x="0" y="0" width="214" height="214" filterUnits="userSpaceOnUse" color-interpolation-filters="sRGB">
<feFlood flood-opacity="0" result="BackgroundImageFix"/>
<feColorMatrix in="SourceAlpha" type="matrix" values="0 0 0 0 0 0 0 0 0 0 0 0 0 0 0 0 0 0 127 0" result="hardAlpha"/>
<feOffset dx="2" dy="2"/>
<feGaussianBlur stdDeviation="2.5"/>
<feComposite in2="hardAlpha" operator="out"/>
<feColorMatrix type="matrix" values="0 0 0 0 0 0 0 0 0 0 0 0 0 0 0 0 0 0 0.05 0"/>
<feBlend mode="normal" in2="BackgroundImageFix" result="effect1_dropShadow_21_3678"/>
<feColorMatrix in="SourceAlpha" type="matrix" values="0 0 0 0 0 0 0 0 0 0 0 0 0 0 0 0 0 0 127 0" result="hardAlpha"/>
<feOffset dx="-2" dy="-2"/>
<feGaussianBlur stdDeviation="2.5"/>
<feComposite in2="hardAlpha" operator="out"/>
<feColorMatrix type="matrix" values="0 0 0 0 0 0 0 0 0 0 0 0 0 0 0 0 0 0 0.05 0"/>
<feBlend mode="normal" in2="effect1_dropShadow_21_3678" result="effect2_dropShadow_21_3678"/>
<feBlend mode="normal" in="SourceGraphic" in2="effect2_dropShadow_21_3678" result="shape"/>
</filter>
</defs>
</svg>
