<svg width="100" height="100" viewBox="0 0 100 100" fill="none" xmlns="http://www.w3.org/2000/svg">
<path d="M93.6611 59.4194H90.6944V62.4056H93.6611V59.4194ZM87.3389 50.0444H84.425C84.2111 59.5306 80.9278 67.6639 74.2611 74.3194C67.6 80.9694 59.4556 84.225 50.0694 84.4306V87.3972C71.4305 87.7056 88.0889 68.9639 87.3389 50.0444ZM50.2278 96.8583C47.3806 96.8472 44.4917 96.625 41.7 96.0944C26.9694 93.2861 15.9667 85.2111 8.69722 72.1361C4.86389 65.2444 3.10833 57.7611 3.10556 49.8722C3.10556 47.8667 3.10556 45.8583 3.10556 43.75H0V52.7333C0.216667 54.4667 0.372222 56.2111 0.658333 57.9333C2.25556 67.5667 6.26111 76.0806 12.8139 83.325C20.8889 92.2528 30.9028 97.6583 42.8361 99.4361C44.3083 99.6556 45.7889 99.8139 47.2667 100H100V96.875C99.8055 96.8806 99.6111 96.8917 99.4139 96.8917C83.0194 96.8917 66.625 96.9278 50.2278 96.8583ZM69.0167 10.6556C52.4389 2.42222 32.0944 5.96389 19.0222 19.175C5.83333 32.5056 2.51389 52.7111 10.7278 69.225C19.3778 86.6111 36.6389 94.0222 49.9333 93.6278V90.8944C46.9083 90.4694 43.975 90.2583 41.1333 89.6278C19.5056 84.8444 5.63889 63.3333 10.1889 41.7333C14.8667 19.525 36.8861 5.2 58.8833 10.3944C74.1361 13.9972 84.1194 23.6194 88.9722 38.5111C90.5555 43.3667 90.7667 48.4056 90.6444 53.4694C90.6222 54.3667 90.6417 55.2667 90.6417 56.1778H93.6444C95.2778 36.0639 86.3028 19.2389 69.0167 10.6556ZM93.6944 65.7056H90.6972V68.6528H93.6944V65.7056ZM3.05 37.5H0V40.625H3.05V37.5ZM3.05 31.25H0V34.375H3.05V31.25ZM68.6861 93.6778V90.7139H65.7056V93.6778H68.6861ZM38.9694 43.8361H36.0139V46.8222H38.9694V43.8361ZM96.95 56.25H100V53.125H96.95V56.25ZM42.1611 18.8472V31.3H32.8917V34.4028H42.1278V62.55H36.0361V65.6528H42.2417V68.6667H45.3139V65.6611H48.4722V74.9278H51.5806V65.6056C53.2889 65.6056 54.8806 65.6694 56.4694 65.5944C61.0056 65.3778 64.3583 63.225 66.2028 59.0833C68.0333 54.9694 67.3861 51.0555 64.5028 47.6028C63.65 46.5806 62.5111 45.7972 61.4861 44.8917C61.4944 44.8806 61.5417 44.7944 61.6083 44.725C64.075 42.1722 64.7917 39.2 63.3611 35.9472C61.9333 32.6944 59.2472 31.2222 55.7139 31.2667C54.3583 31.2833 53 31.2694 51.5306 31.2694V28.2H48.425V31.225H45.2694V18.8472H42.1611ZM64.0555 55.4667C63.6917 59.375 60.3194 62.4694 56.3556 62.5139C54.7972 62.5306 53.2389 62.5167 51.6111 62.5167V47.0417C53.7528 47.0417 55.8722 46.7694 57.8889 47.1C61.8194 47.7444 64.4278 51.4833 64.0555 55.4667ZM51.5778 34.5306C53.5722 34.5306 55.5722 34.2861 57.4806 34.5944C59.7889 34.9639 61.2083 37.325 60.9306 39.65C60.6556 41.9306 58.6667 43.725 56.3333 43.7639C54.7806 43.7889 53.225 43.7694 51.5778 43.7694V34.5306ZM48.4028 62.4694H45.375V46.9083H48.4028V62.4694ZM45.3556 34.4194H48.3944V43.7278H45.3556V34.4194ZM29.7639 43.8361V46.8056H32.75V43.8361H29.7639ZM99.6278 44.2861C98.3194 33.2028 93.8194 23.5917 86.1222 15.5361C78.1778 7.22222 68.4694 2.21944 57.0694 0.55C55.6278 0.338889 54.1805 0.183333 52.7333 0H0V3.125C0.130556 3.11944 0.261111 3.10833 0.388889 3.10833C16.9778 3.10833 33.5694 3.1 50.1583 3.11111C55.2694 3.11389 60.2861 3.84722 65.0806 5.63056C82.4667 12.1083 92.9056 24.4917 96.2944 42.7444C96.7306 45.0917 96.7972 47.5056 97.0361 49.9222C97.0222 49.9111 97.0472 49.9472 97.0722 49.9472C98.05 49.9667 99.025 49.9833 100 50V47.2667C99.875 46.2722 99.7444 45.2806 99.6278 44.2861ZM56.1611 93.6861V90.7056H53.1972V93.6861H56.1611ZM62.4139 93.6555V90.7H59.4278V93.6555H62.4139ZM29.6111 31.3028H26.6556V34.2889H29.6111V31.3028ZM18.8139 50.0889C18.6861 66.6694 32.5694 81.8722 51.3639 81.2111C69.3222 80.5806 83.2472 64.2167 80.9972 46.2694C78.7056 28.0056 62.5306 18.2806 50.0472 18.9028V21.7806C65.2528 21.8194 77.8028 34.1 78.1194 49.2333C78.4222 63.7194 68.3611 75.6361 53.975 77.8472C47.1917 78.8889 40.7917 77.5139 35.025 73.7861C26.4444 68.2389 22.1861 60.1806 21.7833 50.0889H18.8139Z" fill="#FF0E0E"/>
</svg>
