<svg width="214" height="214" viewBox="0 0 214 214" fill="none" xmlns="http://www.w3.org/2000/svg">
<g filter="url(#filter0_dd_21_3701)">
<circle cx="107" cy="107" r="100" fill="white"/>
</g>
<path d="M106.979 103.737C108.557 103.729 109.602 104.448 110.003 105.836C110.096 106.164 110.159 106.503 110.229 106.799H113.26C112.982 104.146 111.672 102.286 109.341 101.208C108.682 100.904 108.49 100.562 108.531 99.901C108.581 99.1354 108.542 98.362 108.542 97.5677H105.453C105.453 98.4844 105.5 99.3594 105.427 100.221C105.401 100.518 105.12 100.846 104.872 101.06C103.878 101.919 102.643 102.586 101.875 103.604C100.091 105.966 100.391 108.435 102.612 110.383C103.724 111.357 105.042 112.099 106.289 112.914C107.211 113.518 108.195 114.031 109.102 114.654C109.909 115.208 110.323 115.992 110.086 117.016C109.844 118.07 109.281 118.841 108.216 119.203C105.99 119.956 104.396 118.937 103.732 116.307H100.841C100.74 118.549 102.331 120.919 104.695 121.94C105.318 122.211 105.508 122.536 105.466 123.172C105.414 123.966 105.453 124.766 105.453 125.536H108.542C108.542 124.628 108.484 123.781 108.57 122.948C108.604 122.625 108.901 122.273 109.169 122.039C110.138 121.195 111.339 120.547 112.096 119.555C113.914 117.167 113.617 114.672 111.349 112.701C110.234 111.729 108.909 111 107.664 110.18C106.664 109.521 105.609 108.935 104.643 108.232C103.849 107.654 103.703 106.805 103.974 105.865C104.378 104.487 105.404 103.745 106.979 103.737ZM97.5703 113.029V110.078H94.5703V113.029H97.5703ZM88.3151 78.6693H125.674V75.6875H88.3151V78.6693ZM119.448 113.029V110.078H116.445V113.029H119.448ZM82.0182 128.664H85.1068V127.336C85.1068 108.065 85.1042 88.7943 85.1094 69.526C85.1094 65.625 87.625 63.112 91.526 63.1094C104.187 63.1042 116.852 63.1068 129.513 63.1094C129.812 63.1094 130.109 63.1432 130.565 63.1693C129.086 65.0859 128.87 67.1328 128.872 69.3021C128.904 87.888 128.888 106.477 128.888 125.062V128.651H131.982V127.794C131.982 115.133 131.982 102.469 131.982 89.8073C131.982 82.5156 131.977 75.224 131.984 67.9323C131.987 65.513 133.177 63.8437 135.242 63.2969C138.687 62.3854 141.388 64.4583 141.391 68.0312C141.396 76.2005 141.302 84.3724 141.427 92.5417C141.492 96.7865 140.745 101.094 142.115 105.354H135.224V108.419C139.279 108.419 143.247 108.422 147.219 108.419C151.029 108.417 153.857 105.576 153.857 101.747C153.859 91.3307 153.857 80.9141 153.857 70.4974V69.4453H147.721V72.5286H150.763C150.763 75.0755 150.763 77.5443 150.763 80.013C150.763 87.3698 150.771 94.7266 150.763 102.083C150.76 104.214 149.565 105.375 147.49 105.331C145.544 105.286 144.482 104.081 144.482 101.917C144.482 90.6536 144.484 79.3906 144.479 68.1276C144.479 64.6849 142.352 61.638 139.141 60.4688C138.656 60.2891 138.156 60.1536 137.664 60H90.2031C90.1224 60.0495 90.0443 60.125 89.9557 60.1484C84.7917 61.4167 82.013 64.9427 82.013 70.25C82.013 89.3568 82.0156 108.466 82.0156 127.573V128.664H82.0182ZM150.672 138.039V111.615H147.719V138.039H150.672ZM125.698 88.2188H88.3385V91.1719H125.698V88.2188ZM66.362 136.503C66.362 121.823 66.401 107.146 66.3281 92.4661C66.3125 89.1589 67.2865 87.9271 70.7682 88.0859C73.138 88.1953 75.5182 88.1068 77.8958 88.1068H78.7917V85.0182C75.7656 85.0182 72.8073 85.013 69.849 85.0182C66.1354 85.026 63.2708 87.8646 63.2708 91.5547C63.2656 106.721 63.2682 121.888 63.2682 137.055V138.07H66.362V136.503ZM78.7995 94.3359V91.3151H69.5885V134.924H144.435V111.651H141.357V131.836H72.6536V94.3359H78.7995ZM121.081 141.206C118.419 141.177 116.281 141.589 114.68 143.833C114.443 144.167 113.802 144.359 113.344 144.365C109.927 144.409 106.5 144.229 103.099 144.445C100.711 144.596 98.862 144.026 97.4974 142.057C97.0156 141.365 96.3594 141.25 95.5573 141.25C82.7031 141.268 69.8516 141.255 57 141.25V146.719C57.7057 147.37 58.4375 147.997 59.112 148.682C60.7656 150.357 62.3932 152.06 64.0312 153.75H149.969C150.987 152.677 151.984 151.581 153.031 150.536C154.331 149.242 155.674 147.99 157 146.719V141.25C145.026 141.255 133.052 141.341 121.081 141.206ZM153.404 145.763C152.008 147.219 150.589 148.656 149.117 150.034C148.763 150.365 148.174 150.617 147.695 150.62C131.784 150.648 115.872 150.643 99.9609 150.643C88.7995 150.643 77.6406 150.635 66.4792 150.659C65.7344 150.661 65.2109 150.445 64.7005 149.909C63.3776 148.518 61.9792 147.201 60.6536 145.812C60.3359 145.482 60.1849 144.992 59.8385 144.357H61.2031C72.2995 144.357 83.3932 144.362 94.4896 144.341C95.1667 144.341 95.7057 144.477 96.0911 145.029C97.5495 147.115 99.5208 147.667 102.031 147.542C106.219 147.333 110.424 147.503 114.62 147.456C115.099 147.451 115.758 147.214 116.021 146.854C117.573 144.74 119.586 144.258 122.161 144.294C132.409 144.445 142.659 144.357 152.909 144.357H154.151C153.831 144.982 153.701 145.453 153.404 145.763ZM88.3021 84.9062H125.661V81.9531H88.3021V84.9062ZM111.755 69.4531V72.4062H114.76V69.4531H111.755ZM105.482 69.4609V72.4297H108.469V69.4609H105.482ZM99.276 69.4401V72.4193H102.24V69.4401H99.276Z" fill="#FF0E0E"/>
<defs>
<filter id="filter0_dd_21_3701" x="0" y="0" width="214" height="214" filterUnits="userSpaceOnUse" color-interpolation-filters="sRGB">
<feFlood flood-opacity="0" result="BackgroundImageFix"/>
<feColorMatrix in="SourceAlpha" type="matrix" values="0 0 0 0 0 0 0 0 0 0 0 0 0 0 0 0 0 0 127 0" result="hardAlpha"/>
<feOffset dx="2" dy="2"/>
<feGaussianBlur stdDeviation="2.5"/>
<feComposite in2="hardAlpha" operator="out"/>
<feColorMatrix type="matrix" values="0 0 0 0 0 0 0 0 0 0 0 0 0 0 0 0 0 0 0.05 0"/>
<feBlend mode="normal" in2="BackgroundImageFix" result="effect1_dropShadow_21_3701"/>
<feColorMatrix in="SourceAlpha" type="matrix" values="0 0 0 0 0 0 0 0 0 0 0 0 0 0 0 0 0 0 127 0" result="hardAlpha"/>
<feOffset dx="-2" dy="-2"/>
<feGaussianBlur stdDeviation="2.5"/>
<feComposite in2="hardAlpha" operator="out"/>
<feColorMatrix type="matrix" values="0 0 0 0 0 0 0 0 0 0 0 0 0 0 0 0 0 0 0.05 0"/>
<feBlend mode="normal" in2="effect1_dropShadow_21_3701" result="effect2_dropShadow_21_3701"/>
<feBlend mode="normal" in="SourceGraphic" in2="effect2_dropShadow_21_3701" result="shape"/>
</filter>
</defs>
</svg>
