<svg width="48" height="47" viewBox="0 0 48 47" fill="none" xmlns="http://www.w3.org/2000/svg">
<path fill-rule="evenodd" clip-rule="evenodd" d="M23.9988 0C10.7452 0 0 10.7458 0 24.0012C0 34.6049 6.87508 43.6006 16.4129 46.7723C17.6142 46.9945 18.0511 46.2554 18.0511 45.6172C18.0511 45.0486 18.0302 43.5403 18.0197 41.5354C11.3434 42.9871 9.93477 38.3175 9.93477 38.3175C8.84308 35.5452 7.26954 34.808 7.26954 34.808C5.09046 33.32 7.43508 33.3489 7.43508 33.3489C9.84369 33.5194 11.1114 35.8215 11.1114 35.8215C13.2517 39.4892 16.7292 38.4277 18.096 37.8172C18.3132 36.2634 18.9348 35.208 19.6197 34.6068C14.2911 34.0012 8.68862 31.9422 8.68862 22.7458C8.68862 20.1249 9.62339 17.9822 11.1582 16.304C10.9126 15.6997 10.0874 13.2597 11.3938 9.95385C11.3938 9.95385 13.4086 9.30892 17.9945 12.416C19.9077 11.8812 21.9612 11.6142 24.0025 11.6062C26.0406 11.6148 28.0948 11.8812 30.0105 12.416C34.5932 9.30892 36.6049 9.95385 36.6049 9.95385C37.9145 13.2597 37.0898 15.6997 36.8437 16.304C38.3822 17.9822 39.3102 20.1249 39.3102 22.7458C39.3102 31.9637 33.6997 33.9945 28.3532 34.5865C29.2135 35.328 29.9815 36.7957 29.9815 39.0351C29.9815 42.2418 29.9526 44.8295 29.9526 45.6166C29.9526 46.2597 30.384 47.0074 31.6025 46.7692C41.1298 43.5908 48 34.6018 48 24.0012C48 10.7458 37.2548 0 23.9988 0Z" fill="white"/>
</svg>
