<svg width="48" height="48" viewBox="0 0 48 48" fill="none" xmlns="http://www.w3.org/2000/svg">
<path d="M44.4447 0H3.54333C1.58733 0 0 1.55 0 3.45867V44.5367C0 46.448 1.58733 48 3.54333 48H44.4447C46.402 48 48 46.448 48 44.5367V3.45867C48 1.55 46.402 0 44.4447 0ZM14.236 40.9027H7.11333V17.9967H14.236V40.9027ZM10.6747 14.8647C10.1325 14.8647 9.59569 14.7578 9.09484 14.5503C8.594 14.3427 8.13896 14.0385 7.75573 13.6551C7.3725 13.2716 7.06859 12.8163 6.86136 12.3154C6.65413 11.8144 6.54765 11.2775 6.548 10.7353C6.548 9.64096 6.98274 8.59141 7.75658 7.81757C8.53041 7.04374 9.57996 6.609 10.6743 6.609C11.7687 6.609 12.8183 7.04374 13.5921 7.81757C14.3659 8.59141 14.8007 9.64096 14.8007 10.7353C14.8007 11.8299 14.3661 12.8797 13.5924 13.654C12.8187 14.4283 11.7693 14.8638 10.6747 14.8647ZM40.9 40.9027H33.7887V29.764C33.7887 27.1067 33.7367 23.69 30.088 23.69C26.3827 23.69 25.818 26.584 25.818 29.5713V40.9033H18.7013V17.9967H25.5313V21.1247H25.6287C26.5793 19.3247 28.902 17.4253 32.366 17.4253C39.57 17.4253 40.9007 22.168 40.9007 28.338V40.9027H40.9Z" fill="white"/>
</svg>
