<svg width="42" height="52" viewBox="0 0 42 52" fill="none" xmlns="http://www.w3.org/2000/svg">
<path d="M21.2 28.4C25.1765 28.4 28.4 25.1765 28.4 21.2C28.4 17.2236 25.1765 14 21.2 14C17.2236 14 14 17.2236 14 21.2C14 25.1765 17.2236 28.4 21.2 28.4Z" stroke="white" stroke-width="3" stroke-linecap="round" stroke-linejoin="round"/>
<path d="M21.2 2C16.1078 2 11.2242 4.02285 7.62355 7.62355C4.02285 11.2242 2 16.1078 2 21.2C2 25.7408 2.9648 28.712 5.6 32L21.2 50L36.8 32C39.4352 28.712 40.4 25.7408 40.4 21.2C40.4 16.1078 38.3771 11.2242 34.7764 7.62355C31.1757 4.02285 26.2922 2 21.2 2V2Z" stroke="white" stroke-width="3" stroke-linecap="round" stroke-linejoin="round"/>
</svg>
