<svg width="48" height="39" viewBox="0 0 48 39" fill="none" xmlns="http://www.w3.org/2000/svg">
<path d="M40.8 0H7.2C5.29044 0 3.45909 0.75857 2.10883 2.10883C0.75857 3.4591 0 5.29044 0 7.2V31.2C0 33.1096 0.75857 34.9409 2.10883 36.2912C3.45909 37.6415 5.29044 38.4 7.2 38.4H40.8C42.7096 38.4 44.5409 37.6415 45.8912 36.2912C47.2414 34.9409 48 33.1096 48 31.2V7.2C48 5.29044 47.2414 3.4591 45.8912 2.10883C44.5409 0.75857 42.7096 0 40.8 0ZM39.192 4.8L24 16.2L8.808 4.8H39.192ZM40.8 33.6H7.2C6.56348 33.6 5.95303 33.3472 5.50294 32.8971C5.05286 32.447 4.8 31.8365 4.8 31.2V7.8L22.56 21.12C22.9754 21.4316 23.4807 21.6 24 21.6C24.5193 21.6 25.0246 21.4316 25.44 21.12L43.2 7.8V31.2C43.2 31.8365 42.9471 32.447 42.4971 32.8971C42.047 33.3472 41.4365 33.6 40.8 33.6Z" fill="white"/>
</svg>
