<svg width="37" height="48" viewBox="0 0 37 48" fill="none" xmlns="http://www.w3.org/2000/svg">
<path d="M9.72222 0.255834L7.57369 0.903997C5.65738 1.48124 3.9459 2.594 2.64077 4.11126C1.33563 5.62851 0.491182 7.48708 0.206843 9.46814C-0.68438 15.6737 1.30812 22.9295 6.11232 31.2506C10.9045 39.5507 16.1798 44.898 21.9863 47.2386C23.8519 47.9905 25.8943 48.1909 27.8705 47.8158C29.8467 47.4408 31.6736 46.5062 33.1341 45.1231L34.7635 43.5807C35.8191 42.5808 36.4759 41.2316 36.6116 39.7839C36.7474 38.3362 36.353 36.8885 35.5017 35.7097L31.4327 30.0683C30.8825 29.3067 30.1079 28.7363 29.2173 28.4371C28.3267 28.1379 27.3648 28.1249 26.4664 28.3999L20.3119 30.2814L20.1528 30.3114C19.4747 30.4104 17.9113 28.943 15.9608 25.5642C13.9203 22.0293 13.4942 19.9618 14.0583 19.4276L17.1911 16.5079C18.3351 15.4407 19.1164 14.0421 19.4253 12.5084C19.7342 10.9746 19.5552 9.38265 18.9135 7.95576L16.933 3.54166C16.3356 2.21204 15.2746 1.14532 13.9482 0.540667C12.6219 -0.0639834 11.1208 -0.165229 9.72522 0.255834H9.72222ZM14.1933 4.77197L16.1768 9.18607C16.5625 10.042 16.6704 10.9972 16.4852 11.9176C16.3001 12.8379 15.8313 13.6772 15.1446 14.3174L12.0058 17.2401C9.99529 19.1396 10.6615 22.3894 13.3591 27.0645C15.9008 31.4636 18.2174 33.6362 20.705 33.2581L21.0771 33.1801L27.3426 31.2686C27.6421 31.1766 27.9629 31.1807 28.26 31.2802C28.557 31.3798 28.8155 31.5698 28.999 31.8237L33.0681 37.4652C33.4941 38.0547 33.6916 38.7789 33.6237 39.503C33.5558 40.2272 33.2272 40.9021 32.699 41.4021L31.0696 42.9445C30.0263 43.9318 28.7216 44.5989 27.3104 44.8665C25.8992 45.134 24.4408 44.9908 23.1086 44.4539C18.0133 42.4014 13.1971 37.5192 8.71097 29.7502C4.21585 21.9633 2.39739 15.3406 3.17759 9.89425C3.38056 8.47882 3.98383 7.15088 4.91632 6.06687C5.84882 4.98285 7.0717 4.18792 8.4409 3.77572L10.5924 3.12755C11.29 2.91795 12.04 2.9692 12.7025 3.27177C13.3651 3.57433 13.8949 4.10754 14.1933 4.77197Z" fill="white"/>
</svg>
