<svg width="48" height="40" viewBox="0 0 48 40" fill="none" xmlns="http://www.w3.org/2000/svg">
<path d="M48 4.6178C46.2028 5.41399 44.2964 5.93634 42.3443 6.16745C44.4004 4.93721 45.9391 3.00132 46.6735 0.720601C44.7409 1.86791 42.626 2.67582 40.4207 3.10929C39.4993 2.12652 38.3859 1.34346 37.1494 0.808616C35.913 0.273773 34.5799 -0.00144874 33.2328 5.73492e-06C27.7947 5.73492e-06 23.3851 4.40835 23.3851 9.84772C23.3851 10.6188 23.4723 11.3712 23.6406 12.0924C15.456 11.6816 8.2002 7.76074 3.34304 1.80212C2.46727 3.30506 2.00709 5.01392 2.00969 6.75341C2.0084 8.37475 2.40762 9.97131 3.1719 11.4012C3.93617 12.8311 5.04182 14.0501 6.39061 14.9499C4.82706 14.9002 3.29796 14.4779 1.93052 13.7181C1.92928 13.7593 1.92928 13.7998 1.92928 13.8422C1.92928 18.6121 5.32343 22.5922 9.82777 23.4979C8.37739 23.8905 6.85669 23.9481 5.38078 23.6662C6.63372 27.5777 10.2704 30.4258 14.5796 30.5056C11.0913 33.2431 6.78364 34.728 2.34942 34.7214C1.55464 34.7214 0.771087 34.6752 0 34.5836C4.50268 37.4767 9.74309 39.0123 15.0951 39.0069C33.2085 39.0069 43.1135 24.0022 43.1135 10.9903C43.1135 10.564 43.1036 10.1382 43.0849 9.71495C45.0138 8.32232 46.6784 6.59613 48 4.6178Z" fill="white"/>
</svg>
