<svg width="274" height="713" viewBox="0 0 274 713" fill="none" xmlns="http://www.w3.org/2000/svg">
<path fill-rule="evenodd" clip-rule="evenodd" d="M-90.9552 176.243C-100.053 158.884 -86.692 124.177 -73.5965 90.1584C-46.4998 19.7695 -20.5383 -47.6704 -197.014 47.6203C-307.837 107.46 -416.006 218.313 -410.31 274.13C-408.122 295.564 -357.641 324.14 -296.28 351.211C-295.854 372.991 -293.907 399.764 -289.633 432.627C-265.97 614.574 -81.7468 879.676 -20.6271 571.786C11.0951 411.982 71.5273 496.325 129.716 577.536C192.945 665.782 253.524 750.33 271.742 513.926C283.183 365.469 232.245 171.706 161.92 124.469C126.073 100.392 12.144 135.767 -90.9552 176.243Z" fill="#E20016" fill-opacity="0.2"/>
</svg>
