<svg width="348" height="714" viewBox="0 0 348 714" fill="none" xmlns="http://www.w3.org/2000/svg">
<path fill-rule="evenodd" clip-rule="evenodd" d="M319.716 176.342C310.619 158.983 323.979 124.276 337.075 90.2575C364.172 19.8687 390.133 -47.5713 213.657 47.7194C102.834 107.559 -5.33483 218.412 0.361469 274.229C2.54908 295.663 53.0303 324.239 114.392 351.31C114.817 373.09 116.765 399.863 121.039 432.726C144.702 614.673 328.925 879.775 390.044 571.885C421.767 412.081 482.199 496.424 540.388 577.635C603.616 665.881 664.196 750.429 682.413 514.025C693.854 365.568 642.917 171.805 572.591 124.568C536.745 100.491 422.816 135.866 319.716 176.342Z" fill="black" fill-opacity="0.1"/>
</svg>
