<svg width="338" height="733" viewBox="0 0 338 733" fill="none" xmlns="http://www.w3.org/2000/svg">
<path d="M-14 732C-14.3 731.78 -15 732.51 -15 731.5C-15 730.17 -15 728.83 -15 727.5L-15 -3.07966e-05C-13.47 0.639984 -11.9 1.18997 -10.43 1.94998C1.57001 8.11997 13.46 14.51 25.57 20.5C85.34 50.05 146.63 76.17 208.98 99.84C227.65 106.92 246.74 113.05 264.27 122.95C311.91 149.99 335.56 191.22 337.18 245.61C338.03 274.05 332.89 301.66 324.67 328.76C310.27 376.36 287.45 419.98 260.6 461.58C219.53 525.22 170.15 581.84 114.6 633.2C79.5343 665.744 41.8022 695.29 1.79996 721.53C-3.49005 724.98 -9.18002 727.83 -14 732Z" fill="#E20016" fill-opacity="0.2"/>
</svg>
